{
.formatVersion = 3;
axes = (
{
name = Weight;
tag = wght;
}
);
classes = (
{
code = "a aacute abreve acaron acircumflex adieresis adotbelow agrave ahoi amacron aogonek aring aringacute atilde abreveacute abrevedotbelow abrevegrave abrevehoi abrevetilde acircumflexacute acircumflexdotbelow acircumflexgrave acircumflexhoi acircumflextilde gbreve gcircumflex gcommaaccent gdotaccent germandbls alpha alphatonos acyr vecyr gecyr decyr zhecyr zecyr icyr ishortcyr kacyr elcyr pecyr tecyr efcyr tsecyr shacyr shchacyr hardcyr softcyr yucyr yacyr Decyr Zhecyr Kacyr Elcyr Efcyr Yacyr adieresiscyr abrevecyr igravecyr";
name = aalt;
},
{
code = "a.alt01 aacute.alt01 abreve.alt01 acaron.alt01 acircumflex.alt01 adieresis.alt01 adotbelow.alt01 agrave.alt01 ahoi.alt01 amacron.alt01 aogonek.alt01 aring.alt01 aringacute.alt01 atilde.alt01 abreveacute.alt01 abrevedotbelow.alt01 abrevegrave.alt01 abrevehoi.alt01 abrevetilde.alt01 acircumflexacute.alt01 acircumflexdotbelow.alt01 acircumflexgrave.alt01 acircumflexhoi.alt01 acircumflextilde.alt01 gbreve.alt01 gcircumflex.alt01 gcommaaccent.alt01 gdotaccent.alt01 germandbls.alt01 alpha.alt01 alphatonos.alt01 acyr.alt01 vecyr.loclBGR gecyr.loclBGR decyr.loclBGR zhecyr.loclBGR zecyr.loclBGR icyr.loclBGR ishortcyr.loclBGR kacyr.loclBGR elcyr.loclBGR pecyr.loclBGR tecyr.loclBGR efcyr.loclBGR tsecyr.loclBGR shacyr.loclBGR shchacyr.loclBGR hardcyr.loclBGR softcyr.loclBGR yucyr.loclBGR yacyr.loclBGR Decyr.loclBGR Zhecyr.loclBGR Kacyr.loclBGR Elcyr.loclBGR Efcyr.loclBGR Yacyr.loclBGR adieresiscyr.alt01 abrevecyr.alt01 igravecyr.loclBGR";
name = aalt2;
},
{
code = "hookabovecomb breveacute brevegrave brevehook brevetilde dieresisacute dieresiscaron dieresisgrave circumflexacute circumflexbreve circumflexgrave circumflexhook dieresismacron circumflextilde";
name = ccmp;
},
{

glyphs = (
{
glyphname = .notdef;
layers = (
{
layerId = "880420EB-584C-4B51-BB9F-151DBE095CD5";
shapes = (
{
closed = 1;
nodes = (
(32,0,l),
(32,780,l),
(440,780,l),
(440,0,l)
);
},
{
closed = 1;
nodes = (
(145,113,l),
(327,113,l),
(327,667,l),
(145,667,l)
);
}
);
width = 472;
},
{
layerId = "389CED9B-F3EB-41FE-A5B1-A4D5AEA6A809";
shapes = (
{
closed = 1;
nodes = (
(32,0,l),
(32,780,l),
(440,780,l),
(440,0,l)
);
},
{
closed = 1;
nodes = (
(132,100,l),
(340,100,l),
(340,680,l),
(132,680,l)
);
}
);
width = 472;
},
{
layerId = "0B20A76F-6223-4F08-8632-D01C13B3F8D0";
shapes = (
{
closed = 1;
nodes = (
(32,0,l),
(32,780,l),
(440,780,l),
(440,0,l)
);
},
{
closed = 1;
nodes = (
(92,60,l),
(380,60,l),
(380,720,l),
(92,720,l)
);
}
);
width = 472;
},
{
layerId = "C5DA3672-7219-4097-B42A-B369F4569BEC";
shapes = (
{
closed = 1;
nodes = (
(32,0,l),
(32,780,l),
(440,780,l),
(440,0,l)
);
},
{
closed = 1;
nodes = (
(48,16,l),
(424,16,l),
(424,764,l),
(48,764,l)
);
}
);
width = 472;
}
);
},
{
glyphname = a;
layers = (
{
anchors = (
{
name = b.uni0327;
position = "{269, 0}";
},
{
name = b.uni0328;
position = "{539, 0}";
},
{
name = t.uni0303;
position = "{268, 540}";
}
);
layerId = "880420EB-584C-4B51-BB9F-151DBE095CD5";
shapes = (
{
closed = 1;
nodes = (
(350,0,l),
(350,136,l),
(382,95,l),
(346,95,l),
(335,42,o),
(252,-12,o),
(190,-12,qs),
(112,-12,o),
(31,73,o),
(31,140,qs),
(31,198,o),
(88,272,o),
(190,308,o),
(257,308,qs),
(334,308,l),
(334,335,ls),
(334,368,o),
(301,408,o),
(259,408,qs),
(215,408,o),
(167,372,o),
(152,351,q),
(50,440,l),
(86,489,o),
(186,540,o),
(272,540,qs),
(389,540,o),
(505,439,o),
(505,342,qs),
(505,0,l)
);
},
{
closed = 1;
nodes = (
(334,216,l),
(273,216,ls),
(239,216,o),
(201,190,o),
(201,164,qs),
(201,151,ls),
(201,126,o),
(231,103,o),
(259,103,qs),
(279,103,o),
(312,113,o),
(334,139,o),
(334,162,qs)
);
}
);
width = 583;
},
{
anchors = (
{
name = b.uni0327;
position = "{269, 0}";
},
{
name = b.uni0328;
position = "{539, 0}";
},
{
name = t.uni0303;
position = "{268, 540}";
}
);
layerId = "389CED9B-F3EB-41FE-A5B1-A4D5AEA6A809";
shapes = (
{
closed = 1;
nodes = (
(355,0,l),
(355,130,l),
(387,92,l),
(351,92,l),
(339,41,o),
(257,-12,o),
(197,-12,qs),
(118,-12,o),
(34,73,o),
(34,141,qs),
(34,197,o),
(89,269,o),
(190,305,o),
(259,305,qs),
(342,305,l),
(342,338,ls),
(342,376,o),
(302,421,o),
(255,421,qs),
(211,421,o),
(159,383,o),
(142,359,q),
(54,437,l),
(86,484,o),
(184,537,o),
(266,537,qs),
(377,537,o),
(490,438,o),
(490,345,qs),
(490,0,l)
);
},
{
closed = 1;
nodes = (
(342,221,l),
(270,221,ls),
(227,221,o),
(183,191,o),
(183,162,qs),
(183,147,ls),
(183,119,o),
(219,91,o),
(252,91,qs),
(277,91,o),
(317,105,o),
(342,135,o),
(342,159,qs)
);
}
);
width = 569;
},
{
anchors = (
{
name = b.uni0327;
position = "{269, 0}";
},
{
name = b.uni0328;
position = "{539, 0}";
},
{
name = t.uni0303;
position = "{268, 540}";
}
);
layerId = "0B20A76F-6223-4F08-8632-D01C13B3F8D0";
shapes = (
{
closed = 1;
nodes = (
(370,0,l),
(370,113,l),
(401,84,l),
(366,84,l),
(350,37,o),
(271,-12,o),
(217,-12,qs),
(135,-12,o),
(44,72,o),
(44,144,qs),
(44,193,o),
(92,260,o),
(189,295,o),
(264,295,qs),
(366,295,l),
(366,346,ls),
(366,401,o),
(306,459,o),
(244,459,qs),
(198,459,o),
(134,417,o),
(113,382,q),
(65,427,l),
(86,468,o),
(178,528,o),
(248,528,qs),
(341,528,o),
(446,436,o),
(446,354,qs),
(446,0,l)
);
},
{
closed = 1;
nodes = (
(366,235,l),
(260,235,ls),
(192,235,o),
(128,195,o),
(128,157,qs),
(128,136,ls),
(128,98,o),
(184,56,o),
(230,56,qs),
(270,56,o),
(331,81,o),
(366,124,o),
(366,150,qs)
);
}
);
width = 526;
},
{
anchors = (
{
name = b.uni0327;
position = "{248, 0}";
},
{
name = b.uni0328;
position = "{533, 0}";
},
{
name = t.uni0303;
position = "{265, 540}";
}
);
layerId = "C5DA3672-7219-4097-B42A-B369F4569BEC";
shapes = (
{
closed = 1;
nodes = (
(393,0,l),
(393,87,l),
(403,77,l),
(390,77,l),
(371,41,o),
(294,-12,o),
(224,-12,qs),
(146,-12,o),
(61,62,o),
(61,130,qs),
(61,172,o),
(96,238,o),
(179,275,o),
(251,275,qs),
(393,275,l),
(393,349,ls),
(393,427,o),
(320,499,o),
(249,499,qs),
(192,499,o),
(117,454,o),
(96,404,q),
(78,412,l),
(99,461,o),
(179,518,o),
(249,518,qs),
(332,518,o),
(414,432,o),
(414,352,qs),
(414,0,l)
);
},
{
closed = 1;
nodes = (
(393,257,l),
(252,257,ls),
(163,257,o),
(84,195,o),
(84,145,qs),
(84,115,ls),
(84,63,o),
(163,7,o),
(224,7,qs),
(269,7,o),
(346,38,o),
(393,101,o),
(393,148,qs)
);
}
);
width = 509;
}
);
leftKerningGroup = a2;
rightKerningGroup = a;
unicode = 97;
},
{
glyphname = a.alt01;
layers = (
{
anchors = (
{
name = b.uni0327;
position = "{291, 0}";
},
{
name = b.uni0328;
position = "{539, 0}";
},
{
name = t.uni0303;
position = "{315, 540}";
}
);
layerId = "880420EB-584C-4B51-BB9F-151DBE095CD5";
shapes = (
{
closed = 1;
nodes = (
(383,0,l),
(383,89,l),
(378,89,l),
(371,48,o),
(290,-12,o),
(240,-12,qs),
(173,-12,o),
(85,50,o),
(41,173,o),
(41,265,qs),
(41,356,o),
(85,478,o),
(173,540,o),
(240,540,qs),
(290,540,o),
(370,481,o),
(378,439,q),
(383,439,l),
(383,528,l),
(554,528,l),
(554,0,l)
);
},
{
closed = 1;
nodes = (
(323,124,o),
(362,140,o),
(383,171,o),
(383,192,qs),
(383,334,ls),
(383,357,o),
(362,389,o),
(323,404,o),
(298,404,qs),
(264,404,o),
(217,354,o),
(217,310,qs),
(217,218,ls),
(217,176,o),
(264,124,o),
(298,124,qs)
);
}
);
width = 617;
},
{
anchors = (
{
name = b.uni0327;
position = "{291, 0}";
},
{
name = b.uni0328;
position = "{539, 0}";
},
{
name = t.uni0303;
position = "{315, 540}";
}
);
layerId = "389CED9B-F3EB-41FE-A5B1-A4D5AEA6A809";
shapes = (
{
closed = 1;
nodes = (
(391,0,l),
(391,88,l),
(386,88,l),
(375,45,o),
(296,-12,o),
(245,-12,qs),
(179,-12,o),
(89,51,o),
(43,174,o),
(43,263,qs),
(43,352,o),
(89,474,o),
(179,537,o),
(245,537,qs),
(296,537,o),
(375,481,o),
(386,437,q),
(391,437,l),
(391,525,l),
(539,525,l),
(539,0,l)
);
},
{
closed = 1;
nodes = (
(322,108,o),
(366,126,o),
(391,161,o),
(391,185,qs),
(391,340,ls),
(391,364,o),
(366,399,o),
(322,417,o),
(294,417,qs),
(252,417,o),
(197,358,o),
(197,308,qs),
(197,217,ls),
(197,168,o),
(252,108,o),
(294,108,qs)
);
}
);
width = 608;
},
{
anchors = (
{
name = b.uni0327;
position = "{291, 0}";
},
{
name = b.uni0328;
position = "{539, 0}";
},
{
name = t.uni0303;
position = "{315, 540}";
}
);
layerId = "0B20A76F-6223-4F08-8632-D01C13B3F8D0";
shapes = (
{
closed = 1;
nodes = (
(415,0,l),
(415,84,l),
(411,84,l),
(388,36,o),
(313,-12,o),
(260,-12,qs),
(196,-12,o),
(101,54,o),
(50,176,o),
(50,258,qs),
(50,341,o),
(101,462,o),
(196,528,o),
(260,528,qs),
(313,528,o),
(391,481,o),
(411,432,q),
(415,432,l),
(415,516,l),
(495,516,l),
(495,0,l)
);
},
{
closed = 1;
nodes = (
(319,60,o),
(379,85,o),
(415,132,o),
(415,165,qs),
(415,357,ls),
(415,386,o),
(379,430,o),
(319,456,o),
(282,456,qs),
(215,456,o),
(136,371,o),
(136,302,qs),
(136,214,ls),
(136,145,o),
(215,60,o),
(282,60,qs)
);
}
);
width = 580;
},
{
anchors = (
{
name = b.uni0327;
position = "{284, 0}";
},
{
name = b.uni0328;
position = "{504, 0}";
},
{
name = t.uni0303;
position = "{308, 540}";
}
);
layerId = "C5DA3672-7219-4097-B42A-B369F4569BEC";
shapes = (
{
closed = 1;
nodes = (
(439,0,l),
(439,78,l),
(436,78,l),
(420,45,o),
(339,-12,o),
(272,-12,qs),
(206,-12,o),
(111,47,o),
(60,165,o),
(60,253,qs),
(60,341,o),
(111,459,o),
(206,518,o),
(272,518,qs),
(339,518,o),
(420,461,o),
(436,428,q),
(439,428,l),
(439,506,l),
(460,506,l),
(460,0,l)
);
},
{
closed = 1;
nodes = (
(316,7,o),
(392,41,o),
(439,103,o),
(439,143,qs),
(439,363,ls),
(439,404,o),
(392,465,o),
(316,499,o),
(272,499,qs),
(181,499,o),
(83,380,o),
(83,277,qs),
(83,229,ls),
(83,126,o),
(181,7,o),
(272,7,qs)
);
}
);
width = 565;
}
);
leftKerningGroup = d;
rightKerningGroup = u;
},
{
glyphname = b;
layers = (
{
anchors = (
{
name = b.uni0327;
position = "{317, 0}";
}
);
layerId = "880420EB-584C-4B51-BB9F-151DBE095CD5";
shapes = (
{
closed = 1;
nodes = (
(64,0,l),
(64,740,l),
(234,740,l),
(234,439,l),
(240,439,l),
(248,481,o),
(327,540,o),
(377,540,qs),
(445,540,o),
(532,478,o),
(577,356,o),
(577,265,qs),
(577,173,o),
(532,50,o),
(445,-12,o),
(377,-12,qs),
(327,-12,o),
(247,48,o),
(240,89,q),
(234,89,l),
(234,0,l)
);
},
{
closed = 1;
nodes = (
(353,124,o),
(400,176,o),
(400,218,qs),
(400,310,ls),
(400,354,o),
(353,404,o),
(319,404,qs),
(294,404,o),
(256,389,o),
(234,357,o),
(234,334,qs),
(234,192,ls),
(234,171,o),
(256,140,o),
(294,124,o),
(319,124,qs)
);
}
);
width = 617;
},
{
anchors = (
{
name = b.uni0327;
position = "{317, 0}";
}
);
layerId = "389CED9B-F3EB-41FE-A5B1-A4D5AEA6A809";
shapes = (
{
closed = 1;
nodes = (
(69,0,l),
(69,740,l),
(217,740,l),
(217,437,l),
(222,437,l),
(233,481,o),
(312,537,o),
(363,537,qs),
(430,537,o),
(519,474,o),
(565,352,o),
(565,263,qs),
(565,174,o),
(519,51,o),
(430,-12,o),
(363,-12,qs),
(312,-12,o),
(233,45,o),
(222,88,q),
(217,88,l),
(217,0,l)
);
},
{
closed = 1;
nodes = (
(356,108,o),
(411,168,o),
(411,217,qs),
(411,308,ls),
(411,358,o),
(356,417,o),
(314,417,qs),
(286,417,o),
(242,399,o),
(217,364,o),
(217,340,qs),
(217,185,ls),
(217,161,o),
(242,126,o),
(286,108,o),
(314,108,qs)
);
}
);
width = 608;
},
{
anchors = (
{
name = b.uni0327;
position = "{317, 0}";
}
);
layerId = "0B20A76F-6223-4F08-8632-D01C13B3F8D0";
shapes = (
{
closed = 1;
nodes = (
(85,0,l),
(85,740,l),
(165,740,l),
(165,432,l),
(169,432,l),
(189,481,o),
(267,528,o),
(320,528,qs),
(385,528,o),
(479,462,o),
(530,341,o),
(530,258,qs),
(530,176,o),
(479,54,o),
(385,-12,o),
(320,-12,qs),
(267,-12,o),
(192,36,o),
(169,84,q),
(165,84,l),
(165,0,l)
);
},
{
closed = 1;
nodes = (
(366,60,o),
(444,145,o),
(444,214,qs),
(444,302,ls),
(444,371,o),
(366,456,o),
(298,456,qs),
(262,456,o),
(201,430,o),
(165,386,o),
(165,357,qs),
(165,165,ls),
(165,132,o),
(201,85,o),
(262,60,o),
(298,60,qs)
);
}
);
width = 580;
},
{
anchors = (
{
name = b.uni0327;
position = "{303, 0}";
}
);
layerId = "C5DA3672-7219-4097-B42A-B369F4569BEC";
shapes = (
{
closed = 1;
nodes = (
(105,0,l),
(105,740,l),
(126,740,l),
(126,428,l),
(129,428,l),
(145,461,o),
(226,518,o),
(293,518,qs),
(360,518,o),
(454,459,o),
(505,341,o),
(505,253,qs),
(505,165,o),
(454,47,o),
(360,-12,o),
(293,-12,qs),
(226,-12,o),
(145,45,o),
(129,78,q),
(126,78,l),
(126,0,l)
);
},
{
closed = 1;
nodes = (
(384,7,o),
(482,126,o),
(482,229,qs),
(482,277,ls),
(482,380,o),
(384,499,o),
(293,499,qs),
(249,499,o),
(173,465,o),
(126,404,o),
(126,363,qs),
(126,143,ls),
(126,103,o),
(173,41,o),
(249,7,o),
(293,7,qs)
);
}
);
width = 565;
}
);
leftKerningGroup = b2;
rightKerningGroup = b;
unicode = 98;
},
{
glyphname = c;
layers = (
{
anchors = (
{
name = b.uni0327;
position = "{262, 0}";
},
{
name = t.uni0303;
position = "{274, 540}";
}
);
layerId = "880420EB-584C-4B51-BB9F-151DBE095CD5";
shapes = (
{
closed = 1;
nodes = (
(161,-12,o),
(32,138,o),
(32,265,qs),
(32,391,o),
(161,540,o),
(282,540,qs),
(363,540,o),
(475,467,o),
(498,398,q),
(360,340,l),
(356,366,o),
(319,408,o),
(282,408,qs),
(246,408,o),
(209,358,o),
(209,314,qs),
(209,213,ls),
(209,170,o),
(246,119,o),
(282,119,qs),
(325,119,o),
(359,168,o),
(366,194,q),
(500,141,l),
(474,59,o),
(360,-12,o),
(282,-12,qs)
);
}
);
width = 522;
},
{
anchors = (
{
name = b.uni0327;
position = "{262, 0}";
},
{
name = t.uni0303;
position = "{274, 540}";
}
);
layerId = "389CED9B-F3EB-41FE-A5B1-A4D5AEA6A809";
shapes = (
{
closed = 1;
nodes = (
(163,-12,o),
(36,137,o),
(36,263,qs),
(36,389,o),
(163,537,o),
(281,537,qs),
(361,537,o),
(468,465,o),
(491,400,q),
(371,348,l),
(364,378,o),
(320,420,o),
(281,420,qs),
(236,420,o),
(190,361,o),
(190,311,qs),
(190,213,ls),
(190,164,o),
(236,104,o),
(281,104,qs),
(325,104,o),
(368,152,o),
(379,183,q),
(494,133,l),
(468,58,o),
(358,-12,o),
(281,-12,qs)
);
}
);
width = 517;
},
{
anchors = (
{
name = b.uni0327;
position = "{262, 0}";
},
{
name = t.uni0303;
position = "{274, 540}";
}
);
layerId = "0B20A76F-6223-4F08-8632-D01C13B3F8D0";
shapes = (
{
closed = 1;
nodes = (
(168,-12,o),
(47,134,o),
(47,258,qs),
(47,382,o),
(168,528,o),
(277,528,qs),
(354,528,o),
(448,460,o),
(470,407,q),
(403,373,l),
(389,413,o),
(324,457,o),
(277,457,qs),
(206,457,o),
(133,370,o),
(133,302,qs),
(133,214,ls),
(133,147,o),
(206,59,o),
(277,59,qs),
(326,59,o),
(396,105,o),
(417,149,q),
(475,110,l),
(450,55,o),
(351,-12,o),
(277,-12,qs)
);
}
);
width = 503;
},
{
anchors = (
{
name = b.uni0327;
position = "{257, 0}";
},
{
name = t.uni0303;
position = "{268, 540}";
}
);
layerId = "C5DA3672-7219-4097-B42A-B369F4569BEC";
shapes = (
{
closed = 1;
nodes = (
(171,-12,o),
(60,122,o),
(60,253,qs),
(60,384,o),
(171,518,o),
(270,518,qs),
(330,518,o),
(412,463,o),
(435,418,q),
(417,409,l),
(393,453,o),
(324,499,o),
(270,499,qs),
(180,499,o),
(83,379,o),
(83,277,qs),
(83,229,ls),
(83,127,o),
(180,7,o),
(270,7,qs),
(329,7,o),
(404,54,o),
(428,95,q),
(444,84,l),
(419,41,o),
(336,-12,o),
(270,-12,qs)
);
}
);
width = 487;
}
);
leftKerningGroup = c2;
rightKerningGroup = c;
unicode = 99;
},
{
glyphname = d;
layers = (
{
anchors = (
{
name = b.uni0327;
position = "{291, 0}";
},
{
name = t.uni0315;
position = "{602, 740}";
}
);
layerId = "880420EB-584C-4B51-BB9F-151DBE095CD5";
shapes = (
{
closed = 1;
nodes = (
(383,0,l),
(383,89,l),
(378,89,l),
(371,48,o),
(290,-12,o),
(240,-12,qs),
(173,-12,o),
(85,50,o),
(41,173,o),
(41,265,qs),
(41,356,o),
(85,478,o),
(173,540,o),
(240,540,qs),
(290,540,o),
(370,481,o),
(378,439,q),
(383,439,l),
(383,740,l),
(554,740,l),
(554,0,l)
);
},
{
closed = 1;
nodes = (
(323,124,o),
(362,140,o),
(383,171,o),
(383,192,qs),
(383,334,ls),
(383,357,o),
(362,389,o),
(323,404,o),
(298,404,qs),
(264,404,o),
(217,354,o),
(217,310,qs),
(217,218,ls),
(217,176,o),
(264,124,o),
(298,124,qs)
);
}
);
width = 617;
},
{
anchors = (
{
name = b.uni0327;
position = "{291, 0}";
},
{
name = t.uni0315;
position = "{602, 740}";
}
);
layerId = "389CED9B-F3EB-41FE-A5B1-A4D5AEA6A809";
shapes = (
{
closed = 1;
nodes = (
(391,0,l),
(391,88,l),
(386,88,l),
(375,45,o),
(296,-12,o),
(245,-12,qs),
(179,-12,o),
(89,51,o),
(43,174,o),
(43,263,qs),
(43,352,o),
(89,474,o),
(179,537,o),
(245,537,qs),
(296,537,o),
(375,481,o),
(386,437,q),
(391,437,l),
(391,740,l),
(539,740,l),
(539,0,l)
);
},
{
closed = 1;
nodes = (
(322,108,o),
(366,126,o),
(391,161,o),
(391,185,qs),
(391,340,ls),
(391,364,o),
(366,399,o),
(322,417,o),
(294,417,qs),
(252,417,o),
(197,358,o),
(197,308,qs),
(197,217,ls),
(197,168,o),
(252,108,o),
(294,108,qs)
);
}
);
width = 608;
},
{
anchors = (
{
name = b.uni0327;
position = "{291, 0}";
},
{
name = t.uni0315;
position = "{602, 740}";
}
);
layerId = "0B20A76F-6223-4F08-8632-D01C13B3F8D0";
shapes = (
{
closed = 1;
nodes = (
(415,0,l),
(415,84,l),
(411,84,l),
(388,36,o),
(313,-12,o),
(260,-12,qs),
(196,-12,o),
(101,54,o),
(50,176,o),
(50,258,qs),
(50,341,o),
(101,462,o),
(196,528,o),
(260,528,qs),
(313,528,o),
(391,481,o),
(411,432,q),
(415,432,l),
(415,740,l),
(495,740,l),
(495,0,l)
);
},
{
closed = 1;
nodes = (
(319,60,o),
(379,85,o),
(415,132,o),
(415,165,qs),
(415,357,ls),
(415,386,o),
(379,430,o),
(319,456,o),
(282,456,qs),
(215,456,o),
(136,371,o),
(136,302,qs),
(136,214,ls),
(136,145,o),
(215,60,o),
(282,60,qs)
);
}
);
width = 580;
},
{
anchors = (
{
name = b.uni0327;
position = "{291, 0}";
},
{
name = t.uni0315;
position = "{596, 740}";
}
);
layerId = "C5DA3672-7219-4097-B42A-B369F4569BEC";
shapes = (
{
closed = 1;
nodes = (
(439,0,l),
(439,78,l),
(436,78,l),
(420,45,o),
(339,-12,o),
(272,-12,qs),
(206,-12,o),
(111,47,o),
(60,165,o),
(60,253,qs),
(60,341,o),
(111,459,o),
(206,518,o),
(272,518,qs),
(339,518,o),
(420,461,o),
(436,428,q),
(439,428,l),
(439,740,l),
(460,740,l),
(460,0,l)
);
},
{
closed = 1;
nodes = (
(316,7,o),
(392,41,o),
(439,103,o),
(439,143,qs),
(439,363,ls),
(439,404,o),
(392,465,o),
(316,499,o),
(272,499,qs),
(181,499,o),
(83,380,o),
(83,277,qs),
(83,229,ls),
(83,126,o),
(181,7,o),
(272,7,qs)
);
}
);
width = 565;
}
);
leftKerningGroup = d;
unicode = 100;
},
{
glyphname = e;
layers = (
{
anchors = (
{
name = b.uni0327;
position = "{283, 0}";
},
{
name = b.uni0328;
position = "{383, 0}";
},
{
name = t.uni0303;
position = "{287, 540}";
}
);
layerId = "880420EB-584C-4B51-BB9F-151DBE095CD5";
shapes = (
{
closed = 1;
nodes = (
(208,-12,o),
(92,55,o),
(32,180,o),
(32,265,qs),
(32,348,o),
(89,472,o),
(201,540,o),
(283,540,qs),
(376,540,o),
(485,462,o),
(534,337,o),
(534,267,qs),
(534,221,l),
(208,221,l),
(208,218,ls),
(208,171,o),
(257,119,o),
(312,119,qs),
(358,119,o),
(410,155,o),
(437,174,q),
(516,65,l),
(478,29,o),
(363,-12,o),
(291,-12,qs)
);
},
{
closed = 1;
nodes = (
(261,417,o),
(226,394,o),
(208,354,o),
(208,325,qs),
(208,317,l),
(359,317,l),
(359,325,ls),
(359,352,o),
(345,394,o),
(313,417,o),
(287,417,qs)
);
}
);
width = 566;
},
{
anchors = (
{
name = b.uni0327;
position = "{283, 0}";
},
{
name = b.uni0328;
position = "{383, 0}";
},
{
name = t.uni0303;
position = "{287, 540}";
}
);
layerId = "389CED9B-F3EB-41FE-A5B1-A4D5AEA6A809";
shapes = (
{
closed = 1;
nodes = (
(208,-12,o),
(95,55,o),
(36,179,o),
(36,263,qs),
(36,346,o),
(93,469,o),
(203,537,o),
(282,537,qs),
(369,537,o),
(476,462,o),
(526,340,o),
(526,269,qs),
(526,225,l),
(189,225,l),
(189,217,ls),
(189,165,o),
(246,104,o),
(305,104,qs),
(352,104,o),
(409,142,o),
(434,167,q),
(508,75,l),
(473,35,o),
(360,-12,o),
(288,-12,qs)
);
},
{
closed = 1;
nodes = (
(255,428,o),
(212,401,o),
(189,353,o),
(189,320,qs),
(189,312,l),
(373,312,l),
(373,321,ls),
(373,353,o),
(354,401,o),
(315,428,o),
(285,428,qs)
);
}
);
width = 562;
},
{
anchors = (
{
name = b.uni0327;
position = "{283, 0}";
},
{
name = b.uni0328;
position = "{383, 0}";
},
{
name = t.uni0303;
position = "{287, 540}";
}
);
layerId = "0B20A76F-6223-4F08-8632-D01C13B3F8D0";
shapes = (
{
closed = 1;
nodes = (
(209,-12,o),
(105,55,o),
(47,176,o),
(47,258,qs),
(47,340,o),
(105,461,o),
(209,528,o),
(279,528,qs),
(348,528,o),
(448,463,o),
(502,349,o),
(502,276,qs),
(502,238,l),
(131,238,l),
(131,214,ls),
(131,147,o),
(212,58,o),
(284,58,qs),
(333,58,o),
(406,104,o),
(426,147,q),
(483,106,l),
(458,54,o),
(352,-12,o),
(279,-12,qs)
);
},
{
closed = 1;
nodes = (
(236,461,o),
(169,421,o),
(131,350,o),
(131,305,qs),
(131,298,l),
(416,298,l),
(416,309,ls),
(416,355,o),
(382,423,o),
(320,461,o),
(279,461,qs)
);
}
);
width = 549;
},
{
anchors = (
{
name = b.uni0327;
position = "{272, 0}";
},
{
name = b.uni0328;
position = "{375, 0}";
},
{
name = t.uni0303;
position = "{276, 540}";
}
);
layerId = "C5DA3672-7219-4097-B42A-B369F4569BEC";
shapes = (
{
closed = 1;
nodes = (
(206,-12,o),
(111,48,o),
(60,166,o),
(60,253,qs),
(60,340,o),
(110,458,o),
(203,518,o),
(268,518,qs),
(329,518,o),
(421,457,o),
(473,344,o),
(473,266,qs),
(473,256,l),
(83,256,l),
(83,229,ls),
(83,127,o),
(182,7,o),
(272,7,qs),
(336,7,o),
(424,70,o),
(447,131,q),
(465,124,l),
(443,62,o),
(345,-12,o),
(272,-12,qs)
);
},
{
closed = 1;
nodes = (
(209,499,o),
(126,445,o),
(83,345,o),
(83,277,qs),
(83,275,l),
(450,275,l),
(450,279,ls),
(450,346,o),
(404,444,o),
(323,499,o),
(268,499,qs)
);
}
);
width = 533;
}
);
leftKerningGroup = c2;
rightKerningGroup = e;
unicode = 101;
},
{
glyphname = f;
layers = (
{
anchors = (
{
name = b.uni0327;
position = "{170, 0}";
}
);
layerId = "880420EB-584C-4B51-BB9F-151DBE095CD5";
shapes = (
{
closed = 1;
nodes = (
(89,0,l),
(89,398,l),
(18,398,l),
(18,528,l),
(89,528,l),
(89,576,ls),
(89,660,o),
(178,740,o),
(261,740,qs),
(363,740,l),
(363,610,l),
(260,610,l),
(260,528,l),
(363,528,l),
(363,398,l),
(260,398,l),
(260,0,l)
);
}
);
width = 373;
},
{
anchors = (
{
name = b.uni0327;
position = "{170, 0}";
}
);
layerId = "389CED9B-F3EB-41FE-A5B1-A4D5AEA6A809";
shapes = (
{
closed = 1;
nodes = (
(95,0,l),
(95,410,l),
(21,410,l),
(21,525,l),
(95,525,l),
(95,587,ls),
(95,663,o),
(176,740,o),
(252,740,qs),
(348,740,l),
(348,625,l),
(243,625,l),
(243,525,l),
(348,525,l),
(348,410,l),
(243,410,l),
(243,0,l)
);
}
);
width = 361;
},
{
anchors = (
{
name = b.uni0327;
position = "{170, 0}";
}
);
layerId = "0B20A76F-6223-4F08-8632-D01C13B3F8D0";
shapes = (
{
closed = 1;
nodes = (
(113,0,l),
(113,446,l),
(29,446,l),
(29,516,l),
(113,516,l),
(113,620,ls),
(113,673,o),
(169,740,o),
(226,740,qs),
(304,740,l),
(304,670,l),
(193,670,l),
(193,516,l),
(304,516,l),
(304,446,l),
(193,446,l),
(193,0,l)
);
}
);
width = 324;
},
{
anchors = (
{
name = b.uni0327;
position = "{150, 0}";
}
);
layerId = "C5DA3672-7219-4097-B42A-B369F4569BEC";
shapes = (
{
closed = 1;
nodes = (
(123,0,l),
(123,487,l),
(30,487,l),
(30,506,l),
(123,506,l),
(123,711,ls),
(123,726,o),
(137,740,o),
(152,740,qs),
(260,740,l),
(260,721,l),
(144,721,l),
(144,506,l),
(260,506,l),
(260,487,l),
(144,487,l),
(144,0,l)
);
}
);
width = 285;
}
);
leftKerningGroup = f;
unicode = 102;
},
{
glyphname = g;
layers = (
{
anchors = (
{
name = t.uni0303;
position = "{278, 540}";
}
);
layerId = "880420EB-584C-4B51-BB9F-151DBE095CD5";
shapes = (
{
closed = 1;
nodes = (
(567,-87,o),
(515,-168,o),
(386,-212,o),
(271,-212,qs),
(177,-212,o),
(65,-183,o),
(15,-129,o),
(15,-92,qs),
(15,-47,o),
(70,4,o),
(118,8,q),
(118,19,l),
(76,25,o),
(32,81,o),
(32,118,qs),
(32,160,o),
(97,206,o),
(133,212,q),
(133,216,l),
(86,238,o),
(40,313,o),
(40,363,qs),
(40,416,o),
(91,496,o),
(195,540,o),
(276,540,qs),
(302,540,o),
(358,535,o),
(382,528,q),
(560,528,l),
(560,417,l),
(501,417,l),
(501,415,l),
(506,409,o),
(510,379,o),
(510,363,qs),
(510,311,o),
(461,233,o),
(357,191,o),
(275,191,qs),
(245,191,o),
(191,198,o),
(168,204,q),
(163,197,o),
(160,178,o),
(160,167,qs),
(160,149,o),
(184,127,o),
(218,127,qs),
(384,127,ls),
(480,127,o),
(567,44,o),
(567,-32,qs)
);
},
{
closed = 1;
nodes = (
(317,299,o),
(354,333,o),
(354,361,qs),
(354,368,ls),
(354,398,o),
(317,431,o),
(275,431,qs),
(235,431,o),
(196,398,o),
(196,368,qs),
(196,361,ls),
(196,333,o),
(235,299,o),
(275,299,qs)
);
},
{
closed = 1;
nodes = (
(406,-36,o),
(373,-16,o),
(334,-16,qs),
(151,-16,l),
(146,-26,o),
(142,-48,o),
(142,-56,qs),
(142,-82,o),
(192,-103,o),
(251,-103,qs),
(307,-103,ls),
(364,-103,o),
(406,-80,o),
(406,-56,qs)
);
}
);
width = 572;
},
{
anchors = (
{
name = t.uni0303;
position = "{278, 540}";
}
);
layerId = "389CED9B-F3EB-41FE-A5B1-A4D5AEA6A809";
shapes = (
{
closed = 1;
nodes = (
(555,-93,o),
(502,-171,o),
(378,-212,o),
(271,-212,qs),
(180,-212,o),
(71,-183,o),
(22,-128,o),
(22,-90,qs),
(22,-46,o),
(74,4,o),
(120,10,q),
(120,21,l),
(83,28,o),
(44,79,o),
(44,113,qs),
(44,154,o),
(105,199,o),
(142,206,q),
(142,210,l),
(95,232,o),
(48,309,o),
(48,360,qs),
(48,413,o),
(98,493,o),
(198,537,o),
(273,537,qs),
(298,537,o),
(350,532,o),
(372,525,q),
(546,525,l),
(546,426,l),
(482,426,l),
(482,424,l),
(489,416,o),
(498,380,o),
(498,360,qs),
(498,308,o),
(449,229,o),
(349,186,o),
(273,186,qs),
(247,186,o),
(200,192,o),
(180,197,q),
(170,190,o),
(157,169,o),
(157,155,qs),
(157,136,o),
(186,115,o),
(220,115,qs),
(372,115,ls),
(468,115,o),
(555,35,o),
(555,-38,qs)
);
},
{
closed = 1;
nodes = (
(317,283,o),
(360,321,o),
(360,355,qs),
(360,367,ls),
(360,402,o),
(317,439,o),
(273,439,qs),
(230,439,o),
(186,402,o),
(186,367,qs),
(186,355,ls),
(186,321,o),
(230,283,o),
(273,283,qs)
);
},
{
closed = 1;
nodes = (
(416,-35,o),
(379,-11,o),
(335,-11,qs),
(155,-11,l),
(145,-21,o),
(136,-46,o),
(136,-58,qs),
(136,-86,o),
(186,-114,o),
(246,-114,qs),
(306,-114,ls),
(366,-114,o),
(416,-86,o),
(416,-58,qs)
);
}
);
width = 562;
},
{
anchors = (
{
name = t.uni0303;
position = "{278, 540}";
}
);
layerId = "0B20A76F-6223-4F08-8632-D01C13B3F8D0";
shapes = (
{
closed = 1;
nodes = (
(520,-110,o),
(464,-179,o),
(353,-212,o),
(270,-212,qs),
(190,-212,o),
(89,-182,o),
(43,-125,o),
(43,-85,qs),
(43,-43,o),
(87,5,o),
(125,15,q),
(125,26,l),
(103,37,o),
(79,72,o),
(79,98,qs),
(79,137,o),
(129,178,o),
(168,188,q),
(168,192,l),
(122,214,o),
(71,296,o),
(71,350,qs),
(71,403,o),
(119,483,o),
(207,528,o),
(265,528,qs),
(286,528,o),
(326,522,o),
(343,516,q),
(504,516,l),
(504,452,l),
(424,452,l),
(424,450,l),
(438,437,o),
(461,384,o),
(461,350,qs),
(461,298,o),
(413,217,o),
(325,172,o),
(266,172,qs),
(253,172,o),
(227,175,o),
(216,177,q),
(191,170,o),
(148,143,o),
(148,119,qs),
(148,96,o),
(192,80,o),
(227,80,qs),
(337,80,ls),
(433,80,o),
(520,7,o),
(520,-57,qs)
);
},
{
closed = 1;
nodes = (
(317,236,o),
(377,285,o),
(377,336,qs),
(377,364,ls),
(377,415,o),
(317,464,o),
(266,464,qs),
(215,464,o),
(155,415,o),
(155,364,qs),
(155,336,ls),
(155,285,o),
(215,236,o),
(266,236,qs)
);
},
{
closed = 1;
nodes = (
(445,-32,o),
(398,5,o),
(338,5,qs),
(166,5,l),
(141,-6,o),
(118,-41,o),
(118,-65,qs),
(118,-99,o),
(169,-147,o),
(230,-147,qs),
(304,-147,ls),
(371,-147,o),
(445,-105,o),
(445,-63,qs)
);
}
);
width = 531;
},
{
anchors = (
{
name = t.uni0303;
position = "{275, 540}";
}
);
layerId = "C5DA3672-7219-4097-B42A-B369F4569BEC";
shapes = (
{
closed = 1;
nodes = (
(501,-115,o),
(445,-181,o),
(338,-212,o),
(262,-212,qs),
(188,-212,o),
(94,-179,o),
(50,-121,o),
(50,-82,qs),
(50,-37,o),
(103,23,o),
(149,38,q),
(149,41,l),
(121,49,o),
(96,84,o),
(96,108,qs),
(96,143,o),
(148,184,o),
(181,194,q),
(181,197,l),
(138,216,o),
(90,292,o),
(90,349,qs),
(90,400,o),
(132,476,o),
(210,518,o),
(263,518,qs),
(283,518,o),
(319,512,o),
(335,506,q),
(501,506,l),
(501,487,l),
(371,487,l),
(371,485,l),
(401,469,o),
(436,394,o),
(436,349,qs),
(436,298,o),
(392,222,o),
(315,180,o),
(263,180,qs),
(248,180,o),
(222,184,o),
(207,187,q),
(162,175,o),
(116,137,o),
(116,109,qs),
(116,88,o),
(151,53,o),
(203,53,qs),
(338,53,ls),
(424,53,o),
(501,-11,o),
(501,-65,qs)
);
},
{
closed = 1;
nodes = (
(334,199,o),
(412,275,o),
(412,330,qs),
(412,368,ls),
(412,424,o),
(334,499,o),
(263,499,qs),
(192,499,o),
(114,424,o),
(114,368,qs),
(114,330,ls),
(114,275,o),
(193,199,o),
(263,199,qs)
);
},
{
closed = 1;
nodes = (
(479,-19,o),
(416,33,o),
(335,33,qs),
(180,33,l),
(133,21,o),
(72,-35,o),
(72,-83,qs),
(72,-132,o),
(162,-193,o),
(238,-193,qs),
(287,-193,ls),
(372,-193,o),
(479,-132,o),
(479,-65,qs)
);
}
);
width = 527;
}
);
leftKerningGroup = g2;
rightKerningGroup = g;
unicode = 103;
},
{
glyphname = g.alt01;
layers = (
{
anchors = (
{
name = t.uni0303;
position = "{298, 540}";
}
);
layerId = "880420EB-584C-4B51-BB9F-151DBE095CD5";
shapes = (
{
closed = 1;
nodes = (
(554,528,l),
(554,37,ls),
(554,-81,o),
(422,-212,o),
(287,-212,qs),
(207,-212,o),
(103,-168,o),
(73,-136,q),
(162,-29,l),
(187,-54,o),
(247,-81,o),
(281,-81,qs),
(335,-81,o),
(383,-24,o),
(383,20,qs),
(383,108,l),
(378,108,l),
(371,66,o),
(290,7,o),
(240,7,qs),
(173,7,o),
(85,67,o),
(41,185,o),
(41,273,qs),
(41,360,o),
(85,479,o),
(173,540,o),
(240,540,qs),
(290,540,o),
(370,480,o),
(378,437,q),
(383,437,l),
(383,528,l)
);
},
{
closed = 1;
nodes = (
(323,143,o),
(361,158,o),
(383,189,o),
(383,210,qs),
(383,334,ls),
(383,357,o),
(361,389,o),
(322,404,o),
(297,404,qs),
(264,404,o),
(217,353,o),
(217,309,qs),
(217,238,ls),
(217,195,o),
(264,143,o),
(297,143,qs)
);
}
);
width = 617;
},
{
anchors = (
{
name = t.uni0303;
position = "{298, 540}";
}
);
layerId = "389CED9B-F3EB-41FE-A5B1-A4D5AEA6A809";
shapes = (
{
closed = 1;
nodes = (
(539,525,l),
(539,32,ls),
(539,-83,o),
(410,-212,o),
(282,-212,qs),
(206,-212,o),
(105,-169,o),
(75,-137,q),
(154,-43,l),
(179,-69,o),
(241,-96,o),
(278,-96,qs),
(336,-96,o),
(391,-34,o),
(391,18,qs),
(391,102,l),
(386,102,l),
(375,59,o),
(296,2,o),
(245,2,qs),
(179,2,o),
(89,64,o),
(43,183,o),
(43,269,qs),
(43,355,o),
(89,475,o),
(179,537,o),
(245,537,qs),
(296,537,o),
(375,480,o),
(386,436,q),
(391,436,l),
(391,525,l)
);
},
{
closed = 1;
nodes = (
(322,122,o),
(366,140,o),
(391,175,o),
(391,199,qs),
(391,340,ls),
(391,364,o),
(366,399,o),
(322,417,o),
(294,417,qs),
(252,417,o),
(197,357,o),
(197,307,qs),
(197,232,ls),
(197,183,o),
(252,122,o),
(294,122,qs)
);
}
);
width = 608;
},
{
anchors = (
{
name = t.uni0303;
position = "{298, 540}";
}
);
layerId = "0B20A76F-6223-4F08-8632-D01C13B3F8D0";
shapes = (
{
closed = 1;
nodes = (
(495,516,l),
(495,17,ls),
(495,-89,o),
(375,-212,o),
(266,-212,qs),
(203,-212,o),
(112,-172,o),
(82,-141,q),
(129,-86,l),
(155,-113,o),
(223,-142,o),
(268,-142,qs),
(338,-142,o),
(415,-64,o),
(415,12,qs),
(415,84,l),
(411,84,l),
(388,37,o),
(314,-12,o),
(260,-12,qs),
(196,-12,o),
(102,54,o),
(50,176,o),
(50,258,qs),
(50,341,o),
(102,462,o),
(196,528,o),
(260,528,qs),
(313,528,o),
(391,481,o),
(411,432,q),
(415,432,l),
(415,516,l)
);
},
{
closed = 1;
nodes = (
(320,60,o),
(380,85,o),
(415,132,o),
(415,166,qs),
(415,357,ls),
(415,386,o),
(380,430,o),
(321,456,o),
(284,456,qs),
(217,456,o),
(136,370,o),
(136,302,qs),
(136,214,ls),
(136,147,o),
(217,60,o),
(284,60,qs)
);
}
);
width = 580;
},
{
anchors = (
{
name = t.uni0303;
position = "{292, 540}";
}
);
layerId = "C5DA3672-7219-4097-B42A-B369F4569BEC";
shapes = (
{
closed = 1;
nodes = (
(460,506,l),
(460,-10,ls),
(460,-107,o),
(362,-212,o),
(264,-212,qs),
(200,-212,o),
(119,-177,o),
(88,-146,q),
(102,-130,l),
(131,-160,o),
(201,-193,o),
(262,-193,qs),
(349,-193,o),
(439,-103,o),
(439,-12,qs),
(439,78,l),
(436,78,l),
(420,45,o),
(339,-12,o),
(272,-12,qs),
(206,-12,o),
(111,47,o),
(60,165,o),
(60,253,qs),
(60,341,o),
(111,459,o),
(206,518,o),
(272,518,qs),
(339,518,o),
(420,461,o),
(436,428,q),
(439,428,l),
(439,506,l)
);
},
{
closed = 1;
nodes = (
(316,7,o),
(392,41,o),
(439,103,o),
(439,143,qs),
(439,363,ls),
(439,404,o),
(392,465,o),
(316,499,o),
(272,499,qs),
(181,499,o),
(83,380,o),
(83,277,qs),
(83,229,ls),
(83,126,o),
(181,7,o),
(272,7,qs)
);
}
);
width = 565;
}
);
leftKerningGroup = d;
rightKerningGroup = q;
},
{
glyphname = h;
layers = (
{
anchors = (
{
name = b.uni0327;
position = "{302, 0}";
},
{
name = t.uni0303;
position = "{143, 698}";
}
);
layerId = "880420EB-584C-4B51-BB9F-151DBE095CD5";
shapes = (
{
closed = 1;
nodes = (
(64,0,l),
(64,740,l),
(234,740,l),
(234,437,l),
(241,437,l),
(253,477,o),
(324,540,o),
(387,540,qs),
(467,540,o),
(548,429,o),
(548,328,qs),
(548,0,l),
(377,0,l),
(377,317,ls),
(377,361,o),
(354,404,o),
(319,404,qs),
(298,404,o),
(260,388,o),
(234,358,o),
(234,334,qs),
(234,0,l)
);
}
);
width = 605;
},
{
anchors = (
{
name = b.uni0327;
position = "{302, 0}";
},
{
name = t.uni0303;
position = "{143, 698}";
}
);
layerId = "389CED9B-F3EB-41FE-A5B1-A4D5AEA6A809";
shapes = (
{
closed = 1;
nodes = (
(69,0,l),
(69,740,l),
(217,740,l),
(217,436,l),
(223,436,l),
(237,477,o),
(307,537,o),
(369,537,qs),
(449,537,o),
(533,428,o),
(533,329,qs),
(533,0,l),
(385,0,l),
(385,317,ls),
(385,367,o),
(353,417,o),
(312,417,qs),
(288,417,o),
(245,400,o),
(217,366,o),
(217,340,qs),
(217,0,l)
);
}
);
width = 596;
},
{
anchors = (
{
name = b.uni0327;
position = "{302, 0}";
},
{
name = t.uni0303;
position = "{143, 698}";
}
);
layerId = "0B20A76F-6223-4F08-8632-D01C13B3F8D0";
shapes = (
{
closed = 1;
nodes = (
(85,0,l),
(85,740,l),
(165,740,l),
(165,432,l),
(169,432,l),
(188,476,o),
(257,528,o),
(315,528,qs),
(395,528,o),
(488,425,o),
(488,331,qs),
(488,0,l),
(408,0,l),
(408,317,ls),
(408,386,o),
(349,456,o),
(291,456,qs),
(259,456,o),
(201,435,o),
(165,391,o),
(165,358,qs),
(165,0,l)
);
}
);
width = 568;
},
{
anchors = (
{
name = b.uni0327;
position = "{295, 0}";
},
{
name = t.uni0303;
position = "{131, 698}";
}
);
layerId = "C5DA3672-7219-4097-B42A-B369F4569BEC";
shapes = (
{
closed = 1;
nodes = (
(105,0,l),
(105,740,l),
(126,740,l),
(126,430,l),
(129,430,l),
(143,464,o),
(219,518,o),
(287,518,qs),
(372,518,o),
(461,420,o),
(461,325,qs),
(461,0,l),
(440,0,l),
(440,321,ls),
(440,413,o),
(359,499,o),
(285,499,qs),
(243,499,o),
(171,469,o),
(126,408,o),
(126,362,qs),
(126,0,l)
);
}
);
width = 556;
}
);
leftKerningGroup = b2;
rightKerningGroup = h;
unicode = 104;
},
{
glyphname = i;
layers = (
{
anchors = (
{
name = b.uni0327;
position = "{143, 0}";
},
{
name = b.uni0328;
position = "{217, 0}";
}
);
layerId = "880420EB-584C-4B51-BB9F-151DBE095CD5";
shapes = (
{
closed = 1;
nodes = (
(97,562,o),
(51,610,o),
(51,645,qs),
(51,670,ls),
(51,706,o),
(97,752,o),
(149,752,qs),
(200,752,o),
(247,706,o),
(247,670,qs),
(247,645,ls),
(247,610,o),
(200,562,o),
(149,562,qs)
);
},
{
closed = 1;
nodes = (
(64,0,l),
(64,528,l),
(234,528,l),
(234,0,l)
);
}
);
width = 298;
},
{
anchors = (
{
name = b.uni0327;
position = "{143, 0}";
},
{
name = b.uni0328;
position = "{217, 0}";
}
);
layerId = "389CED9B-F3EB-41FE-A5B1-A4D5AEA6A809";
shapes = (
{
closed = 1;
nodes = (
(98,581,o),
(57,623,o),
(57,654,qs),
(57,676,ls),
(57,708,o),
(98,749,o),
(143,749,qs),
(188,749,o),
(229,708,o),
(229,676,qs),
(229,654,ls),
(229,623,o),
(188,581,o),
(143,581,qs)
);
},
{
closed = 1;
nodes = (
(69,0,l),
(69,525,l),
(217,525,l),
(217,0,l)
);
}
);
width = 286;
},
{
anchors = (
{
name = b.uni0327;
position = "{143, 0}";
},
{
name = b.uni0328;
position = "{217, 0}";
}
);
layerId = "0B20A76F-6223-4F08-8632-D01C13B3F8D0";
shapes = (
{
closed = 1;
nodes = (
(100,637,o),
(76,662,o),
(76,682,qs),
(76,695,ls),
(76,715,o),
(100,740,o),
(125,740,qs),
(151,740,o),
(174,715,o),
(174,695,qs),
(174,682,ls),
(174,662,o),
(151,637,o),
(125,637,qs)
);
},
{
closed = 1;
nodes = (
(85,0,l),
(85,516,l),
(165,516,l),
(165,0,l)
);
}
);
width = 250;
},
{
anchors = (
{
name = b.uni0327;
position = "{134, 0}";
},
{
name = b.uni0328;
position = "{178, 0}";
}
);
layerId = "C5DA3672-7219-4097-B42A-B369F4569BEC";
shapes = (
{
closed = 1;
nodes = (
(102,673,o),
(92,686,o),
(92,694,qs),
(92,701,ls),
(92,709,o),
(102,722,o),
(115,722,qs),
(128,722,o),
(138,709,o),
(138,701,qs),
(138,694,ls),
(138,686,o),
(128,673,o),
(115,673,qs)
);
},
{
closed = 1;
nodes = (
(105,0,l),
(105,506,l),
(126,506,l),
(126,0,l)
);
}
);
width = 231;
}
);
leftKerningGroup = i2;
rightKerningGroup = i;
unicode = 105;
},
{
glyphname = j;
layers = (
{
layerId = "880420EB-584C-4B51-BB9F-151DBE095CD5";
shapes = (
{
closed = 1;
nodes = (
(64,-70,l),
(64,528,l),
(234,528,l),
(234,-48,ls),
(234,-124,o),
(158,-200,o),
(74,-200,qs),
(-12,-200,l),
(-12,-70,l)
);
},
{
closed = 1;
nodes = (
(97,562,o),
(51,610,o),
(51,645,qs),
(51,670,ls),
(51,706,o),
(97,752,o),
(149,752,qs),
(200,752,o),
(247,706,o),
(247,670,qs),
(247,645,ls),
(247,610,o),
(200,562,o),
(149,562,qs)
);
}
);
width = 298;
},
{
layerId = "389CED9B-F3EB-41FE-A5B1-A4D5AEA6A809";
shapes = (
{
closed = 1;
nodes = (
(69,-85,l),
(69,525,l),
(217,525,l),
(217,-56,ls),
(217,-126,o),
(146,-200,o),
(69,-200,qs),
(-9,-200,l),
(-9,-85,l)
);
},
{
closed = 1;
nodes = (
(98,581,o),
(57,623,o),
(57,654,qs),
(57,676,ls),
(57,708,o),
(98,749,o),
(143,749,qs),
(188,749,o),
(229,708,o),
(229,676,qs),
(229,654,ls),
(229,623,o),
(188,581,o),
(143,581,qs)
);
}
);
width = 286;
},
{
layerId = "0B20A76F-6223-4F08-8632-D01C13B3F8D0";
shapes = (
{
closed = 1;
nodes = (
(85,-130,l),
(85,516,l),
(165,516,l),
(165,-80,ls),
(165,-133,o),
(111,-200,o),
(53,-200,qs),
(1,-200,l),
(1,-130,l)
);
},
{
closed = 1;
nodes = (
(100,637,o),
(76,662,o),
(76,682,qs),
(76,695,ls),
(76,715,o),
(100,740,o),
(125,740,qs),
(151,740,o),
(174,715,o),
(174,695,qs),
(174,682,ls),
(174,662,o),
(151,637,o),
(125,637,qs)
);
}
);
width = 250;
},
{
layerId = "C5DA3672-7219-4097-B42A-B369F4569BEC";
shapes = (
{
closed = 1;
nodes = (
(105,-181,l),
(105,506,l),
(126,506,l),
(126,-171,ls),
(126,-186,o),
(112,-200,o),
(97,-200,qs),
(20,-200,l),
(20,-181,l)
);
},
{
closed = 1;
nodes = (
(102,673,o),
(92,686,o),
(92,694,qs),
(92,701,ls),
(92,709,o),
(102,722,o),
(115,722,qs),
(128,722,o),
(138,709,o),
(138,701,qs),
(138,694,ls),
(138,686,o),
(128,673,o),
(115,673,qs)
);
}
);
width = 231;
}
);
leftKerningGroup = j2;
rightKerningGroup = j;
unicode = 106;
},
{
glyphname = k;
layers = (
{
anchors = (
{
name = b.uni0327;
position = "{324, 0}";
}
);
layerId = "880420EB-584C-4B51-BB9F-151DBE095CD5";
shapes = (
{
closed = 1;
nodes = (
(64,0,l),
(64,740,l),
(234,740,l),
(234,432,l),
(234,314,l),
(241,314,l),
(301,414,l),
(393,528,l),
(579,528,l),
(409,328,l),
(599,0,l),
(397,0,l),
(297,208,l),
(234,136,l),
(234,0,l)
);
}
);
width = 594;
},
{
anchors = (
{
name = b.uni0327;
position = "{324, 0}";
}
);
layerId = "389CED9B-F3EB-41FE-A5B1-A4D5AEA6A809";
shapes = (
{
closed = 1;
nodes = (
(69,0,l),
(69,740,l),
(217,740,l),
(217,415,l),
(217,303,l),
(223,303,l),
(288,400,l),
(393,525,l),
(557,525,l),
(382,324,l),
(577,0,l),
(401,0,l),
(283,222,l),
(217,148,l),
(217,0,l)
);
}
);
width = 577;
},
{
anchors = (
{
name = b.uni0327;
position = "{324, 0}";
}
);
layerId = "0B20A76F-6223-4F08-8632-D01C13B3F8D0";
shapes = (
{
closed = 1;
nodes = (
(85,0,l),
(85,740,l),
(165,740,l),
(165,363,l),
(165,271,l),
(169,271,l),
(248,359,l),
(394,516,l),
(491,516,l),
(300,312,l),
(510,0,l),
(413,0,l),
(242,263,l),
(165,184,l),
(165,0,l)
);
}
);
width = 527;
},
{
anchors = (
{
name = b.uni0327;
position = "{302, 0}";
}
);
layerId = "C5DA3672-7219-4097-B42A-B369F4569BEC";
shapes = (
{
closed = 1;
nodes = (
(105,0,l),
(105,740,l),
(126,740,l),
(126,299,l),
(126,220,l),
(129,220,l),
(209,299,l),
(416,506,l),
(444,506,l),
(229,292,l),
(471,0,l),
(445,0,l),
(214,277,l),
(126,190,l),
(126,0,l)
);
}
);
width = 490;
}
);
leftKerningGroup = b2;
rightKerningGroup = k;
unicode = 107;
},
{
glyphname = l;
layers = (
{
anchors = (
{
name = b.uni0327;
position = "{175, 0}";
},
{
name = t.uni0303;
position = "{143, 740}";
},
{
name = t.uni0315;
position = "{280, 740}";
}
);
layerId = "880420EB-584C-4B51-BB9F-151DBE095CD5";
shapes = (
{
closed = 1;
nodes = (
(297,0,l),
(231,0,ls),
(144,0,o),
(64,83,o),
(64,164,qs),
(64,740,l),
(234,740,l),
(234,130,l),
(297,130,l)
);
}
);
width = 313;
},
{
anchors = (
{
name = b.uni0327;
position = "{175, 0}";
},
{
name = t.uni0303;
position = "{143, 740}";
},
{
name = t.uni0315;
position = "{280, 740}";
}
);
layerId = "389CED9B-F3EB-41FE-A5B1-A4D5AEA6A809";
shapes = (
{
closed = 1;
nodes = (
(283,0,l),
(216,0,ls),
(140,0,o),
(69,74,o),
(69,144,qs),
(69,740,l),
(217,740,l),
(217,115,l),
(283,115,l)
);
}
);
width = 303;
},
{
anchors = (
{
name = b.uni0327;
position = "{175, 0}";
},
{
name = t.uni0303;
position = "{143, 740}";
},
{
name = t.uni0315;
position = "{280, 740}";
}
);
layerId = "0B20A76F-6223-4F08-8632-D01C13B3F8D0";
shapes = (
{
closed = 1;
nodes = (
(241,0,l),
(170,0,ls),
(129,0,o),
(85,47,o),
(85,83,qs),
(85,740,l),
(165,740,l),
(165,70,l),
(241,70,l)
);
}
);
width = 272;
},
{
anchors = (
{
name = b.uni0327;
position = "{173, 0}";
},
{
name = t.uni0303;
position = "{133, 740}";
},
{
name = t.uni0315;
position = "{276, 740}";
}
);
layerId = "C5DA3672-7219-4097-B42A-B369F4569BEC";
shapes = (
{
closed = 1;
nodes = (
(211,0,l),
(134,0,ls),
(119,0,o),
(105,14,o),
(105,29,qs),
(105,740,l),
(126,740,l),
(126,19,l),
(211,19,l)
);
}
);
width = 251;
}
);
leftKerningGroup = l2;
rightKerningGroup = l;
unicode = 108;
},
{
glyphname = m;
layers = (
{
anchors = (
{
name = b.uni0327;
position = "{450, 0}";
},
{
name = t.uni0303;
position = "{450, 540}";
}
);
layerId = "880420EB-584C-4B51-BB9F-151DBE095CD5";
shapes = (
{
closed = 1;
nodes = (
(234,0,l),
(64,0,l),
(64,528,l),
(234,528,l),
(234,437,l),
(241,437,l),
(254,480,o),
(325,540,o),
(383,540,qs),
(438,540,o),
(510,484,o),
(526,434,q),
(529,434,l),
(543,478,o),
(632,540,o),
(690,540,qs),
(765,540,o),
(844,429,o),
(844,328,qs),
(844,0,l),
(673,0,l),
(673,317,ls),
(673,362,o),
(644,404,o),
(615,404,qs),
(596,404,o),
(561,388,o),
(539,358,o),
(539,334,qs),
(539,0,l),
(368,0,l),
(368,317,ls),
(368,362,o),
(338,404,o),
(309,404,qs),
(292,404,o),
(257,388,o),
(234,358,o),
(234,334,qs)
);
}
);
width = 901;
},
{
anchors = (
{
name = b.uni0327;
position = "{450, 0}";
},
{
name = t.uni0303;
position = "{450, 540}";
}
);
layerId = "389CED9B-F3EB-41FE-A5B1-A4D5AEA6A809";
shapes = (
{
closed = 1;
nodes = (
(217,0,l),
(69,0,l),
(69,525,l),
(217,525,l),
(217,436,l),
(223,436,l),
(237,478,o),
(306,537,o),
(364,537,qs),
(418,537,o),
(494,483,o),
(511,431,q),
(514,431,l),
(528,475,o),
(614,537,o),
(674,537,qs),
(750,537,o),
(831,428,o),
(831,329,qs),
(831,0,l),
(683,0,l),
(683,317,ls),
(683,368,o),
(648,417,o),
(611,417,qs),
(589,417,o),
(549,400,o),
(524,366,o),
(524,340,qs),
(524,0,l),
(376,0,l),
(376,317,ls),
(376,368,o),
(340,417,o),
(304,417,qs),
(283,417,o),
(243,400,o),
(217,366,o),
(217,340,qs)
);
}
);
width = 894;
},
{
anchors = (
{
name = b.uni0327;
position = "{450, 0}";
},
{
name = t.uni0303;
position = "{450, 540}";
}
);
layerId = "0B20A76F-6223-4F08-8632-D01C13B3F8D0";
shapes = (
{
closed = 1;
nodes = (
(165,0,l),
(85,0,l),
(85,516,l),
(165,516,l),
(165,432,l),
(169,432,l),
(186,472,o),
(248,528,o),
(308,528,qs),
(359,528,o),
(445,479,o),
(466,423,q),
(468,423,l),
(482,465,o),
(559,528,o),
(625,528,qs),
(704,528,o),
(793,425,o),
(793,331,qs),
(793,0,l),
(713,0,l),
(713,317,ls),
(713,385,o),
(659,456,o),
(600,456,qs),
(569,456,o),
(513,435,o),
(479,391,o),
(479,358,qs),
(479,0,l),
(399,0,l),
(399,317,ls),
(399,386,o),
(345,456,o),
(288,456,qs),
(257,456,o),
(200,435,o),
(165,391,o),
(165,358,qs)
);
}
);
width = 873;
},
{
anchors = (
{
name = b.uni0327;
position = "{456, 0}";
},
{
name = t.uni0303;
position = "{456, 540}";
}
);
layerId = "C5DA3672-7219-4097-B42A-B369F4569BEC";
shapes = (
{
closed = 1;
nodes = (
(126,0,l),
(105,0,l),
(105,506,l),
(126,506,l),
(126,430,l),
(129,430,l),
(143,464,o),
(215,518,o),
(282,518,qs),
(344,518,o),
(426,461,o),
(441,406,q),
(445,406,l),
(459,455,o),
(541,518,o),
(611,518,qs),
(696,518,o),
(784,420,o),
(784,325,qs),
(784,0,l),
(763,0,l),
(763,322,ls),
(763,414,o),
(684,499,o),
(609,499,qs),
(568,499,o),
(498,468,o),
(455,407,o),
(455,360,qs),
(455,0,l),
(434,0,l),
(434,322,ls),
(434,414,o),
(354,499,o),
(280,499,qs),
(240,499,o),
(169,469,o),
(126,408,o),
(126,362,qs)
);
}
);
width = 879;
}
);
leftKerningGroup = m;
rightKerningGroup = h;
unicode = 109;
},
{
glyphname = n;
layers = (
{
anchors = (
{
name = b.uni0327;
position = "{302, 0}";
},
{
name = t.uni0303;
position = "{299, 540}";
}
);
layerId = "880420EB-584C-4B51-BB9F-151DBE095CD5";
shapes = (
{
closed = 1;
nodes = (
(234,0,l),
(64,0,l),
(64,528,l),
(234,528,l),
(234,437,l),
(241,437,l),
(253,477,o),
(324,540,o),
(387,540,qs),
(467,540,o),
(548,429,o),
(548,328,qs),
(548,0,l),
(377,0,l),
(377,317,ls),
(377,361,o),
(354,404,o),
(319,404,qs),
(298,404,o),
(260,388,o),
(234,358,o),
(234,334,qs)
);
}
);
width = 605;
},
{
anchors = (
{
name = b.uni0327;
position = "{302, 0}";
},
{
name = t.uni0303;
position = "{299, 540}";
}
);
layerId = "389CED9B-F3EB-41FE-A5B1-A4D5AEA6A809";
shapes = (
{
closed = 1;
nodes = (
(217,0,l),
(69,0,l),
(69,525,l),
(217,525,l),
(217,436,l),
(223,436,l),
(237,477,o),
(307,537,o),
(369,537,qs),
(449,537,o),
(533,428,o),
(533,329,qs),
(533,0,l),
(385,0,l),
(385,317,ls),
(385,367,o),
(353,417,o),
(312,417,qs),
(288,417,o),
(245,400,o),
(217,366,o),
(217,340,qs)
);
}
);
width = 596;
},
{
anchors = (
{
name = b.uni0327;
position = "{302, 0}";
},
{
name = t.uni0303;
position = "{299, 540}";
}
);
layerId = "0B20A76F-6223-4F08-8632-D01C13B3F8D0";
shapes = (
{
closed = 1;
nodes = (
(165,0,l),
(85,0,l),
(85,516,l),
(165,516,l),
(165,432,l),
(169,432,l),
(188,476,o),
(257,528,o),
(315,528,qs),
(395,528,o),
(488,425,o),
(488,331,qs),
(488,0,l),
(408,0,l),
(408,317,ls),
(408,386,o),
(349,456,o),
(291,456,qs),
(259,456,o),
(201,435,o),
(165,391,o),
(165,358,qs)
);
}
);
width = 568;
},
{
anchors = (
{
name = b.uni0327;
position = "{298, 0}";
},
{
name = t.uni0303;
position = "{295, 540}";
}
);
layerId = "C5DA3672-7219-4097-B42A-B369F4569BEC";
shapes = (
{
closed = 1;
nodes = (
(126,0,l),
(105,0,l),
(105,506,l),
(126,506,l),
(126,430,l),
(129,430,l),
(143,464,o),
(219,518,o),
(287,518,qs),
(372,518,o),
(461,420,o),
(461,325,qs),
(461,0,l),
(440,0,l),
(440,321,ls),
(440,413,o),
(359,499,o),
(285,499,qs),
(243,499,o),
(171,469,o),
(126,408,o),
(126,362,qs)
);
}
);
width = 556;
}
);
leftKerningGroup = m;
rightKerningGroup = h;
unicode = 110;
},
{
glyphname = o;
layers = (
{
anchors = (
{
name = b.uni0327;
position = "{281, 0}";
},
{
name = t.uni0303;
position = "{281, 540}";
}
);
layerId = "880420EB-584C-4B51-BB9F-151DBE095CD5";
shapes = (
{
closed = 1;
nodes = (
(203,-12,o),
(91,55,o),
(32,180,o),
(32,265,qs),
(32,351,o),
(91,473,o),
(203,540,o),
(283,540,qs),
(362,540,o),
(474,473,o),
(533,351,o),
(533,265,qs),
(533,180,o),
(474,55,o),
(362,-12,o),
(283,-12,qs)
);
},
{
closed = 1;
nodes = (
(320,120,o),
(356,167,o),
(356,205,qs),
(356,323,ls),
(356,362,o),
(320,408,o),
(283,408,qs),
(247,408,o),
(209,362,o),
(209,323,qs),
(209,205,ls),
(209,167,o),
(247,120,o),
(283,120,qs)
);
}
);
width = 565;
},
{
anchors = (
{
name = b.uni0327;
position = "{281, 0}";
},
{
name = t.uni0303;
position = "{281, 540}";
}
);
layerId = "389CED9B-F3EB-41FE-A5B1-A4D5AEA6A809";
shapes = (
{
closed = 1;
nodes = (
(205,-12,o),
(95,55,o),
(36,179,o),
(36,263,qs),
(36,348,o),
(95,470,o),
(205,537,o),
(282,537,qs),
(359,537,o),
(469,470,o),
(528,348,o),
(528,263,qs),
(528,179,o),
(469,55,o),
(359,-12,o),
(282,-12,qs)
);
},
{
closed = 1;
nodes = (
(326,105,o),
(374,160,o),
(374,209,qs),
(374,316,ls),
(374,366,o),
(326,420,o),
(282,420,qs),
(239,420,o),
(190,366,o),
(190,316,qs),
(190,209,ls),
(190,160,o),
(239,105,o),
(282,105,qs)
);
}
);
width = 564;
},
{
anchors = (
{
name = b.uni0327;
position = "{281, 0}";
},
{
name = t.uni0303;
position = "{281, 540}";
}
);
layerId = "0B20A76F-6223-4F08-8632-D01C13B3F8D0";
shapes = (
{
closed = 1;
nodes = (
(211,-12,o),
(106,55,o),
(47,176,o),
(47,258,qs),
(47,340,o),
(106,461,o),
(211,528,o),
(280,528,qs),
(349,528,o),
(454,461,o),
(513,340,o),
(513,258,qs),
(513,176,o),
(454,55,o),
(349,-12,o),
(280,-12,qs)
);
},
{
closed = 1;
nodes = (
(345,59,o),
(427,139,o),
(427,221,qs),
(427,295,ls),
(427,377,o),
(345,457,o),
(280,457,qs),
(216,457,o),
(133,377,o),
(133,295,qs),
(133,221,ls),
(133,139,o),
(216,59,o),
(280,59,qs)
);
}
);
width = 560;
},
{
anchors = (
{
name = b.uni0327;
position = "{271, 0}";
},
{
name = t.uni0303;
position = "{271, 540}";
}
);
layerId = "C5DA3672-7219-4097-B42A-B369F4569BEC";
shapes = (
{
closed = 1;
nodes = (
(204,-12,o),
(110,48,o),
(60,166,o),
(60,253,qs),
(60,341,o),
(110,458,o),
(204,518,o),
(270,518,qs),
(336,518,o),
(430,458,o),
(480,341,o),
(480,253,qs),
(480,166,o),
(430,48,o),
(336,-12,o),
(270,-12,qs)
);
},
{
closed = 1;
nodes = (
(360,7,o),
(457,127,o),
(457,229,qs),
(457,277,ls),
(457,379,o),
(360,499,o),
(270,499,qs),
(180,499,o),
(83,379,o),
(83,277,qs),
(83,229,ls),
(83,127,o),
(180,7,o),
(270,7,qs)
);
}
);
width = 540;
}
);
leftKerningGroup = c2;
rightKerningGroup = o;
unicode = 111;
},
{
glyphname = p;
layers = (
{
anchors = (
{
name = t.uni0303;
position = "{317, 540}";
}
);
layerId = "880420EB-584C-4B51-BB9F-151DBE095CD5";
shapes = (
{
closed = 1;
nodes = (
(64,-200,l),
(64,528,l),
(234,528,l),
(234,439,l),
(240,439,l),
(248,481,o),
(327,540,o),
(377,540,qs),
(445,540,o),
(532,478,o),
(577,356,o),
(577,265,qs),
(577,173,o),
(532,50,o),
(445,-12,o),
(377,-12,qs),
(327,-12,o),
(247,48,o),
(240,89,q),
(234,89,l),
(234,-200,l)
);
},
{
closed = 1;
nodes = (
(353,124,o),
(400,176,o),
(400,218,qs),
(400,310,ls),
(400,354,o),
(353,404,o),
(319,404,qs),
(294,404,o),
(256,389,o),
(234,357,o),
(234,334,qs),
(234,192,ls),
(234,171,o),
(256,140,o),
(294,124,o),
(319,124,qs)
);
}
);
width = 617;
},
{
anchors = (
{
name = t.uni0303;
position = "{317, 540}";
}
);
layerId = "389CED9B-F3EB-41FE-A5B1-A4D5AEA6A809";
shapes = (
{
closed = 1;
nodes = (
(69,-200,l),
(69,525,l),
(217,525,l),
(217,437,l),
(222,437,l),
(233,481,o),
(312,537,o),
(363,537,qs),
(430,537,o),
(519,474,o),
(565,352,o),
(565,263,qs),
(565,174,o),
(519,51,o),
(430,-12,o),
(363,-12,qs),
(312,-12,o),
(233,45,o),
(222,88,q),
(217,88,l),
(217,-200,l)
);
},
{
closed = 1;
nodes = (
(356,108,o),
(411,168,o),
(411,217,qs),
(411,308,ls),
(411,358,o),
(356,417,o),
(314,417,qs),
(286,417,o),
(242,399,o),
(217,364,o),
(217,340,qs),
(217,185,ls),
(217,161,o),
(242,126,o),
(286,108,o),
(314,108,qs)
);
}
);
width = 608;
},
{
anchors = (
{
name = t.uni0303;
position = "{317, 540}";
}
);
layerId = "0B20A76F-6223-4F08-8632-D01C13B3F8D0";
shapes = (
{
closed = 1;
nodes = (
(85,-200,l),
(85,516,l),
(165,516,l),
(165,432,l),
(169,432,l),
(189,481,o),
(267,528,o),
(320,528,qs),
(385,528,o),
(479,462,o),
(530,341,o),
(530,258,qs),
(530,176,o),
(479,54,o),
(385,-12,o),
(320,-12,qs),
(267,-12,o),
(192,36,o),
(169,84,q),
(165,84,l),
(165,-200,l)
);
},
{
closed = 1;
nodes = (
(366,60,o),
(444,145,o),
(444,214,qs),
(444,302,ls),
(444,371,o),
(366,456,o),
(298,456,qs),
(262,456,o),
(201,430,o),
(165,386,o),
(165,357,qs),
(165,165,ls),
(165,132,o),
(201,85,o),
(262,60,o),
(298,60,qs)
);
}
);
width = 580;
},
{
anchors = (
{
name = t.uni0303;
position = "{302, 540}";
}
);
layerId = "C5DA3672-7219-4097-B42A-B369F4569BEC";
shapes = (
{
closed = 1;
nodes = (
(105,-200,l),
(105,506,l),
(126,506,l),
(126,428,l),
(129,428,l),
(145,461,o),
(226,518,o),
(293,518,qs),
(360,518,o),
(454,459,o),
(505,341,o),
(505,253,qs),
(505,165,o),
(454,47,o),
(360,-12,o),
(293,-12,qs),
(226,-12,o),
(145,45,o),
(129,78,q),
(126,78,l),
(126,-200,l)
);
},
{
closed = 1;
nodes = (
(384,7,o),
(482,126,o),
(482,229,qs),
(482,277,ls),
(482,380,o),
(384,499,o),
(293,499,qs),
(249,499,o),
(173,465,o),
(126,404,o),
(126,363,qs),
(126,143,ls),
(126,103,o),
(173,41,o),
(249,7,o),
(293,7,qs)
);
}
);
width = 565;
}
);
rightKerningGroup = b;
unicode = 112;
},
{
glyphname = q;
layers = (
{
anchors = (
{
name = t.uni0303;
position = "{291, 540}";
}
);
layerId = "880420EB-584C-4B51-BB9F-151DBE095CD5";
shapes = (
{
closed = 1;
nodes = (
(383,-200,l),
(383,89,l),
(378,89,l),
(371,48,o),
(290,-12,o),
(240,-12,qs),
(173,-12,o),
(85,50,o),
(41,173,o),
(41,265,qs),
(41,356,o),
(85,478,o),
(173,540,o),
(240,540,qs),
(290,540,o),
(370,481,o),
(378,439,q),
(383,439,l),
(383,528,l),
(554,528,l),
(554,-200,l)
);
},
{
closed = 1;
nodes = (
(323,124,o),
(362,140,o),
(383,171,o),
(383,192,qs),
(383,334,ls),
(383,357,o),
(362,389,o),
(323,404,o),
(298,404,qs),
(264,404,o),
(217,354,o),
(217,310,qs),
(217,218,ls),
(217,176,o),
(264,124,o),
(298,124,qs)
);
}
);
width = 617;
},
{
anchors = (
{
name = t.uni0303;
position = "{291, 540}";
}
);
layerId = "389CED9B-F3EB-41FE-A5B1-A4D5AEA6A809";
shapes = (
{
closed = 1;
nodes = (
(391,-200,l),
(391,88,l),
(386,88,l),
(375,45,o),
(296,-12,o),
(245,-12,qs),
(179,-12,o),
(89,51,o),
(43,174,o),
(43,263,qs),
(43,352,o),
(89,474,o),
(179,537,o),
(245,537,qs),
(296,537,o),
(375,481,o),
(386,437,q),
(391,437,l),
(391,525,l),
(539,525,l),
(539,-200,l)
);
},
{
closed = 1;
nodes = (
(322,108,o),
(366,126,o),
(391,161,o),
(391,185,qs),
(391,340,ls),
(391,364,o),
(366,399,o),
(322,417,o),
(294,417,qs),
(252,417,o),
(197,358,o),
(197,308,qs),
(197,217,ls),
(197,168,o),
(252,108,o),
(294,108,qs)
);
}
);
width = 608;
},
{
anchors = (
{
name = t.uni0303;
position = "{291, 540}";
}
);
layerId = "0B20A76F-6223-4F08-8632-D01C13B3F8D0";
shapes = (
{
closed = 1;
nodes = (
(415,-200,l),
(415,84,l),
(411,84,l),
(388,36,o),
(313,-12,o),
(260,-12,qs),
(196,-12,o),
(101,54,o),
(50,176,o),
(50,258,qs),
(50,341,o),
(101,462,o),
(196,528,o),
(260,528,qs),
(313,528,o),
(391,481,o),
(411,432,q),
(415,432,l),
(415,516,l),
(495,516,l),
(495,-200,l)
);
},
{
closed = 1;
nodes = (
(319,60,o),
(379,85,o),
(415,132,o),
(415,165,qs),
(415,357,ls),
(415,386,o),
(379,430,o),
(319,456,o),
(282,456,qs),
(215,456,o),
(136,371,o),
(136,302,qs),
(136,214,ls),
(136,145,o),
(215,60,o),
(282,60,qs)
);
}
);
width = 580;
},
{
anchors = (
{
name = t.uni0303;
position = "{290, 540}";
}
);
layerId = "C5DA3672-7219-4097-B42A-B369F4569BEC";
shapes = (
{
closed = 1;
nodes = (
(439,-200,l),
(439,78,l),
(436,78,l),
(420,45,o),
(339,-12,o),
(272,-12,qs),
(206,-12,o),
(111,47,o),
(60,165,o),
(60,253,qs),
(60,341,o),
(111,459,o),
(206,518,o),
(272,518,qs),
(339,518,o),
(420,461,o),
(436,428,q),
(439,428,l),
(439,506,l),
(460,506,l),
(460,-200,l)
);
},
{
closed = 1;
nodes = (
(316,7,o),
(392,41,o),
(439,103,o),
(439,143,qs),
(439,363,ls),
(439,404,o),
(392,465,o),
(316,499,o),
(272,499,qs),
(181,499,o),
(83,380,o),
(83,277,qs),
(83,229,ls),
(83,126,o),
(181,7,o),
(272,7,qs)
);
}
);
width = 565;
}
);
leftKerningGroup = d;
rightKerningGroup = q;
unicode = 113;
},
{
glyphname = r;
layers = (
{
anchors = (
{
name = b.uni0327;
position = "{143, 0}";
},
{
name = t.uni0303;
position = "{224, 540}";
}
);
layerId = "880420EB-584C-4B51-BB9F-151DBE095CD5";
shapes = (
{
closed = 1;
nodes = (
(234,0,l),
(64,0,l),
(64,528,l),
(234,528,l),
(234,408,l),
(239,408,l),
(244,438,o),
(274,493,o),
(328,528,o),
(368,528,qs),
(393,528,l),
(393,371,l),
(359,371,ls),
(316,371,o),
(261,358,o),
(234,326,o),
(234,293,qs)
);
}
);
width = 416;
},
{
anchors = (
{
name = b.uni0327;
position = "{143, 0}";
},
{
name = t.uni0303;
position = "{224, 540}";
}
);
layerId = "389CED9B-F3EB-41FE-A5B1-A4D5AEA6A809";
shapes = (
{
closed = 1;
nodes = (
(217,0,l),
(69,0,l),
(69,525,l),
(217,525,l),
(217,411,l),
(222,411,l),
(228,440,o),
(260,492,o),
(315,525,o),
(356,525,qs),
(382,525,l),
(382,387,l),
(345,387,ls),
(302,387,o),
(245,372,o),
(217,338,o),
(217,307,qs)
);
}
);
width = 404;
},
{
anchors = (
{
name = b.uni0327;
position = "{143, 0}";
},
{
name = t.uni0303;
position = "{224, 540}";
}
);
layerId = "0B20A76F-6223-4F08-8632-D01C13B3F8D0";
shapes = (
{
closed = 1;
nodes = (
(165,0,l),
(85,0,l),
(85,516,l),
(165,516,l),
(165,421,l),
(170,421,l),
(179,446,o),
(217,489,o),
(277,516,o),
(319,516,qs),
(350,516,l),
(350,436,l),
(303,436,ls),
(260,436,o),
(198,413,o),
(165,375,o),
(165,350,qs)
);
}
);
width = 367;
},
{
anchors = (
{
name = b.uni0327;
position = "{132, 0}";
},
{
name = t.uni0303;
position = "{226, 540}";
}
);
layerId = "C5DA3672-7219-4097-B42A-B369F4569BEC";
shapes = (
{
closed = 1;
nodes = (
(126,0,l),
(105,0,l),
(105,506,l),
(126,506,l),
(126,419,l),
(129,419,l),
(141,443,o),
(179,482,o),
(241,506,o),
(287,506,qs),
(328,506,l),
(328,487,l),
(284,487,ls),
(243,487,o),
(171,457,o),
(126,396,o),
(126,349,qs)
);
}
);
width = 341;
}
);
leftKerningGroup = m;
rightKerningGroup = r;
unicode = 114;
},
{
glyphname = s;
layers = (
{
anchors = (
{
name = b.uni0327;
position = "{249, 0}";
},
{
name = t.uni0303;
position = "{250, 540}";
}
);
layerId = "880420EB-584C-4B51-BB9F-151DBE095CD5";
shapes = (
{
closed = 1;
nodes = (
(172,-12,o),
(66,35,o),
(23,80,q),
(120,182,l),
(147,153,o),
(213,119,o),
(254,119,qs),
(296,119,o),
(322,140,o),
(322,157,qs),
(322,174,o),
(302,186,o),
(281,189,q),
(219,196,l),
(156,205,o),
(76,247,o),
(38,316,o),
(38,363,qs),
(38,438,o),
(150,540,o),
(249,540,qs),
(308,540,o),
(388,521,o),
(447,484,o),
(474,458,q),
(379,358,l),
(351,384,o),
(289,409,o),
(262,409,qs),
(229,409,o),
(202,392,o),
(202,377,qs),
(202,362,o),
(216,343,o),
(242,339,qs),
(308,330,ls),
(394,320,o),
(486,239,o),
(486,168,qs),
(486,118,o),
(426,35,o),
(320,-12,o),
(249,-12,qs)
);
}
);
width = 510;
},
{
anchors = (
{
name = b.uni0327;
position = "{249, 0}";
},
{
name = t.uni0303;
position = "{250, 540}";
}
);
layerId = "389CED9B-F3EB-41FE-A5B1-A4D5AEA6A809";
shapes = (
{
closed = 1;
nodes = (
(171,-12,o),
(67,37,o),
(26,82,q),
(113,170,l),
(141,139,o),
(209,103,o),
(252,103,qs),
(296,103,o),
(330,130,o),
(330,153,qs),
(330,173,o),
(305,193,o),
(277,197,qs),
(220,204,ls),
(161,212,o),
(82,252,o),
(43,319,o),
(43,366,qs),
(43,442,o),
(153,537,o),
(247,537,qs),
(302,537,o),
(378,518,o),
(435,481,o),
(461,455,q),
(376,368,l),
(351,393,o),
(288,422,o),
(255,422,qs),
(218,422,o),
(185,398,o),
(185,378,qs),
(185,357,o),
(208,334,o),
(240,329,qs),
(299,321,ls),
(385,310,o),
(472,231,o),
(472,163,qs),
(472,113,o),
(416,33,o),
(315,-12,o),
(247,-12,qs)
);
}
);
width = 504;
},
{
anchors = (
{
name = b.uni0327;
position = "{249, 0}";
},
{
name = t.uni0303;
position = "{250, 540}";
}
);
layerId = "0B20A76F-6223-4F08-8632-D01C13B3F8D0";
shapes = (
{
closed = 1;
nodes = (
(169,-12,o),
(71,43,o),
(36,89,q),
(93,135,l),
(123,98,o),
(197,56,o),
(246,56,qs),
(297,56,o),
(354,100,o),
(354,140,qs),
(354,170,o),
(315,214,o),
(264,221,qs),
(223,227,ls),
(176,234,o),
(100,267,o),
(57,328,o),
(57,376,qs),
(57,453,o),
(162,528,o),
(241,528,qs),
(283,528,o),
(348,508,o),
(400,471,o),
(421,445,q),
(368,397,l),
(351,421,o),
(285,460,o),
(235,460,qs),
(186,460,o),
(134,417,o),
(134,380,qs),
(134,343,o),
(185,308,o),
(233,300,qs),
(273,294,ls),
(359,281,o),
(431,208,o),
(431,149,qs),
(431,99,o),
(385,27,o),
(299,-12,o),
(240,-12,qs)
);
}
);
width = 487;
},
{
anchors = (
{
name = b.uni0327;
position = "{246, 0}";
},
{
name = t.uni0303;
position = "{235, 540}";
}
);
layerId = "C5DA3672-7219-4097-B42A-B369F4569BEC";
shapes = (
{
closed = 1;
nodes = (
(175,-12,o),
(84,32,o),
(49,81,q),
(67,93,l),
(102,46,o),
(181,7,o),
(236,7,qs),
(307,7,o),
(382,68,o),
(382,124,qs),
(382,181,o),
(317,235,o),
(254,245,qs),
(210,252,ls),
(166,259,o),
(101,290,o),
(66,345,o),
(66,389,qs),
(66,453,o),
(159,518,o),
(226,518,qs),
(270,518,o),
(332,497,o),
(377,464,o),
(393,445,q),
(377,431,l),
(354,457,o),
(287,499,o),
(227,499,qs),
(164,499,o),
(87,443,o),
(87,390,qs),
(87,334,o),
(150,283,o),
(214,272,qs),
(258,265,ls),
(324,255,o),
(403,192,o),
(403,125,qs),
(403,82,o),
(362,20,o),
(288,-12,o),
(236,-12,qs)
);
}
);
width = 462;
}
);
leftKerningGroup = s2;
rightKerningGroup = s;
unicode = 115;
},
{
glyphname = t;
layers = (
{
anchors = (
{
name = b.uni0327;
position = "{229, 0}";
},
{
name = t.uni0315;
position = "{308, 791}";
}
);
layerId = "880420EB-584C-4B51-BB9F-151DBE095CD5";
shapes = (
{
closed = 1;
nodes = (
(355,0,l),
(271,0,ls),
(183,0,o),
(91,88,o),
(91,176,qs),
(91,398,l),
(21,398,l),
(21,528,l),
(54,528,ls),
(86,528,o),
(109,560,o),
(109,587,qs),
(109,670,l),
(262,670,l),
(262,528,l),
(363,528,l),
(363,398,l),
(262,398,l),
(262,130,l),
(355,130,l)
);
}
);
width = 394;
},
{
anchors = (
{
name = b.uni0327;
position = "{229, 0}";
},
{
name = t.uni0315;
position = "{308, 791}";
}
);
layerId = "389CED9B-F3EB-41FE-A5B1-A4D5AEA6A809";
shapes = (
{
closed = 1;
nodes = (
(341,0,l),
(253,0,ls),
(177,0,o),
(97,78,o),
(97,153,qs),
(97,410,l),
(23,410,l),
(23,525,l),
(60,525,ls),
(90,525,o),
(112,554,o),
(112,581,qs),
(112,667,l),
(245,667,l),
(245,525,l),
(349,525,l),
(349,410,l),
(245,410,l),
(245,115,l),
(341,115,l)
);
}
);
width = 383;
},
{
anchors = (
{
name = b.uni0327;
position = "{229, 0}";
},
{
name = t.uni0315;
position = "{308, 791}";
}
);
layerId = "0B20A76F-6223-4F08-8632-D01C13B3F8D0";
shapes = (
{
closed = 1;
nodes = (
(299,0,l),
(199,0,ls),
(158,0,o),
(114,48,o),
(114,85,qs),
(114,446,l),
(29,446,l),
(29,516,l),
(77,516,ls),
(103,516,o),
(122,537,o),
(122,563,qs),
(122,659,l),
(194,659,l),
(194,516,l),
(307,516,l),
(307,446,l),
(194,446,l),
(194,70,l),
(299,70,l)
);
}
);
width = 351;
},
{
anchors = (
{
name = b.uni0327;
position = "{206, 0}";
},
{
name = t.uni0315;
position = "{291, 780}";
}
);
layerId = "C5DA3672-7219-4097-B42A-B369F4569BEC";
shapes = (
{
closed = 1;
nodes = (
(259,0,l),
(154,0,ls),
(139,0,o),
(125,14,o),
(125,29,qs),
(125,487,l),
(30,487,l),
(30,506,l),
(102,506,ls),
(116,506,o),
(125,518,o),
(125,531,qs),
(125,650,l),
(146,650,l),
(146,506,l),
(267,506,l),
(267,487,l),
(146,487,l),
(146,19,l),
(259,19,l)
);
}
);
width = 310;
}
);
leftKerningGroup = t2;
rightKerningGroup = t;
unicode = 116;
},
{
glyphname = u;
layers = (
{
anchors = (
{
name = b.uni0327;
position = "{295, 0}";
},
{
name = b.uni0328;
position = "{527, 0}";
},
{
name = t.uni0303;
position = "{295, 540}";
}
);
layerId = "880420EB-584C-4B51-BB9F-151DBE095CD5";
shapes = (
{
closed = 1;
nodes = (
(371,0,l),
(371,89,l),
(366,89,l),
(353,48,o),
(283,-12,o),
(218,-12,qs),
(138,-12,o),
(57,98,o),
(57,198,qs),
(57,528,l),
(228,528,l),
(228,211,ls),
(228,170,o),
(255,124,o),
(289,124,qs),
(309,124,o),
(347,140,o),
(371,170,o),
(371,192,qs),
(371,528,l),
(542,528,l),
(542,0,l)
);
}
);
width = 605;
},
{
anchors = (
{
name = b.uni0327;
position = "{295, 0}";
},
{
name = b.uni0328;
position = "{527, 0}";
},
{
name = t.uni0303;
position = "{295, 540}";
}
);
layerId = "389CED9B-F3EB-41FE-A5B1-A4D5AEA6A809";
shapes = (
{
closed = 1;
nodes = (
(379,0,l),
(379,88,l),
(374,88,l),
(361,48,o),
(292,-12,o),
(227,-12,qs),
(147,-12,o),
(63,96,o),
(63,195,qs),
(63,525,l),
(211,525,l),
(211,208,ls),
(211,160,o),
(246,108,o),
(286,108,qs),
(309,108,o),
(352,125,o),
(379,159,o),
(379,184,qs),
(379,525,l),
(527,525,l),
(527,0,l)
);
}
);
width = 596;
},
{
anchors = (
{
name = b.uni0327;
position = "{295, 0}";
},
{
name = b.uni0328;
position = "{527, 0}";
},
{
name = t.uni0303;
position = "{295, 540}";
}
);
layerId = "0B20A76F-6223-4F08-8632-D01C13B3F8D0";
shapes = (
{
closed = 1;
nodes = (
(403,0,l),
(403,84,l),
(399,84,l),
(384,47,o),
(319,-12,o),
(254,-12,qs),
(175,-12,o),
(80,91,o),
(80,185,qs),
(80,516,l),
(160,516,l),
(160,199,ls),
(160,130,o),
(220,60,o),
(278,60,qs),
(310,60,o),
(367,81,o),
(403,125,o),
(403,159,qs),
(403,516,l),
(483,516,l),
(483,0,l)
);
}
);
width = 568;
},
{
anchors = (
{
name = b.uni0327;
position = "{286, 0}";
},
{
name = b.uni0328;
position = "{495, 0}";
},
{
name = t.uni0303;
position = "{286, 540}";
}
);
layerId = "C5DA3672-7219-4097-B42A-B369F4569BEC";
shapes = (
{
closed = 1;
nodes = (
(430,0,l),
(430,76,l),
(427,76,l),
(414,42,o),
(337,-12,o),
(269,-12,qs),
(184,-12,o),
(95,87,o),
(95,181,qs),
(95,506,l),
(116,506,l),
(116,185,ls),
(116,93,o),
(197,7,o),
(271,7,qs),
(313,7,o),
(385,37,o),
(430,98,o),
(430,144,qs),
(430,506,l),
(451,506,l),
(451,0,l)
);
}
);
width = 556;
}
);
leftKerningGroup = u2;
rightKerningGroup = u;
unicode = 117;
},
{
glyphname = v;
layers = (
{
anchors = (
{
name = b.uni0327;
position = "{269, 0}";
},
{
name = t.uni0303;
position = "{269, 540}";
}
);
layerId = "880420EB-584C-4B51-BB9F-151DBE095CD5";
shapes = (
{
closed = 1;
nodes = (
(379,0,l),
(175,0,l),
(6,528,l),
(174,528,l),
(231,331,l),
(277,136,l),
(286,136,l),
(333,331,l),
(386,528,l),
(547,528,l)
);
}
);
width = 553;
},
{
anchors = (
{
name = b.uni0327;
position = "{269, 0}";
},
{
name = t.uni0303;
position = "{269, 540}";
}
);
layerId = "389CED9B-F3EB-41FE-A5B1-A4D5AEA6A809";
shapes = (
{
closed = 1;
nodes = (
(357,0,l),
(181,0,l),
(9,525,l),
(155,525,l),
(220,313,l),
(269,123,l),
(277,123,l),
(326,313,l),
(389,525,l),
(529,525,l)
);
}
);
width = 538;
},
{
anchors = (
{
name = b.uni0327;
position = "{269, 0}";
},
{
name = t.uni0303;
position = "{269, 540}";
}
);
layerId = "0B20A76F-6223-4F08-8632-D01C13B3F8D0";
shapes = (
{
closed = 1;
nodes = (
(292,0,l),
(199,0,l),
(18,516,l),
(98,516,l),
(188,260,l),
(244,84,l),
(249,84,l),
(305,260,l),
(397,516,l),
(474,516,l)
);
}
);
width = 492;
},
{
anchors = (
{
name = b.uni0327;
position = "{249, 0}";
},
{
name = t.uni0303;
position = "{249, 540}";
}
);
layerId = "C5DA3672-7219-4097-B42A-B369F4569BEC";
shapes = (
{
closed = 1;
nodes = (
(239,0,l),
(213,0,l),
(25,506,l),
(47,506,l),
(164,189,l),
(225,24,l),
(228,24,l),
(289,189,l),
(406,506,l),
(427,506,l)
);
}
);
width = 452;
}
);
unicode = 118;
},
{
glyphname = w;
layers = (
{
anchors = (
{
name = b.uni0327;
position = "{421, 0}";
},
{
name = t.uni0303;
position = "{421, 540}";
}
);
layerId = "880420EB-584C-4B51-BB9F-151DBE095CD5";
shapes = (
{
closed = 1;
nodes = (
(165,0,l),
(15,528,l),
(180,528,l),
(229,320,l),
(259,182,l),
(264,182,l),
(299,320,l),
(357,528,l),
(513,528,l),
(572,320,l),
(608,182,l),
(613,182,l),
(643,320,l),
(693,528,l),
(850,528,l),
(703,0,l),
(529,0,l),
(468,213,l),
(433,342,l),
(430,342,l),
(397,213,l),
(335,0,l)
);
}
);
width = 865;
},
{
anchors = (
{
name = b.uni0327;
position = "{421, 0}";
},
{
name = t.uni0303;
position = "{421, 540}";
}
);
layerId = "389CED9B-F3EB-41FE-A5B1-A4D5AEA6A809";
shapes = (
{
closed = 1;
nodes = (
(166,0,l),
(19,525,l),
(162,525,l),
(213,313,l),
(249,153,l),
(253,153,l),
(295,313,l),
(355,525,l),
(490,525,l),
(551,313,l),
(594,153,l),
(598,153,l),
(634,313,l),
(685,525,l),
(822,525,l),
(677,0,l),
(522,0,l),
(458,222,l),
(421,358,l),
(418,358,l),
(382,222,l),
(318,0,l)
);
}
);
width = 841;
},
{
anchors = (
{
name = b.uni0327;
position = "{421, 0}";
},
{
name = t.uni0303;
position = "{421, 540}";
}
);
layerId = "0B20A76F-6223-4F08-8632-D01C13B3F8D0";
shapes = (
{
closed = 1;
nodes = (
(169,0,l),
(31,516,l),
(109,516,l),
(164,293,l),
(219,67,l),
(221,67,l),
(284,293,l),
(349,516,l),
(420,516,l),
(487,293,l),
(551,67,l),
(553,67,l),
(606,293,l),
(662,516,l),
(737,516,l),
(600,0,l),
(501,0,l),
(429,248,l),
(384,405,l),
(382,405,l),
(338,248,l),
(266,0,l)
);
}
);
width = 768;
},
{
anchors = (
{
name = b.uni0327;
position = "{400, 0}";
},
{
name = t.uni0303;
position = "{400, 540}";
}
);
layerId = "C5DA3672-7219-4097-B42A-B369F4569BEC";
shapes = (
{
closed = 1;
nodes = (
(189,0,l),
(35,506,l),
(57,506,l),
(152,191,l),
(201,27,l),
(204,27,l),
(255,191,l),
(352,506,l),
(374,506,l),
(471,191,l),
(522,27,l),
(525,27,l),
(574,191,l),
(669,506,l),
(690,506,l),
(536,0,l),
(510,0,l),
(415,308,l),
(364,472,l),
(361,472,l),
(310,308,l),
(215,0,l)
);
}
);
width = 725;
}
);
leftKerningGroup = w2;
rightKerningGroup = w;
unicode = 119;
},
{
glyphname = x;
layers = (
{
anchors = (
{
name = b.uni0327;
position = "{280, 0}";
},
{
name = t.uni0303;
position = "{280, 540}";
}
);
layerId = "880420EB-584C-4B51-BB9F-151DBE095CD5";
shapes = (
{
closed = 1;
nodes = (
(17,0,l),
(184,269,l),
(17,528,l),
(210,528,l),
(297,372,l),
(301,372,l),
(382,528,l),
(561,528,l),
(389,261,l),
(561,0,l),
(368,0,l),
(278,161,l),
(274,161,l),
(193,0,l)
);
}
);
width = 578;
},
{
anchors = (
{
name = b.uni0327;
position = "{280, 0}";
},
{
name = t.uni0303;
position = "{280, 540}";
}
);
layerId = "389CED9B-F3EB-41FE-A5B1-A4D5AEA6A809";
shapes = (
{
closed = 1;
nodes = (
(18,0,l),
(191,267,l),
(20,525,l),
(188,525,l),
(286,360,l),
(290,360,l),
(385,525,l),
(541,525,l),
(367,262,l),
(542,0,l),
(374,0,l),
(273,171,l),
(269,171,l),
(172,0,l)
);
}
);
width = 560;
},
{
anchors = (
{
name = b.uni0327;
position = "{280, 0}";
},
{
name = t.uni0303;
position = "{280, 540}";
}
);
layerId = "0B20A76F-6223-4F08-8632-D01C13B3F8D0";
shapes = (
{
closed = 1;
nodes = (
(21,0,l),
(212,260,l),
(29,516,l),
(123,516,l),
(254,324,l),
(257,324,l),
(393,516,l),
(482,516,l),
(300,266,l),
(486,0,l),
(392,0,l),
(258,202,l),
(255,202,l),
(110,0,l)
);
}
);
width = 507;
},
{
anchors = (
{
name = b.uni0327;
position = "{262, 0}";
},
{
name = t.uni0303;
position = "{262, 540}";
}
);
layerId = "C5DA3672-7219-4097-B42A-B369F4569BEC";
shapes = (
{
closed = 1;
nodes = (
(34,0,l),
(222,255,l),
(39,506,l),
(63,506,l),
(234,271,l),
(236,271,l),
(407,506,l),
(431,506,l),
(248,255,l),
(436,0,l),
(412,0,l),
(236,239,l),
(234,239,l),
(58,0,l)
);
}
);
width = 470;
}
);
unicode = 120;
},
{
glyphname = y;
layers = (
{
anchors = (
{
name = b.uni0327;
position = "{432, 0}";
},
{
name = t.uni0303;
position = "{271, 540}";
}
);
layerId = "880420EB-584C-4B51-BB9F-151DBE095CD5";
shapes = (
{
closed = 1;
nodes = (
(325,318,l),
(386,528,l),
(543,528,l),
(351,-68,ls),
(337,-111,o),
(292,-170,o),
(224,-200,o),
(176,-200,qs),
(67,-200,l),
(67,-70,l),
(172,-70,l),
(183,-29,l),
(2,528,l),
(172,528,l),
(233,318,l),
(276,144,l),
(282,144,l)
);
}
);
width = 546;
},
{
anchors = (
{
name = b.uni0327;
position = "{432, 0}";
},
{
name = t.uni0303;
position = "{271, 540}";
}
);
layerId = "389CED9B-F3EB-41FE-A5B1-A4D5AEA6A809";
shapes = (
{
closed = 1;
nodes = (
(313,280,l),
(390,525,l),
(528,525,l),
(326,-81,ls),
(313,-121,o),
(272,-174,o),
(210,-200,o),
(165,-200,qs),
(73,-200,l),
(73,-85,l),
(172,-85,l),
(190,-27,l),
(6,525,l),
(153,525,l),
(230,280,l),
(268,128,l),
(274,128,l)
);
}
);
width = 534;
},
{
anchors = (
{
name = b.uni0327;
position = "{432, 0}";
},
{
name = t.uni0303;
position = "{271, 540}";
}
);
layerId = "0B20A76F-6223-4F08-8632-D01C13B3F8D0";
shapes = (
{
closed = 1;
nodes = (
(278,165,l),
(403,516,l),
(482,516,l),
(251,-120,ls),
(240,-151,o),
(213,-186,o),
(169,-200,o),
(131,-200,qs),
(90,-200,l),
(90,-130,l),
(171,-130,l),
(210,-20,l),
(17,516,l),
(97,516,l),
(221,165,l),
(245,81,l),
(250,81,l)
);
}
);
width = 499;
},
{
anchors = (
{
name = b.uni0327;
position = "{396, 0}";
},
{
name = t.uni0303;
position = "{249, 540}";
}
);
layerId = "C5DA3672-7219-4097-B42A-B369F4569BEC";
shapes = (
{
closed = 1;
nodes = (
(291,194,l),
(406,506,l),
(427,506,l),
(172,-181,ls),
(170,-187,o),
(161,-196,o),
(149,-200,o),
(141,-200,qs),
(57,-200,l),
(57,-181,l),
(150,-181,l),
(216,-7,l),
(25,506,l),
(47,506,l),
(162,194,l),
(225,24,l),
(228,24,l)
);
}
);
width = 452;
}
);
leftKerningGroup = y2;
rightKerningGroup = y;
unicode = 121;
},
{
glyphname = z;
layers = (
{
anchors = (
{
name = b.uni0327;
position = "{259, 0}";
},
{
name = t.uni0303;
position = "{259, 540}";
}
);
layerId = "880420EB-584C-4B51-BB9F-151DBE095CD5";
shapes = (
{
closed = 1;
nodes = (
(495,0,l),
(41,0,l),
(41,134,l),
(291,398,l),
(50,398,l),
(50,528,l),
(488,528,l),
(488,393,l),
(239,130,l),
(495,130,l)
);
}
);
width = 536;
},
{
anchors = (
{
name = b.uni0327;
position = "{259, 0}";
},
{
name = t.uni0303;
position = "{259, 540}";
}
);
layerId = "389CED9B-F3EB-41FE-A5B1-A4D5AEA6A809";
shapes = (
{
closed = 1;
nodes = (
(479,0,l),
(39,0,l),
(39,117,l),
(300,410,l),
(48,410,l),
(48,525,l),
(472,525,l),
(472,409,l),
(210,115,l),
(479,115,l)
);
}
);
width = 518;
},
{
anchors = (
{
name = b.uni0327;
position = "{259, 0}";
},
{
name = t.uni0303;
position = "{259, 540}";
}
);
layerId = "0B20A76F-6223-4F08-8632-D01C13B3F8D0";
shapes = (
{
closed = 1;
nodes = (
(431,0,l),
(33,0,l),
(33,67,l),
(326,446,l),
(42,446,l),
(42,516,l),
(423,516,l),
(423,456,l),
(124,70,l),
(431,70,l)
);
}
);
width = 464;
},
{
anchors = (
{
name = b.uni0327;
position = "{236, 0}";
},
{
name = t.uni0303;
position = "{236, 540}";
}
);
layerId = "C5DA3672-7219-4097-B42A-B369F4569BEC";
shapes = (
{
closed = 1;
nodes = (
(396,0,l),
(27,0,l),
(27,21,l),
(364,487,l),
(37,487,l),
(37,506,l),
(386,506,l),
(386,485,l),
(49,19,l),
(396,19,l)
);
}
);
width = 417;
}
);
leftKerningGroup = z2;
rightKerningGroup = z;
unicode = 122;
},
{
glyphname = A;
layers = (
{
anchors = (
{
name = b.uni0327;
position = "{339, 0}";
},
{
name = b.uni0328;
position = "{665, 0}";
},
{
name = t.uni0303;
position = "{339, 698}";
}
);
layerId = "880420EB-584C-4B51-BB9F-151DBE095CD5";
shapes = (
{
closed = 1;
nodes = (
(681,0,l),
(499,0,l),
(456,153,l),
(239,153,l),
(196,0,l),
(19,0,l),
(244,698,l),
(459,698,l)
);
},
{
closed = 1;
nodes = (
(414,300,l),
(386,409,l),
(349,540,l),
(344,540,l),
(309,409,l),
(281,300,l)
);
}
);
width = 700;
},
{
anchors = (
{
name = b.uni0327;
position = "{339, 0}";
},
{
name = b.uni0328;
position = "{665, 0}";
},
{
name = t.uni0303;
position = "{339, 698}";
}
);
layerId = "389CED9B-F3EB-41FE-A5B1-A4D5AEA6A809";
shapes = (
{
closed = 1;
nodes = (
(665,0,l),
(507,0,l),
(457,166,l),
(224,166,l),
(174,0,l),
(20,0,l),
(250,698,l),
(438,698,l)
);
},
{
closed = 1;
nodes = (
(420,295,l),
(377,440,l),
(342,560,l),
(337,560,l),
(303,440,l),
(260,295,l)
);
}
);
width = 685;
},
{
anchors = (
{
name = b.uni0327;
position = "{339, 0}";
},
{
name = b.uni0328;
position = "{665, 0}";
},
{
name = t.uni0303;
position = "{339, 698}";
}
);
layerId = "0B20A76F-6223-4F08-8632-D01C13B3F8D0";
shapes = (
{
closed = 1;
nodes = (
(618,0,l),
(530,0,l),
(460,206,l),
(178,206,l),
(108,0,l),
(23,0,l),
(267,698,l),
(374,698,l)
);
},
{
closed = 1;
nodes = (
(439,280,l),
(351,533,l),
(321,620,l),
(316,620,l),
(286,533,l),
(198,280,l)
);
}
);
width = 641;
},
{
anchors = (
{
name = b.uni0327;
position = "{323, 0}";
},
{
name = b.uni0328;
position = "{615, 0}";
},
{
name = t.uni0303;
position = "{316, 698}";
}
);
layerId = "C5DA3672-7219-4097-B42A-B369F4569BEC";
shapes = (
{
closed = 1;
nodes = (
(568,0,l),
(545,0,l),
(460,234,l),
(140,234,l),
(55,0,l),
(32,0,l),
(285,698,l),
(315,698,l)
);
},
{
closed = 1;
nodes = (
(453,253,l),
(356,524,l),
(301,675,l),
(298,675,l),
(244,524,l),
(147,253,l)
);
}
);
width = 600;
}
);
leftKerningGroup = A2;
rightKerningGroup = A;
unicode = 65;
},
{
glyphname = B;
layers = (
{
anchors = (
{
name = b.uni0327;
position = "{353, 0}";
},
{
name = t.uni0303;
position = "{353, 698}";
}
);
layerId = "880420EB-584C-4B51-BB9F-151DBE095CD5";
shapes = (
{
closed = 1;
nodes = (
(72,0,l),
(72,698,l),
(428,698,ls),
(514,698,o),
(611,600,o),
(611,519,qs),
(611,466,o),
(577,400,o),
(516,370,o),
(476,369,q),
(476,363,l),
(503,363,o),
(559,345,o),
(609,307,o),
(639,243,o),
(639,198,qs),
(639,144,o),
(592,54,o),
(511,0,o),
(459,0,qs)
);
},
{
closed = 1;
nodes = (
(246,276,l),
(246,146,l),
(411,146,ls),
(425,146,o),
(447,158,o),
(459,179,o),
(459,194,qs),
(459,228,ls),
(459,243,o),
(447,264,o),
(425,276,o),
(411,276,qs)
);
},
{
closed = 1;
nodes = (
(246,552,l),
(246,417,l),
(383,417,ls),
(399,417,o),
(422,430,o),
(433,454,o),
(433,470,qs),
(433,499,ls),
(433,515,o),
(422,540,o),
(399,552,o),
(383,552,qs)
);
}
);
width = 672;
},
{
anchors = (
{
name = b.uni0327;
position = "{353, 0}";
},
{
name = t.uni0303;
position = "{353, 698}";
}
);
layerId = "389CED9B-F3EB-41FE-A5B1-A4D5AEA6A809";
shapes = (
{
closed = 1;
nodes = (
(77,0,l),
(77,698,l),
(416,698,ls),
(502,698,o),
(600,600,o),
(600,519,qs),
(600,466,o),
(565,401,o),
(506,371,o),
(470,369,q),
(470,363,l),
(495,363,o),
(549,345,o),
(597,307,o),
(627,244,o),
(627,199,qs),
(627,144,o),
(580,54,o),
(499,0,o),
(447,0,qs)
);
},
{
closed = 1;
nodes = (
(229,288,l),
(229,128,l),
(404,128,ls),
(424,128,o),
(453,143,o),
(469,171,o),
(469,191,qs),
(469,225,ls),
(469,245,o),
(453,273,o),
(424,288,o),
(404,288,qs)
);
},
{
closed = 1;
nodes = (
(229,570,l),
(229,412,l),
(380,412,ls),
(400,412,o),
(429,427,o),
(444,456,o),
(444,476,qs),
(444,506,ls),
(444,526,o),
(429,555,o),
(400,570,o),
(380,570,qs)
);
}
);
width = 667;
},
{
anchors = (
{
name = b.uni0327;
position = "{353, 0}";
},
{
name = t.uni0303;
position = "{353, 698}";
}
);
layerId = "0B20A76F-6223-4F08-8632-D01C13B3F8D0";
shapes = (
{
closed = 1;
nodes = (
(93,0,l),
(93,698,l),
(380,698,ls),
(466,698,o),
(566,600,o),
(566,518,qs),
(566,466,o),
(529,404,o),
(476,374,o),
(453,370,q),
(453,364,l),
(472,363,o),
(519,344,o),
(562,306,o),
(590,246,o),
(590,202,qs),
(590,145,o),
(543,53,o),
(462,0,o),
(410,0,qs)
);
},
{
closed = 1;
nodes = (
(177,324,l),
(177,74,l),
(384,74,ls),
(420,74,o),
(472,99,o),
(500,147,o),
(500,182,qs),
(500,216,ls),
(500,251,o),
(472,299,o),
(420,324,o),
(384,324,qs)
);
},
{
closed = 1;
nodes = (
(177,624,l),
(177,396,l),
(370,396,ls),
(403,396,o),
(450,419,o),
(476,462,o),
(476,493,qs),
(476,527,ls),
(476,558,o),
(450,601,o),
(403,624,o),
(370,624,qs)
);
}
);
width = 653;
},
{
anchors = (
{
name = b.uni0327;
position = "{345, 0}";
},
{
name = t.uni0303;
position = "{345, 698}";
}
);
layerId = "C5DA3672-7219-4097-B42A-B369F4569BEC";
shapes = (
{
closed = 1;
nodes = (
(108,0,l),
(108,698,l),
(360,698,ls),
(434,698,o),
(518,611,o),
(518,528,qs),
(518,485,o),
(495,422,o),
(451,381,o),
(420,371,q),
(420,369,l),
(453,363,o),
(501,333,o),
(534,287,o),
(550,226,o),
(550,189,qs),
(550,132,o),
(511,47,o),
(433,0,o),
(376,0,qs)
);
},
{
closed = 1;
nodes = (
(130,358,l),
(130,20,l),
(376,20,ls),
(428,20,o),
(494,62,o),
(526,130,o),
(526,168,qs),
(526,210,ls),
(526,248,o),
(494,316,o),
(428,358,o),
(376,358,qs)
);
},
{
closed = 1;
nodes = (
(130,678,l),
(130,378,l),
(360,378,ls),
(406,378,o),
(465,415,o),
(494,474,o),
(494,507,qs),
(494,549,ls),
(494,583,o),
(465,641,o),
(406,678,o),
(360,678,qs)
);
}
);
width = 615;
}
);
unicode = 66;
},
{
glyphname = C;
layers = (
{
anchors = (
{
name = b.uni0327;
position = "{335, 0}";
},
{
name = t.uni0303;
position = "{355, 698}";
}
);
layerId = "880420EB-584C-4B51-BB9F-151DBE095CD5";
shapes = (
{
closed = 1;
nodes = (
(270,-12,o),
(126,68,o),
(47,225,o),
(47,344,qs),
(47,462,o),
(126,625,o),
(270,710,o),
(366,710,qs),
(465,710,o),
(594,630,o),
(634,542,q),
(482,465,l),
(471,506,o),
(419,555,o),
(366,555,qs),
(306,555,o),
(232,483,o),
(232,408,qs),
(232,293,ls),
(232,219,o),
(306,143,o),
(366,143,qs),
(418,143,o),
(477,201,o),
(492,240,q),
(635,158,l),
(594,77,o),
(465,-12,o),
(366,-12,qs)
);
}
);
width = 661;
},
{
anchors = (
{
name = b.uni0327;
position = "{335, 0}";
},
{
name = t.uni0303;
position = "{355, 698}";
}
);
layerId = "389CED9B-F3EB-41FE-A5B1-A4D5AEA6A809";
shapes = (
{
closed = 1;
nodes = (
(265,-12,o),
(126,68,o),
(50,226,o),
(50,344,qs),
(50,462,o),
(126,625,o),
(265,710,o),
(359,710,qs),
(455,710,o),
(582,630,o),
(620,546,q),
(489,478,l),
(476,522,o),
(415,575,o),
(359,575,qs),
(292,575,o),
(211,488,o),
(211,405,qs),
(211,293,ls),
(211,211,o),
(292,123,o),
(359,123,qs),
(415,123,o),
(482,184,o),
(498,227,q),
(622,155,l),
(583,76,o),
(455,-12,o),
(359,-12,qs)
);
}
);
width = 651;
},
{
anchors = (
{
name = b.uni0327;
position = "{335, 0}";
},
{
name = t.uni0303;
position = "{355, 698}";
}
);
layerId = "0B20A76F-6223-4F08-8632-D01C13B3F8D0";
shapes = (
{
closed = 1;
nodes = (
(251,-12,o),
(125,69,o),
(58,228,o),
(58,345,qs),
(58,462,o),
(125,625,o),
(251,710,o),
(339,710,qs),
(426,710,o),
(546,630,o),
(579,557,q),
(511,516,l),
(490,570,o),
(404,635,o),
(339,635,qs),
(249,635,o),
(148,504,o),
(148,397,qs),
(148,293,ls),
(148,186,o),
(249,63,o),
(339,63,qs),
(406,63,o),
(496,132,o),
(517,189,q),
(584,147,l),
(551,74,o),
(426,-12,o),
(339,-12,qs)
);
}
);
width = 621;
},
{
anchors = (
{
name = b.uni0327;
position = "{326, 0}";
},
{
name = t.uni0303;
position = "{346, 698}";
}
);
layerId = "C5DA3672-7219-4097-B42A-B369F4569BEC";
shapes = (
{
closed = 1;
nodes = (
(247,-12,o),
(131,69,o),
(70,229,o),
(70,349,qs),
(70,469,o),
(131,630,o),
(247,710,o),
(329,710,qs),
(406,710,o),
(517,631,o),
(545,567,q),
(526,558,l),
(499,620,o),
(397,690,o),
(329,690,qs),
(220,690,o),
(94,531,o),
(94,370,qs),
(94,328,ls),
(94,167,o),
(220,8,o),
(329,8,qs),
(403,8,o),
(506,83,o),
(531,148,q),
(550,140,l),
(523,72,o),
(409,-12,o),
(329,-12,qs)
);
}
);
width = 610;
}
);
leftKerningGroup = C2;
rightKerningGroup = C;
unicode = 67;
},
{
glyphname = D;
layers = (
{
anchors = (
{
name = b.uni0327;
position = "{323, 0}";
},
{
name = t.uni0303;
position = "{323, 698}";
}
);
layerId = "880420EB-584C-4B51-BB9F-151DBE095CD5";
shapes = (
{
closed = 1;
nodes = (
(72,0,l),
(72,698,l),
(344,698,ls),
(439,698,o),
(580,620,o),
(658,465,o),
(658,349,qs),
(658,233,o),
(580,78,o),
(439,0,o),
(344,0,qs)
);
},
{
closed = 1;
nodes = (
(246,155,l),
(344,155,ls),
(385,155,o),
(444,183,o),
(474,246,o),
(474,296,qs),
(474,402,ls),
(474,454,o),
(444,514,o),
(385,543,o),
(344,543,qs),
(246,543,l)
);
}
);
width = 706;
},
{
anchors = (
{
name = b.uni0327;
position = "{323, 0}";
},
{
name = t.uni0303;
position = "{323, 698}";
}
);
layerId = "389CED9B-F3EB-41FE-A5B1-A4D5AEA6A809";
shapes = (
{
closed = 1;
nodes = (
(77,0,l),
(77,698,l),
(340,698,ls),
(433,698,o),
(571,620,o),
(647,465,o),
(647,349,qs),
(647,233,o),
(571,78,o),
(433,0,o),
(340,0,qs)
);
},
{
closed = 1;
nodes = (
(229,135,l),
(340,135,ls),
(385,135,o),
(451,169,o),
(486,240,o),
(486,295,qs),
(486,403,ls),
(486,459,o),
(451,529,o),
(385,563,o),
(340,563,qs),
(229,563,l)
);
}
);
width = 697;
},
{
anchors = (
{
name = b.uni0327;
position = "{323, 0}";
},
{
name = t.uni0303;
position = "{323, 698}";
}
);
layerId = "0B20A76F-6223-4F08-8632-D01C13B3F8D0";
shapes = (
{
closed = 1;
nodes = (
(93,0,l),
(93,698,l),
(327,698,ls),
(414,698,o),
(543,621,o),
(613,466,o),
(613,349,qs),
(613,232,o),
(543,77,o),
(414,0,o),
(327,0,qs)
);
},
{
closed = 1;
nodes = (
(177,74,l),
(327,74,ls),
(385,74,o),
(473,126,o),
(523,223,o),
(523,292,qs),
(523,406,ls),
(523,475,o),
(473,573,o),
(385,624,o),
(327,624,qs),
(177,624,l)
);
}
);
width = 671;
},
{
anchors = (
{
name = b.uni0327;
position = "{315, 0}";
},
{
name = t.uni0303;
position = "{315, 698}";
}
);
layerId = "C5DA3672-7219-4097-B42A-B369F4569BEC";
shapes = (
{
closed = 1;
nodes = (
(108,0,l),
(108,698,l),
(312,698,ls),
(405,698,o),
(528,620,o),
(588,465,o),
(588,349,qs),
(588,234,o),
(528,78,o),
(405,0,o),
(312,0,qs)
);
},
{
closed = 1;
nodes = (
(130,20,l),
(313,20,ls),
(400,20,o),
(511,94,o),
(564,229,o),
(564,319,qs),
(564,379,ls),
(564,470,o),
(511,604,o),
(400,678,o),
(313,678,qs),
(130,678,l)
);
}
);
width = 658;
}
);
rightKerningGroup = D;
unicode = 68;
},
{
glyphname = E;
layers = (
{
anchors = (
{
name = b.uni0327;
position = "{315, 0}";
},
{
name = b.uni0328;
position = "{552, 0}";
},
{
name = t.uni0303;
position = "{315, 698}";
}
);
layerId = "880420EB-584C-4B51-BB9F-151DBE095CD5";
shapes = (
{
closed = 1;
nodes = (
(563,0,l),
(72,0,l),
(72,698,l),
(563,698,l),
(563,543,l),
(246,543,l),
(246,430,l),
(508,430,l),
(508,276,l),
(246,276,l),
(246,155,l),
(563,155,l)
);
}
);
width = 615;
},
{
anchors = (
{
name = b.uni0327;
position = "{315, 0}";
},
{
name = b.uni0328;
position = "{552, 0}";
},
{
name = t.uni0303;
position = "{315, 698}";
}
);
layerId = "389CED9B-F3EB-41FE-A5B1-A4D5AEA6A809";
shapes = (
{
closed = 1;
nodes = (
(552,0,l),
(77,0,l),
(77,698,l),
(552,698,l),
(552,563,l),
(229,563,l),
(229,420,l),
(506,420,l),
(506,286,l),
(229,286,l),
(229,135,l),
(552,135,l)
);
}
);
width = 607;
},
{
anchors = (
{
name = b.uni0327;
position = "{315, 0}";
},
{
name = b.uni0328;
position = "{552, 0}";
},
{
name = t.uni0303;
position = "{315, 698}";
}
);
layerId = "0B20A76F-6223-4F08-8632-D01C13B3F8D0";
shapes = (
{
closed = 1;
nodes = (
(519,0,l),
(93,0,l),
(93,698,l),
(519,698,l),
(519,624,l),
(177,624,l),
(177,390,l),
(499,390,l),
(499,316,l),
(177,316,l),
(177,74,l),
(519,74,l)
);
}
);
width = 583;
},
{
anchors = (
{
name = b.uni0327;
position = "{310, 0}";
},
{
name = b.uni0328;
position = "{522, 0}";
},
{
name = t.uni0303;
position = "{310, 698}";
}
);
layerId = "C5DA3672-7219-4097-B42A-B369F4569BEC";
shapes = (
{
closed = 1;
nodes = (
(489,0,l),
(108,0,l),
(108,698,l),
(489,698,l),
(489,678,l),
(130,678,l),
(130,364,l),
(477,364,l),
(477,344,l),
(130,344,l),
(130,20,l),
(489,20,l)
);
}
);
width = 561;
}
);
rightKerningGroup = E;
unicode = 69;
},
{
glyphname = F;
layers = (
{
anchors = (
{
name = b.uni0327;
position = "{153, 0}";
},
{
name = t.uni0303;
position = "{309, 698}";
}
);
layerId = "880420EB-584C-4B51-BB9F-151DBE095CD5";
shapes = (
{
closed = 1;
nodes = (
(246,0,l),
(72,0,l),
(72,698,l),
(550,698,l),
(550,543,l),
(246,543,l),
(246,430,l),
(499,430,l),
(499,276,l),
(246,276,l)
);
}
);
width = 594;
},
{
anchors = (
{
name = b.uni0327;
position = "{153, 0}";
},
{
name = t.uni0303;
position = "{309, 698}";
}
);
layerId = "389CED9B-F3EB-41FE-A5B1-A4D5AEA6A809";
shapes = (
{
closed = 1;
nodes = (
(229,0,l),
(77,0,l),
(77,698,l),
(540,698,l),
(540,563,l),
(229,563,l),
(229,420,l),
(494,420,l),
(494,286,l),
(229,286,l)
);
}
);
width = 585;
},
{
anchors = (
{
name = b.uni0327;
position = "{153, 0}";
},
{
name = t.uni0303;
position = "{309, 698}";
}
);
layerId = "0B20A76F-6223-4F08-8632-D01C13B3F8D0";
shapes = (
{
closed = 1;
nodes = (
(177,0,l),
(93,0,l),
(93,698,l),
(509,698,l),
(509,624,l),
(177,624,l),
(177,390,l),
(480,390,l),
(480,316,l),
(177,316,l)
);
}
);
width = 559;
},
{
anchors = (
{
name = b.uni0327;
position = "{135, 0}";
},
{
name = t.uni0303;
position = "{302, 698}";
}
);
layerId = "C5DA3672-7219-4097-B42A-B369F4569BEC";
shapes = (
{
closed = 1;
nodes = (
(130,0,l),
(108,0,l),
(108,698,l),
(481,698,l),
(481,678,l),
(130,678,l),
(130,364,l),
(467,364,l),
(467,344,l),
(130,344,l)
);
}
);
width = 535;
}
);
unicode = 70;
},
{
glyphname = G;
layers = (
{
layerId = "880420EB-584C-4B51-BB9F-151DBE095CD5";
shapes = (
{
closed = 1;
nodes = (
(35,468,o),
(123,630,o),
(271,710,o),
(361,710,qs),
(427,710,o),
(521,676,o),
(585,623,o),
(624,566,o),
(641,537,q),
(485,469,l),
(477,495,o),
(447,532,o),
(399,558,o),
(366,558,qs),
(322,558,o),
(264,517,o),
(234,448,o),
(234,409,qs),
(234,290,ls),
(234,240,o),
(260,179,o),
(297,150,o),
(338,140,o),
(355,140,qs),
(384,140,o),
(434,161,o),
(470,204,o),
(470,242,qs),
(470,256,l),
(313,256,l),
(313,407,l),
(649,407,l),
(649,242,ls),
(649,174,o),
(590,78,o),
(495,17,o),
(390,-12,o),
(342,-12,qs),
(280,-12,o),
(182,26,o),
(109,97,o),
(60,185,o),
(35,292,o),
(35,349,qs)
);
}
);
width = 683;
},
{
layerId = "389CED9B-F3EB-41FE-A5B1-A4D5AEA6A809";
shapes = (
{
closed = 1;
nodes = (
(39,468,o),
(122,630,o),
(266,710,o),
(356,710,qs),
(418,710,o),
(508,679,o),
(572,629,o),
(613,572,o),
(630,541,q),
(495,479,l),
(486,507,o),
(452,549,o),
(398,577,o),
(360,577,qs),
(311,577,o),
(245,532,o),
(211,455,o),
(211,409,qs),
(211,290,ls),
(211,240,o),
(237,174,o),
(278,137,o),
(328,121,o),
(353,121,qs),
(389,121,o),
(447,147,o),
(484,199,o),
(484,241,qs),
(484,262,l),
(319,262,l),
(319,395,l),
(640,395,l),
(640,246,ls),
(640,175,o),
(582,77,o),
(490,16,o),
(387,-12,o),
(340,-12,qs),
(282,-12,o),
(187,23,o),
(115,89,o),
(65,177,o),
(39,287,o),
(39,349,qs)
);
}
);
width = 681;
},
{
layerId = "0B20A76F-6223-4F08-8632-D01C13B3F8D0";
shapes = (
{
closed = 1;
nodes = (
(50,469,o),
(119,630,o),
(250,710,o),
(342,710,qs),
(391,710,o),
(470,687,o),
(534,646,o),
(581,589,o),
(596,553,q),
(526,510,l),
(514,544,o),
(468,601,o),
(395,634,o),
(342,634,qs),
(278,634,o),
(189,577,o),
(143,476,o),
(143,408,qs),
(143,291,ls),
(143,241,o),
(168,158,o),
(220,97,o),
(297,64,o),
(348,64,qs),
(405,64,o),
(485,106,o),
(527,184,o),
(527,237,qs),
(527,281,l),
(337,281,l),
(337,359,l),
(612,359,l),
(612,257,ls),
(612,177,o),
(559,73,o),
(475,13,o),
(379,-12,o),
(335,-12,qs),
(289,-12,o),
(203,13,o),
(133,66,o),
(79,152,o),
(50,271,o),
(50,349,qs)
);
}
);
width = 676;
},
{
layerId = "C5DA3672-7219-4097-B42A-B369F4569BEC";
shapes = (
{
closed = 1;
nodes = (
(63,472,o),
(128,633,o),
(247,710,o),
(329,710,qs),
(371,710,o),
(442,689,o),
(500,651,o),
(542,601,o),
(556,571,q),
(536,562,l),
(515,609,o),
(449,665,o),
(369,689,o),
(329,689,qs),
(259,689,o),
(149,623,o),
(88,482,o),
(88,371,qs),
(88,327,ls),
(88,241,o),
(126,119,o),
(193,44,o),
(280,9,o),
(330,9,qs),
(390,9,o),
(490,52,o),
(550,138,o),
(550,202,qs),
(550,312,l),
(328,312,l),
(328,332,l),
(573,332,l),
(573,202,ls),
(573,154,o),
(539,74,o),
(475,18,o),
(386,-12,o),
(330,-12,qs),
(280,-12,o),
(196,16,o),
(131,73,o),
(87,160,o),
(63,276,o),
(63,349,qs)
);
}
);
width = 644;
}
);
leftKerningGroup = C2;
rightKerningGroup = G;
unicode = 71;
},
{
glyphname = H;
layers = (
{
anchors = (
{
name = b.uni0327;
position = "{362, 0}";
},
{
name = t.uni0303;
position = "{362, 698}";
}
);
layerId = "880420EB-584C-4B51-BB9F-151DBE095CD5";
shapes = (
{
closed = 1;
nodes = (
(483,0,l),
(483,276,l),
(246,276,l),
(246,0,l),
(72,0,l),
(72,698,l),
(246,698,l),
(246,430,l),
(483,430,l),
(483,698,l),
(658,698,l),
(658,0,l)
);
}
);
width = 730;
},
{
anchors = (
{
name = b.uni0327;
position = "{362, 0}";
},
{
name = t.uni0303;
position = "{362, 698}";
}
);
layerId = "389CED9B-F3EB-41FE-A5B1-A4D5AEA6A809";
shapes = (
{
closed = 1;
nodes = (
(495,0,l),
(495,286,l),
(229,286,l),
(229,0,l),
(77,0,l),
(77,698,l),
(229,698,l),
(229,420,l),
(495,420,l),
(495,698,l),
(647,698,l),
(647,0,l)
);
}
);
width = 724;
},
{
anchors = (
{
name = b.uni0327;
position = "{362, 0}";
},
{
name = t.uni0303;
position = "{362, 698}";
}
);
layerId = "0B20A76F-6223-4F08-8632-D01C13B3F8D0";
shapes = (
{
closed = 1;
nodes = (
(530,0,l),
(530,316,l),
(177,316,l),
(177,0,l),
(93,0,l),
(93,698,l),
(177,698,l),
(177,390,l),
(530,390,l),
(530,698,l),
(614,698,l),
(614,0,l)
);
}
);
width = 707;
},
{
anchors = (
{
name = b.uni0327;
position = "{354, 0}";
},
{
name = t.uni0303;
position = "{354, 698}";
}
);
layerId = "C5DA3672-7219-4097-B42A-B369F4569BEC";
shapes = (
{
closed = 1;
nodes = (
(562,0,l),
(562,344,l),
(130,344,l),
(130,0,l),
(108,0,l),
(108,698,l),
(130,698,l),
(130,364,l),
(562,364,l),
(562,698,l),
(584,698,l),
(584,0,l)
);
}
);
width = 692;
}
);
unicode = 72;
},
{
glyphname = I;
layers = (
{
layerId = "880420EB-584C-4B51-BB9F-151DBE095CD5";
shapes = (
{
closed = 1;
nodes = (
(72,0,l),
(72,698,l),
(246,698,l),
(246,0,l)
);
}
);
width = 318;
},
{
layerId = "389CED9B-F3EB-41FE-A5B1-A4D5AEA6A809";
shapes = (
{
closed = 1;
nodes = (
(77,0,l),
(77,698,l),
(229,698,l),
(229,0,l)
);
}
);
width = 306;
},
{
layerId = "0B20A76F-6223-4F08-8632-D01C13B3F8D0";
shapes = (
{
closed = 1;
nodes = (
(93,0,l),
(93,698,l),
(177,698,l),
(177,0,l)
);
}
);
width = 270;
},
{
layerId = "C5DA3672-7219-4097-B42A-B369F4569BEC";
shapes = (
{
closed = 1;
nodes = (
(108,0,l),
(108,698,l),
(130,698,l),
(130,0,l)
);
}
);
width = 238;
}
);
leftKerningGroup = I2;
rightKerningGroup = I;
unicode = 73;
},
{
glyphname = J;
layers = (
{
anchors = (
{
name = b.uni0327;
position = "{256, 0}";
},
{
name = t.uni0303;
position = "{303, 698}";
}
);
layerId = "880420EB-584C-4B51-BB9F-151DBE095CD5";
shapes = (
{
closed = 1;
nodes = (
(333,698,l),
(507,698,l),
(507,209,ls),
(507,143,o),
(451,44,o),
(344,-11,o),
(267,-11,qs),
(157,-11,o),
(39,104,o),
(24,198,q),
(188,229,l),
(195,185,o),
(235,142,o),
(264,142,qs),
(290,142,o),
(333,176,o),
(333,213,qs)
);
}
);
width = 575;
},
{
anchors = (
{
name = b.uni0327;
position = "{256, 0}";
},
{
name = t.uni0303;
position = "{303, 698}";
}
);
layerId = "389CED9B-F3EB-41FE-A5B1-A4D5AEA6A809";
shapes = (
{
closed = 1;
nodes = (
(334,698,l),
(486,698,l),
(486,202,ls),
(486,138,o),
(431,42,o),
(328,-11,o),
(256,-11,qs),
(153,-11,o),
(40,97,o),
(25,185,q),
(167,213,l),
(175,169,o),
(219,122,o),
(254,122,qs),
(287,122,o),
(334,164,o),
(334,209,qs)
);
}
);
width = 559;
},
{
anchors = (
{
name = b.uni0327;
position = "{256, 0}";
},
{
name = t.uni0303;
position = "{303, 698}";
}
);
layerId = "0B20A76F-6223-4F08-8632-D01C13B3F8D0";
shapes = (
{
closed = 1;
nodes = (
(338,698,l),
(422,698,l),
(422,181,ls),
(422,122,o),
(371,35,o),
(281,-12,o),
(222,-12,qs),
(141,-12,o),
(42,76,o),
(28,147,q),
(104,165,l),
(114,120,o),
(171,63,o),
(224,63,qs),
(278,63,o),
(338,129,o),
(338,196,qs)
);
}
);
width = 510;
},
{
anchors = (
{
name = b.uni0327;
position = "{223, 0}";
},
{
name = t.uni0303;
position = "{272, 698}";
}
);
layerId = "C5DA3672-7219-4097-B42A-B369F4569BEC";
shapes = (
{
closed = 1;
nodes = (
(342,698,l),
(364,698,l),
(364,183,ls),
(364,119,o),
(323,32,o),
(246,-12,o),
(192,-12,qs),
(130,-12,o),
(36,58,o),
(22,113,q),
(41,119,l),
(55,72,o),
(134,8,o),
(192,8,qs),
(267,8,o),
(342,99,o),
(342,183,qs)
);
}
);
width = 464;
}
);
leftKerningGroup = J2;
rightKerningGroup = J;
unicode = 74;
},
{
glyphname = K;
layers = (
{
anchors = (
{
name = b.uni0327;
position = "{358, 0}";
},
{
name = t.uni0303;
position = "{358, 698}";
}
);
layerId = "880420EB-584C-4B51-BB9F-151DBE095CD5";
shapes = (
{
closed = 1;
nodes = (
(504,0,l),
(335,291,l),
(246,181,l),
(246,0,l),
(72,0,l),
(72,698,l),
(246,698,l),
(246,519,l),
(246,379,l),
(253,379,l),
(352,519,l),
(491,698,l),
(686,698,l),
(459,415,l),
(708,0,l)
);
}
);
width = 717;
},
{
anchors = (
{
name = b.uni0327;
position = "{358, 0}";
},
{
name = t.uni0303;
position = "{358, 698}";
}
);
layerId = "389CED9B-F3EB-41FE-A5B1-A4D5AEA6A809";
shapes = (
{
closed = 1;
nodes = (
(505,0,l),
(320,304,l),
(229,194,l),
(229,0,l),
(77,0,l),
(77,698,l),
(229,698,l),
(229,501,l),
(229,366,l),
(235,366,l),
(334,501,l),
(491,698,l),
(663,698,l),
(428,411,l),
(684,0,l)
);
}
);
width = 696;
},
{
anchors = (
{
name = b.uni0327;
position = "{358, 0}";
},
{
name = t.uni0303;
position = "{358, 698}";
}
);
layerId = "0B20A76F-6223-4F08-8632-D01C13B3F8D0";
shapes = (
{
closed = 1;
nodes = (
(508,0,l),
(276,343,l),
(177,233,l),
(177,0,l),
(93,0,l),
(93,698,l),
(177,698,l),
(177,448,l),
(177,327,l),
(180,327,l),
(280,448,l),
(491,698,l),
(594,698,l),
(334,399,l),
(612,0,l)
);
}
);
width = 634;
},
{
anchors = (
{
name = b.uni0327;
position = "{336, 0}";
},
{
name = t.uni0303;
position = "{350, 698}";
}
);
layerId = "C5DA3672-7219-4097-B42A-B369F4569BEC";
shapes = (
{
closed = 1;
nodes = (
(526,0,l),
(265,387,l),
(130,239,l),
(130,0,l),
(108,0,l),
(108,698,l),
(130,698,l),
(130,413,l),
(130,271,l),
(132,271,l),
(262,413,l),
(521,698,l),
(549,698,l),
(280,403,l),
(552,0,l)
);
}
);
width = 572;
}
);
rightKerningGroup = K;
unicode = 75;
},
{
glyphname = L;
layers = (
{
anchors = (
{
name = b.uni0327;
position = "{286, 0}";
},
{
name = t.uni0303;
position = "{153, 698}";
},
{
name = t.uni0315;
position = "{301, 740}";
}
);
layerId = "880420EB-584C-4B51-BB9F-151DBE095CD5";
shapes = (
{
closed = 1;
nodes = (
(502,0,l),
(72,0,l),
(72,698,l),
(246,698,l),
(246,155,l),
(502,155,l)
);
}
);
width = 540;
},
{
anchors = (
{
name = b.uni0327;
position = "{286, 0}";
},
{
name = t.uni0303;
position = "{153, 698}";
},
{
name = t.uni0315;
position = "{301, 740}";
}
);
layerId = "389CED9B-F3EB-41FE-A5B1-A4D5AEA6A809";
shapes = (
{
closed = 1;
nodes = (
(495,0,l),
(77,0,l),
(77,698,l),
(229,698,l),
(229,135,l),
(495,135,l)
);
}
);
width = 530;
},
{
anchors = (
{
name = b.uni0327;
position = "{286, 0}";
},
{
name = t.uni0303;
position = "{153, 698}";
},
{
name = t.uni0315;
position = "{301, 740}";
}
);
layerId = "0B20A76F-6223-4F08-8632-D01C13B3F8D0";
shapes = (
{
closed = 1;
nodes = (
(474,0,l),
(93,0,l),
(93,698,l),
(177,698,l),
(177,74,l),
(474,74,l)
);
}
);
width = 501;
},
{
anchors = (
{
name = b.uni0327;
position = "{280, 0}";
},
{
name = t.uni0303;
position = "{137, 698}";
},
{
name = t.uni0315;
position = "{276, 740}";
}
);
layerId = "C5DA3672-7219-4097-B42A-B369F4569BEC";
shapes = (
{
closed = 1;
nodes = (
(455,0,l),
(108,0,l),
(108,698,l),
(130,698,l),
(130,20,l),
(455,20,l)
);
}
);
width = 475;
}
);
rightKerningGroup = L;
unicode = 76;
},
{
glyphname = M;
layers = (
{
anchors = (
{
name = b.uni0327;
position = "{409, 0}";
},
{
name = t.uni0303;
position = "{409, 698}";
}
);
layerId = "880420EB-584C-4B51-BB9F-151DBE095CD5";
shapes = (
{
closed = 1;
nodes = (
(72,0,l),
(72,698,l),
(249,698,l),
(329,543,l),
(410,387,l),
(411,387,l),
(491,543,l),
(570,698,l),
(750,698,l),
(750,0,l),
(586,0,l),
(586,310,l),
(586,415,l),
(584,415,l),
(536,318,l),
(410,90,l),
(288,316,l),
(237,424,l),
(235,424,l),
(235,310,l),
(235,0,l)
);
}
);
width = 821;
},
{
anchors = (
{
name = b.uni0327;
position = "{409, 0}";
},
{
name = t.uni0303;
position = "{409, 698}";
}
);
layerId = "389CED9B-F3EB-41FE-A5B1-A4D5AEA6A809";
shapes = (
{
closed = 1;
nodes = (
(77,0,l),
(77,698,l),
(238,698,l),
(331,520,l),
(409,371,l),
(411,371,l),
(488,520,l),
(580,698,l),
(742,698,l),
(742,0,l),
(599,0,l),
(599,350,l),
(599,458,l),
(596,458,l),
(545,356,l),
(409,109,l),
(276,355,l),
(223,465,l),
(220,465,l),
(220,350,l),
(220,0,l)
);
}
);
width = 819;
},
{
anchors = (
{
name = b.uni0327;
position = "{409, 0}";
},
{
name = t.uni0303;
position = "{409, 698}";
}
);
layerId = "0B20A76F-6223-4F08-8632-D01C13B3F8D0";
shapes = (
{
closed = 1;
nodes = (
(93,0,l),
(93,698,l),
(205,698,l),
(337,451,l),
(405,322,l),
(410,322,l),
(479,451,l),
(611,698,l),
(719,698,l),
(719,0,l),
(637,0,l),
(637,471,l),
(637,588,l),
(632,588,l),
(573,471,l),
(406,167,l),
(239,471,l),
(180,588,l),
(175,588,l),
(175,471,l),
(175,0,l)
);
}
);
width = 812;
},
{
anchors = (
{
name = b.uni0327;
position = "{401, 0}";
},
{
name = t.uni0303;
position = "{401, 698}";
}
);
layerId = "C5DA3672-7219-4097-B42A-B369F4569BEC";
shapes = (
{
closed = 1;
nodes = (
(108,0,l),
(108,698,l),
(141,698,l),
(299,438,l),
(397,278,l),
(400,278,l),
(497,438,l),
(655,698,l),
(688,698,l),
(688,0,l),
(667,0,l),
(667,504,l),
(667,673,l),
(664,673,l),
(561,504,l),
(398,236,l),
(235,504,l),
(132,673,l),
(129,673,l),
(129,504,l),
(129,0,l)
);
}
);
width = 796;
}
);
unicode = 77;
},
{
glyphname = N;
layers = (
{
anchors = (
{
name = b.uni0327;
position = "{361, 0}";
},
{
name = t.uni0303;
position = "{361, 698}";
}
);
layerId = "880420EB-584C-4B51-BB9F-151DBE095CD5";
shapes = (
{
closed = 1;
nodes = (
(469,0,l),
(299,298,l),
(238,433,l),
(235,433,l),
(235,290,l),
(235,0,l),
(72,0,l),
(72,698,l),
(261,698,l),
(430,400,l),
(492,265,l),
(495,265,l),
(495,408,l),
(495,698,l),
(658,698,l),
(658,0,l)
);
}
);
width = 730;
},
{
anchors = (
{
name = b.uni0327;
position = "{361, 0}";
},
{
name = t.uni0303;
position = "{361, 698}";
}
);
layerId = "389CED9B-F3EB-41FE-A5B1-A4D5AEA6A809";
shapes = (
{
closed = 1;
nodes = (
(481,0,l),
(290,330,l),
(223,470,l),
(220,470,l),
(220,324,l),
(220,0,l),
(77,0,l),
(77,698,l),
(243,698,l),
(434,368,l),
(501,228,l),
(504,228,l),
(504,374,l),
(504,698,l),
(647,698,l),
(647,0,l)
);
}
);
width = 724;
},
{
anchors = (
{
name = b.uni0327;
position = "{361, 0}";
},
{
name = t.uni0303;
position = "{361, 698}";
}
);
layerId = "0B20A76F-6223-4F08-8632-D01C13B3F8D0";
shapes = (
{
closed = 1;
nodes = (
(517,0,l),
(262,426,l),
(178,581,l),
(175,581,l),
(175,426,l),
(175,0,l),
(93,0,l),
(93,698,l),
(190,698,l),
(445,272,l),
(529,117,l),
(532,117,l),
(532,272,l),
(532,698,l),
(614,698,l),
(614,0,l)
);
}
);
width = 707;
},
{
anchors = (
{
name = b.uni0327;
position = "{354, 0}";
},
{
name = t.uni0303;
position = "{354, 698}";
}
);
layerId = "C5DA3672-7219-4097-B42A-B369F4569BEC";
shapes = (
{
closed = 1;
nodes = (
(552,0,l),
(239,501,l),
(132,671,l),
(129,671,l),
(129,501,l),
(129,0,l),
(108,0,l),
(108,698,l),
(140,698,l),
(454,197,l),
(560,27,l),
(563,27,l),
(563,197,l),
(563,698,l),
(584,698,l),
(584,0,l)
);
}
);
width = 692;
}
);
unicode = 78;
},
{
glyphname = O;
layers = (
{
anchors = (
{
name = b.uni0327;
position = "{357, 0}";
},
{
name = t.uni0303;
position = "{357, 698}";
}
);
layerId = "880420EB-584C-4B51-BB9F-151DBE095CD5";
shapes = (
{
closed = 1;
nodes = (
(265,-12,o),
(124,70,o),
(47,231,o),
(47,349,qs),
(47,469,o),
(124,628,o),
(265,710,o),
(358,710,qs),
(452,710,o),
(592,628,o),
(669,469,o),
(669,349,qs),
(669,231,o),
(592,70,o),
(452,-12,o),
(358,-12,qs)
);
},
{
closed = 1;
nodes = (
(399,143,o),
(455,179,o),
(484,249,o),
(484,299,qs),
(484,399,ls),
(484,451,o),
(455,519,o),
(399,555,o),
(358,555,qs),
(318,555,o),
(261,519,o),
(232,451,o),
(232,399,qs),
(232,299,ls),
(232,249,o),
(261,179,o),
(318,143,o),
(358,143,qs)
);
}
);
width = 716;
},
{
anchors = (
{
name = b.uni0327;
position = "{357, 0}";
},
{
name = t.uni0303;
position = "{357, 698}";
}
);
layerId = "389CED9B-F3EB-41FE-A5B1-A4D5AEA6A809";
shapes = (
{
closed = 1;
nodes = (
(265,-12,o),
(126,70,o),
(50,231,o),
(50,349,qs),
(50,468,o),
(126,628,o),
(265,710,o),
(357,710,qs),
(450,710,o),
(588,628,o),
(664,468,o),
(664,349,qs),
(664,231,o),
(588,70,o),
(450,-12,o),
(357,-12,qs)
);
},
{
closed = 1;
nodes = (
(403,123,o),
(468,164,o),
(503,242,o),
(503,297,qs),
(503,401,ls),
(503,457,o),
(468,534,o),
(403,575,o),
(357,575,qs),
(312,575,o),
(246,534,o),
(211,457,o),
(211,401,qs),
(211,297,ls),
(211,242,o),
(246,164,o),
(312,123,o),
(357,123,qs)
);
}
);
width = 714;
},
{
anchors = (
{
name = b.uni0327;
position = "{357, 0}";
},
{
name = t.uni0303;
position = "{357, 698}";
}
);
layerId = "0B20A76F-6223-4F08-8632-D01C13B3F8D0";
shapes = (
{
closed = 1;
nodes = (
(264,-12,o),
(131,71,o),
(58,232,o),
(58,349,qs),
(58,466,o),
(131,627,o),
(264,710,o),
(354,710,qs),
(444,710,o),
(577,627,o),
(650,466,o),
(650,349,qs),
(650,232,o),
(577,71,o),
(444,-12,o),
(354,-12,qs)
);
},
{
closed = 1;
nodes = (
(415,63,o),
(507,120,o),
(560,222,o),
(560,291,qs),
(560,407,ls),
(560,476,o),
(507,579,o),
(415,635,o),
(354,635,qs),
(294,635,o),
(201,579,o),
(148,476,o),
(148,407,qs),
(148,291,ls),
(148,222,o),
(201,120,o),
(294,63,o),
(354,63,qs)
);
}
);
width = 708;
},
{
anchors = (
{
name = b.uni0327;
position = "{343, 0}";
},
{
name = t.uni0303;
position = "{343, 698}";
}
);
layerId = "C5DA3672-7219-4097-B42A-B369F4569BEC";
shapes = (
{
closed = 1;
nodes = (
(253,-12,o),
(133,69,o),
(70,229,o),
(70,349,qs),
(70,469,o),
(133,630,o),
(253,710,o),
(340,710,qs),
(427,710,o),
(547,630,o),
(610,469,o),
(610,349,qs),
(610,229,o),
(547,69,o),
(427,-12,o),
(340,-12,qs)
);
},
{
closed = 1;
nodes = (
(417,8,o),
(527,80,o),
(586,223,o),
(586,328,qs),
(586,370,ls),
(586,476,o),
(527,618,o),
(417,690,o),
(340,690,qs),
(264,690,o),
(153,618,o),
(94,476,o),
(94,370,qs),
(94,328,ls),
(94,223,o),
(153,80,o),
(264,8,o),
(340,8,qs)
);
}
);
width = 680;
}
);
leftKerningGroup = C2;
rightKerningGroup = O;
unicode = 79;
},
{
glyphname = P;
layers = (
{
anchors = (
{
name = b.uni0327;
position = "{153, 0}";
},
{
name = t.uni0303;
position = "{324, 698}";
}
);
layerId = "880420EB-584C-4B51-BB9F-151DBE095CD5";
shapes = (
{
closed = 1;
nodes = (
(246,0,l),
(72,0,l),
(72,698,l),
(419,698,ls),
(485,698,o),
(582,640,o),
(637,535,o),
(637,467,qs),
(637,400,o),
(582,296,o),
(485,237,o),
(419,237,qs),
(246,237,l)
);
},
{
closed = 1;
nodes = (
(246,547,l),
(246,388,l),
(395,388,ls),
(415,388,o),
(442,402,o),
(457,428,o),
(457,447,qs),
(457,488,ls),
(457,508,o),
(442,533,o),
(415,547,o),
(395,547,qs)
);
}
);
width = 673;
},
{
anchors = (
{
name = b.uni0327;
position = "{153, 0}";
},
{
name = t.uni0303;
position = "{324, 698}";
}
);
layerId = "389CED9B-F3EB-41FE-A5B1-A4D5AEA6A809";
shapes = (
{
closed = 1;
nodes = (
(229,0,l),
(77,0,l),
(77,698,l),
(407,698,ls),
(472,698,o),
(567,642,o),
(619,541,o),
(619,475,qs),
(619,409,o),
(567,309,o),
(472,252,o),
(407,252,qs),
(229,252,l)
);
},
{
closed = 1;
nodes = (
(229,566,l),
(229,384,l),
(389,384,ls),
(412,384,o),
(444,400,o),
(462,431,o),
(462,453,qs),
(462,497,ls),
(462,520,o),
(444,550,o),
(412,566,o),
(389,566,qs)
);
}
);
width = 656;
},
{
anchors = (
{
name = b.uni0327;
position = "{153, 0}";
},
{
name = t.uni0303;
position = "{324, 698}";
}
);
layerId = "0B20A76F-6223-4F08-8632-D01C13B3F8D0";
shapes = (
{
closed = 1;
nodes = (
(177,0,l),
(93,0,l),
(93,698,l),
(371,698,ls),
(434,698,o),
(521,649,o),
(566,560,o),
(566,498,qs),
(566,437,o),
(521,347,o),
(434,298,o),
(371,298,qs),
(177,298,l)
);
},
{
closed = 1;
nodes = (
(177,624,l),
(177,372,l),
(371,372,ls),
(404,372,o),
(451,395,o),
(476,440,o),
(476,472,qs),
(476,524,ls),
(476,556,o),
(451,601,o),
(404,624,o),
(371,624,qs)
);
}
);
width = 606;
},
{
anchors = (
{
name = b.uni0327;
position = "{136, 0}";
},
{
name = t.uni0303;
position = "{334, 698}";
}
);
layerId = "C5DA3672-7219-4097-B42A-B369F4569BEC";
shapes = (
{
closed = 1;
nodes = (
(130,0,l),
(108,0,l),
(108,698,l),
(376,698,ls),
(433,698,o),
(511,652,o),
(550,567,o),
(550,510,qs),
(550,453,o),
(511,368,o),
(433,322,o),
(376,322,qs),
(130,322,l)
);
},
{
closed = 1;
nodes = (
(130,678,l),
(130,342,l),
(376,342,ls),
(428,342,o),
(494,384,o),
(526,451,o),
(526,489,qs),
(526,531,ls),
(526,569,o),
(494,636,o),
(428,678,o),
(376,678,qs)
);
}
);
width = 594;
}
);
unicode = 80;
},
{
glyphname = Q;
leftMetricsKey = O;
widthMetricsKey = O;
layers = (
{
anchors = (
{
name = t.ring;
position = "{353, 698}";
},
{
name = b.cedilla_2;
position = "{321, 0}";
},
{
name = b.uni0327;
position = "{357, 0}";
},
{
name = t.uni0303;
position = "{357, 698}";
}
);
layerId = "880420EB-584C-4B51-BB9F-151DBE095CD5";
shapes = (
{
closed = 1;
nodes = (
(365,72,l),
(508,136,l),
(662,-140,l),
(482,-140,l)
);
},
{
alignment = -1;
ref = O;
}
);
width = 716;
},
{
anchors = (
{
name = t.ring;
position = "{354, 698}";
},
{
name = b.cedilla_2;
position = "{326, 0}";
}
);
layerId = "389CED9B-F3EB-41FE-A5B1-A4D5AEA6A809";
shapes = (
{
closed = 1;
nodes = (
(379,63,l),
(504,120,l),
(649,-140,l),
(492,-140,l)
);
},
{
alignment = -1;
ref = O;
}
);
width = 714;
},
{
anchors = (
{
name = t.ring;
position = "{357, 698}";
},
{
name = b.cedilla_2;
position = "{340, 0}";
}
);
layerId = "0B20A76F-6223-4F08-8632-D01C13B3F8D0";
shapes = (
{
closed = 1;
nodes = (
(420,35,l),
(491,72,l),
(617,-140,l),
(528,-140,l)
);
},
{
alignment = -1;
ref = O;
}
);
width = 708;
},
{
anchors = (
{
name = t.ring;
position = "{357, 698}";
},
{
name = b.cedilla_2;
position = "{379, -70}";
}
);
layerId = "C5DA3672-7219-4097-B42A-B369F4569BEC";
shapes = (
{
closed = 1;
nodes = (
(454,27,l),
(472,40,l),
(593,-140,l),
(568,-140,l)
);
},
{
alignment = -1;
ref = O;
}
);
width = 680;
}
);
leftKerningGroup = C2;
rightKerningGroup = O;
unicode = 81;
},
{
glyphname = R;
layers = (
{
anchors = (
{
name = b.uni0327;
position = "{340, 0}";
},
{
name = t.uni0303;
position = "{324, 698}";
}
);
layerId = "880420EB-584C-4B51-BB9F-151DBE095CD5";
shapes = (
{
closed = 1;
nodes = (
(246,241,l),
(246,0,l),
(72,0,l),
(72,698,l),
(420,698,ls),
(487,698,o),
(583,639,o),
(637,535,o),
(637,467,qs),
(637,399,o),
(577,289,o),
(514,263,q),
(643,0,l),
(450,0,l),
(337,241,l)
);
},
{
closed = 1;
nodes = (
(246,388,l),
(395,388,ls),
(415,388,o),
(442,402,o),
(457,428,o),
(457,447,qs),
(457,488,ls),
(457,508,o),
(442,533,o),
(415,547,o),
(395,547,qs),
(246,547,l)
);
}
);
width = 685;
},
{
anchors = (
{
name = b.uni0327;
position = "{340, 0}";
},
{
name = t.uni0303;
position = "{324, 698}";
}
);
layerId = "389CED9B-F3EB-41FE-A5B1-A4D5AEA6A809";
shapes = (
{
closed = 1;
nodes = (
(229,256,l),
(229,0,l),
(77,0,l),
(77,698,l),
(408,698,ls),
(473,698,o),
(567,642,o),
(619,542,o),
(619,475,qs),
(619,405,o),
(556,298,o),
(492,274,q),
(629,0,l),
(460,0,l),
(338,256,l)
);
},
{
closed = 1;
nodes = (
(229,384,l),
(389,384,ls),
(412,384,o),
(444,400,o),
(462,431,o),
(462,453,qs),
(462,497,ls),
(462,520,o),
(444,550,o),
(412,566,o),
(389,566,qs),
(229,566,l)
);
}
);
width = 674;
},
{
anchors = (
{
name = b.uni0327;
position = "{340, 0}";
},
{
name = t.uni0303;
position = "{324, 698}";
}
);
layerId = "0B20A76F-6223-4F08-8632-D01C13B3F8D0";
shapes = (
{
closed = 1;
nodes = (
(177,300,l),
(177,0,l),
(93,0,l),
(93,698,l),
(371,698,ls),
(432,698,o),
(519,652,o),
(566,564,o),
(566,500,qs),
(566,424,o),
(494,324,o),
(426,308,q),
(586,0,l),
(491,0,l),
(340,300,l)
);
},
{
closed = 1;
nodes = (
(177,372,l),
(371,372,ls),
(404,372,o),
(451,395,o),
(476,440,o),
(476,472,qs),
(476,524,ls),
(476,556,o),
(451,601,o),
(404,624,o),
(371,624,qs),
(177,624,l)
);
}
);
width = 640;
},
{
anchors = (
{
name = b.uni0327;
position = "{321, 0}";
},
{
name = t.uni0303;
position = "{321, 698}";
}
);
layerId = "C5DA3672-7219-4097-B42A-B369F4569BEC";
shapes = (
{
closed = 1;
nodes = (
(130,322,l),
(130,0,l),
(108,0,l),
(108,698,l),
(376,698,ls),
(433,698,o),
(511,652,o),
(550,567,o),
(550,510,qs),
(550,425,o),
(461,322,o),
(374,322,q),
(566,0,l),
(541,0,l),
(349,322,l)
);
},
{
closed = 1;
nodes = (
(130,342,l),
(376,342,ls),
(428,342,o),
(494,384,o),
(526,451,o),
(526,489,qs),
(526,531,ls),
(526,569,o),
(494,636,o),
(428,678,o),
(376,678,qs),
(130,678,l)
);
}
);
width = 630;
}
);
rightKerningGroup = R;
unicode = 82;
},
{
glyphname = S;
layers = (
{
anchors = (
{
name = b.uni0327;
position = "{310, 0}";
},
{
name = t.uni0303;
position = "{310, 698}";
}
);
layerId = "880420EB-584C-4B51-BB9F-151DBE095CD5";
shapes = (
{
closed = 1;
nodes = (
(214,-12,o),
(83,52,o),
(37,98,q),
(149,215,l),
(184,178,o),
(272,142,o),
(320,142,qs),
(370,142,o),
(415,179,o),
(415,210,qs),
(415,224,o),
(407,250,o),
(379,268,o),
(350,270,q),
(277,278,ls),
(201,286,o),
(104,341,o),
(58,431,o),
(58,491,qs),
(58,554,o),
(122,653,o),
(243,710,o),
(330,710,qs),
(409,710,o),
(531,661,o),
(576,617,q),
(462,497,l),
(438,522,o),
(371,556,o),
(319,556,qs),
(274,556,o),
(233,527,o),
(233,503,qs),
(233,482,o),
(246,457,o),
(276,445,o),
(300,442,qs),
(373,432,ls),
(446,422,o),
(543,370,o),
(590,283,o),
(590,221,qs),
(590,153,o),
(526,48,o),
(399,-12,o),
(308,-12,qs)
);
}
);
width = 638;
},
{
anchors = (
{
name = b.uni0327;
position = "{310, 0}";
},
{
name = t.uni0303;
position = "{310, 698}";
}
);
layerId = "389CED9B-F3EB-41FE-A5B1-A4D5AEA6A809";
shapes = (
{
closed = 1;
nodes = (
(212,-12,o),
(83,52,o),
(38,101,q),
(138,202,l),
(173,162,o),
(262,122,o),
(313,122,qs),
(369,122,o),
(423,168,o),
(423,206,qs),
(423,225,o),
(410,256,o),
(375,277,o),
(342,281,qs),
(273,290,ls),
(200,300,o),
(105,353,o),
(59,440,o),
(59,498,qs),
(59,561,o),
(122,656,o),
(239,710,o),
(321,710,qs),
(400,710,o),
(520,659,o),
(563,612,q),
(462,510,l),
(437,539,o),
(366,576,o),
(312,576,qs),
(261,576,o),
(211,540,o),
(211,508,qs),
(211,484,o),
(228,454,o),
(265,438,o),
(294,433,qs),
(363,422,ls),
(435,411,o),
(529,359,o),
(575,275,o),
(575,215,qs),
(575,148,o),
(512,46,o),
(390,-12,o),
(303,-12,qs)
);
}
);
width = 624;
},
{
anchors = (
{
name = b.uni0327;
position = "{310, 0}";
},
{
name = t.uni0303;
position = "{310, 698}";
}
);
layerId = "0B20A76F-6223-4F08-8632-D01C13B3F8D0";
shapes = (
{
closed = 1;
nodes = (
(205,-12,o),
(84,53,o),
(42,110,q),
(104,162,l),
(141,113,o),
(231,62,o),
(292,62,qs),
(367,62,o),
(446,134,o),
(446,194,qs),
(446,227,o),
(420,273,o),
(363,304,o),
(317,314,qs),
(260,327,ls),
(197,342,o),
(109,390,o),
(63,466,o),
(63,519,qs),
(63,581,o),
(121,666,o),
(226,710,o),
(294,710,qs),
(373,710,o),
(486,652,o),
(525,596,q),
(462,550,l),
(434,590,o),
(351,636,o),
(290,636,qs),
(223,636,o),
(146,578,o),
(146,522,qs),
(146,489,o),
(175,445,o),
(233,416,o),
(277,406,qs),
(334,393,ls),
(402,378,o),
(488,326,o),
(529,250,o),
(529,198,qs),
(529,134,o),
(471,40,o),
(364,-12,o),
(289,-12,qs)
);
}
);
width = 581;
},
{
anchors = (
{
name = b.uni0327;
position = "{297, 0}";
},
{
name = t.uni0303;
position = "{290, 698}";
}
);
layerId = "C5DA3672-7219-4097-B42A-B369F4569BEC";
shapes = (
{
closed = 1;
nodes = (
(189,-12,o),
(80,53,o),
(42,102,q),
(60,115,l),
(97,67,o),
(196,8,o),
(276,8,qs),
(367,8,o),
(467,94,o),
(467,176,qs),
(467,235,o),
(422,301,o),
(348,333,o),
(306,341,qs),
(236,354,ls),
(166,367,o),
(89,421,o),
(58,493,o),
(58,534,qs),
(58,594,o),
(111,672,o),
(207,710,o),
(271,710,qs),
(348,710,o),
(449,657,o),
(477,615,q),
(459,602,l),
(429,646,o),
(337,690,o),
(269,690,qs),
(181,690,o),
(80,613,o),
(80,534,qs),
(80,480,o),
(125,416,o),
(199,383,o),
(242,375,qs),
(312,362,ls),
(384,349,o),
(460,293,o),
(489,219,o),
(489,178,qs),
(489,115,o),
(437,31,o),
(341,-12,o),
(276,-12,qs)
);
}
);
width = 547;
}
);
leftKerningGroup = S2;
rightKerningGroup = S;
unicode = 83;
},
{
glyphname = T;
layers = (
{
anchors = (
{
name = b.uni0327;
position = "{293, 0}";
},
{
name = t.uni0303;
position = "{292, 698}";
}
);
layerId = "880420EB-584C-4B51-BB9F-151DBE095CD5";
shapes = (
{
closed = 1;
nodes = (
(559,543,l),
(381,543,l),
(381,0,l),
(207,0,l),
(207,543,l),
(29,543,l),
(29,698,l),
(559,698,l)
);
}
);
width = 588;
},
{
anchors = (
{
name = b.uni0327;
position = "{293, 0}";
},
{
name = t.uni0303;
position = "{292, 698}";
}
);
layerId = "389CED9B-F3EB-41FE-A5B1-A4D5AEA6A809";
shapes = (
{
closed = 1;
nodes = (
(557,563,l),
(368,563,l),
(368,0,l),
(216,0,l),
(216,563,l),
(27,563,l),
(27,698,l),
(557,698,l)
);
}
);
width = 584;
},
{
anchors = (
{
name = b.uni0327;
position = "{293, 0}";
},
{
name = t.uni0303;
position = "{292, 698}";
}
);
layerId = "0B20A76F-6223-4F08-8632-D01C13B3F8D0";
shapes = (
{
closed = 1;
nodes = (
(550,624,l),
(328,624,l),
(328,0,l),
(244,0,l),
(244,624,l),
(22,624,l),
(22,698,l),
(550,698,l)
);
}
);
width = 572;
},
{
anchors = (
{
name = b.uni0327;
position = "{287, 0}";
},
{
name = t.uni0303;
position = "{286, 698}";
}
);
layerId = "C5DA3672-7219-4097-B42A-B369F4569BEC";
shapes = (
{
closed = 1;
nodes = (
(543,678,l),
(291,678,l),
(291,0,l),
(269,0,l),
(269,678,l),
(17,678,l),
(17,698,l),
(543,698,l)
);
}
);
width = 560;
}
);
leftKerningGroup = T2;
rightKerningGroup = T;
unicode = 84;
},
{
glyphname = U;
layers = (
{
anchors = (
{
name = b.uni0327;
position = "{347, 0}";
},
{
name = b.uni0328;
position = "{455, 0}";
},
{
name = t.uni0303;
position = "{347, 698}";
}
);
layerId = "880420EB-584C-4B51-BB9F-151DBE095CD5";
shapes = (
{
closed = 1;
nodes = (
(68,698,l),
(237,698,l),
(237,271,ls),
(237,228,o),
(260,172,o),
(310,143,o),
(350,143,qs),
(389,143,o),
(438,172,o),
(462,228,o),
(462,271,qs),
(462,698,l),
(631,698,l),
(631,286,ls),
(631,182,o),
(576,51,o),
(453,-12,o),
(351,-12,qs),
(248,-12,o),
(124,51,o),
(68,182,o),
(68,286,qs)
);
}
);
width = 699;
},
{
anchors = (
{
name = b.uni0327;
position = "{347, 0}";
},
{
name = b.uni0328;
position = "{455, 0}";
},
{
name = t.uni0303;
position = "{347, 698}";
}
);
layerId = "389CED9B-F3EB-41FE-A5B1-A4D5AEA6A809";
shapes = (
{
closed = 1;
nodes = (
(73,698,l),
(221,698,l),
(221,270,ls),
(221,221,o),
(246,156,o),
(302,123,o),
(347,123,qs),
(392,123,o),
(447,156,o),
(473,221,o),
(473,270,qs),
(473,698,l),
(621,698,l),
(621,286,ls),
(621,183,o),
(567,51,o),
(447,-12,o),
(347,-12,qs),
(247,-12,o),
(127,51,o),
(73,183,o),
(73,286,qs)
);
}
);
width = 694;
},
{
anchors = (
{
name = b.uni0327;
position = "{347, 0}";
},
{
name = b.uni0328;
position = "{455, 0}";
},
{
name = t.uni0303;
position = "{347, 698}";
}
);
layerId = "0B20A76F-6223-4F08-8632-D01C13B3F8D0";
shapes = (
{
closed = 1;
nodes = (
(88,698,l),
(172,698,l),
(172,266,ls),
(172,200,o),
(204,109,o),
(277,63,o),
(339,63,qs),
(401,63,o),
(474,109,o),
(506,200,o),
(506,266,qs),
(506,698,l),
(590,698,l),
(590,286,ls),
(590,185,o),
(541,52,o),
(429,-12,o),
(336,-12,qs),
(243,-12,o),
(135,52,o),
(88,185,o),
(88,286,qs)
);
}
);
width = 678;
},
{
anchors = (
{
name = b.uni0327;
position = "{336, 0}";
},
{
name = b.uni0328;
position = "{443, 0}";
},
{
name = t.uni0303;
position = "{335, 698}";
}
);
layerId = "C5DA3672-7219-4097-B42A-B369F4569BEC";
shapes = (
{
closed = 1;
nodes = (
(100,698,l),
(122,698,l),
(122,268,ls),
(122,173,o),
(159,59,o),
(248,8,o),
(326,8,qs),
(404,8,o),
(493,59,o),
(530,173,o),
(530,268,qs),
(530,698,l),
(552,698,l),
(552,270,ls),
(552,167,o),
(509,43,o),
(410,-12,o),
(326,-12,qs),
(242,-12,o),
(143,43,o),
(100,167,o),
(100,270,qs)
);
}
);
width = 652;
}
);
leftKerningGroup = U2;
rightKerningGroup = U;
unicode = 85;
},
{
glyphname = V;
layers = (
{
anchors = (
{
name = b.uni0327;
position = "{325, 0}";
},
{
name = t.uni0303;
position = "{325, 698}";
}
);
layerId = "880420EB-584C-4B51-BB9F-151DBE095CD5";
shapes = (
{
closed = 1;
nodes = (
(427,0,l),
(235,0,l),
(12,698,l),
(187,698,l),
(288,369,l),
(335,164,l),
(338,164,l),
(382,369,l),
(482,698,l),
(652,698,l)
);
}
);
width = 664;
},
{
anchors = (
{
name = b.uni0327;
position = "{325, 0}";
},
{
name = t.uni0303;
position = "{325, 698}";
}
);
layerId = "389CED9B-F3EB-41FE-A5B1-A4D5AEA6A809";
shapes = (
{
closed = 1;
nodes = (
(409,0,l),
(239,0,l),
(14,698,l),
(168,698,l),
(272,363,l),
(327,144,l),
(330,144,l),
(383,363,l),
(487,698,l),
(636,698,l)
);
}
);
width = 650;
},
{
anchors = (
{
name = b.uni0327;
position = "{325, 0}";
},
{
name = t.uni0303;
position = "{325, 698}";
}
);
layerId = "0B20A76F-6223-4F08-8632-D01C13B3F8D0";
shapes = (
{
closed = 1;
nodes = (
(354,0,l),
(252,0,l),
(20,698,l),
(110,698,l),
(225,346,l),
(302,84,l),
(307,84,l),
(386,346,l),
(502,698,l),
(589,698,l)
);
}
);
width = 609;
},
{
anchors = (
{
name = b.uni0327;
position = "{305, 0}";
},
{
name = t.uni0303;
position = "{305, 698}";
}
);
layerId = "C5DA3672-7219-4097-B42A-B369F4569BEC";
shapes = (
{
closed = 1;
nodes = (
(300,0,l),
(270,0,l),
(30,698,l),
(54,698,l),
(210,242,l),
(284,25,l),
(287,25,l),
(361,242,l),
(517,698,l),
(540,698,l)
);
}
);
width = 570;
}
);
unicode = 86;
},
{
glyphname = W;
layers = (
{
anchors = (
{
name = b.uni0327;
position = "{487, 0}";
},
{
name = t.uni0303;
position = "{487, 698}";
}
);
layerId = "880420EB-584C-4B51-BB9F-151DBE095CD5";
shapes = (
{
closed = 1;
nodes = (
(387,0,l),
(186,0,l),
(32,698,l),
(202,698,l),
(265,363,l),
(295,192,l),
(299,192,l),
(336,363,l),
(409,698,l),
(598,698,l),
(674,363,l),
(710,191,l),
(713,191,l),
(742,363,l),
(805,698,l),
(968,698,l),
(812,0,l),
(612,0,l),
(525,388,l),
(501,507,l),
(498,507,l),
(473,388,l)
);
}
);
width = 1000;
},
{
anchors = (
{
name = b.uni0327;
position = "{487, 0}";
},
{
name = t.uni0303;
position = "{487, 698}";
}
);
layerId = "389CED9B-F3EB-41FE-A5B1-A4D5AEA6A809";
shapes = (
{
closed = 1;
nodes = (
(361,0,l),
(187,0,l),
(29,698,l),
(179,698,l),
(245,363,l),
(282,169,l),
(285,169,l),
(329,363,l),
(406,698,l),
(572,698,l),
(650,363,l),
(693,169,l),
(696,169,l),
(733,363,l),
(800,698,l),
(944,698,l),
(782,0,l),
(609,0,l),
(521,378,l),
(487,531,l),
(484,531,l),
(449,378,l)
);
}
);
width = 973;
},
{
anchors = (
{
name = b.uni0327;
position = "{487, 0}";
},
{
name = t.uni0303;
position = "{487, 698}";
}
);
layerId = "0B20A76F-6223-4F08-8632-D01C13B3F8D0";
shapes = (
{
closed = 1;
nodes = (
(283,0,l),
(190,0,l),
(20,698,l),
(109,698,l),
(184,362,l),
(242,101,l),
(244,101,l),
(309,362,l),
(397,698,l),
(493,698,l),
(578,362,l),
(643,102,l),
(646,102,l),
(706,362,l),
(785,698,l),
(871,698,l),
(692,0,l),
(599,0,l),
(508,348,l),
(444,604,l),
(442,604,l),
(376,348,l)
);
}
);
width = 891;
},
{
anchors = (
{
name = b.uni0327;
position = "{468, 0}";
},
{
name = t.uni0303;
position = "{474, 698}";
}
);
layerId = "C5DA3672-7219-4097-B42A-B369F4569BEC";
shapes = (
{
closed = 1;
nodes = (
(246,0,l),
(216,0,l),
(30,698,l),
(54,698,l),
(173,248,l),
(230,31,l),
(233,31,l),
(294,248,l),
(420,698,l),
(452,698,l),
(578,248,l),
(639,31,l),
(642,31,l),
(700,248,l),
(819,698,l),
(842,698,l),
(656,0,l),
(626,0,l),
(498,457,l),
(437,674,l),
(434,674,l),
(374,457,l)
);
}
);
width = 872;
}
);
leftKerningGroup = W2;
rightKerningGroup = W;
unicode = 87;
},
{
glyphname = X;
layers = (
{
anchors = (
{
name = b.uni0327;
position = "{337, 0}";
},
{
name = t.uni0303;
position = "{337, 698}";
}
);
layerId = "880420EB-584C-4B51-BB9F-151DBE095CD5";
shapes = (
{
closed = 1;
nodes = (
(13,0,l),
(236,363,l),
(26,698,l),
(228,698,l),
(351,476,l),
(355,476,l),
(479,698,l),
(666,698,l),
(454,358,l),
(680,0,l),
(479,0,l),
(338,245,l),
(335,245,l),
(200,0,l)
);
}
);
width = 693;
},
{
anchors = (
{
name = b.uni0327;
position = "{337, 0}";
},
{
name = t.uni0303;
position = "{337, 698}";
}
);
layerId = "389CED9B-F3EB-41FE-A5B1-A4D5AEA6A809";
shapes = (
{
closed = 1;
nodes = (
(16,0,l),
(240,361,l),
(27,698,l),
(204,698,l),
(340,462,l),
(343,462,l),
(481,698,l),
(645,698,l),
(430,358,l),
(657,0,l),
(481,0,l),
(330,257,l),
(327,257,l),
(180,0,l)
);
}
);
width = 673;
},
{
anchors = (
{
name = b.uni0327;
position = "{337, 0}";
},
{
name = t.uni0303;
position = "{337, 698}";
}
);
layerId = "0B20A76F-6223-4F08-8632-D01C13B3F8D0";
shapes = (
{
closed = 1;
nodes = (
(24,0,l),
(252,355,l),
(30,698,l),
(131,698,l),
(306,420,l),
(308,420,l),
(487,698,l),
(583,698,l),
(359,358,l),
(589,0,l),
(488,0,l),
(305,293,l),
(303,293,l),
(120,0,l)
);
}
);
width = 613;
},
{
anchors = (
{
name = b.uni0327;
position = "{310, 0}";
},
{
name = t.uni0303;
position = "{310, 698}";
}
);
layerId = "C5DA3672-7219-4097-B42A-B369F4569BEC";
shapes = (
{
closed = 1;
nodes = (
(28,0,l),
(266,354,l),
(37,698,l),
(63,698,l),
(278,376,l),
(280,376,l),
(495,698,l),
(521,698,l),
(293,357,l),
(530,0,l),
(504,0,l),
(281,335,l),
(279,335,l),
(54,0,l)
);
}
);
width = 558;
}
);
unicode = 88;
},
{
glyphname = Y;
layers = (
{
anchors = (
{
name = b.uni0327;
position = "{328, 0}";
},
{
name = t.uni0303;
position = "{325, 698}";
}
);
layerId = "880420EB-584C-4B51-BB9F-151DBE095CD5";
shapes = (
{
closed = 1;
nodes = (
(422,0,l),
(246,0,l),
(246,272,l),
(8,698,l),
(202,698,l),
(340,439,l),
(342,439,l),
(472,698,l),
(660,698,l),
(422,272,l)
);
}
);
width = 668;
},
{
anchors = (
{
name = b.uni0327;
position = "{328, 0}";
},
{
name = t.uni0303;
position = "{325, 698}";
}
);
layerId = "389CED9B-F3EB-41FE-A5B1-A4D5AEA6A809";
shapes = (
{
closed = 1;
nodes = (
(401,0,l),
(248,0,l),
(248,273,l),
(9,698,l),
(179,698,l),
(329,420,l),
(331,420,l),
(475,698,l),
(640,698,l),
(401,274,l)
);
}
);
width = 649;
},
{
anchors = (
{
name = b.uni0327;
position = "{328, 0}";
},
{
name = t.uni0303;
position = "{325, 698}";
}
);
layerId = "0B20A76F-6223-4F08-8632-D01C13B3F8D0";
shapes = (
{
closed = 1;
nodes = (
(337,0,l),
(253,0,l),
(253,276,l),
(13,698,l),
(109,698,l),
(295,362,l),
(298,362,l),
(484,698,l),
(580,698,l),
(337,279,l)
);
}
);
width = 593;
},
{
anchors = (
{
name = b.uni0327;
position = "{304, 0}";
},
{
name = t.uni0303;
position = "{300, 698}";
}
);
layerId = "C5DA3672-7219-4097-B42A-B369F4569BEC";
shapes = (
{
closed = 1;
nodes = (
(284,0,l),
(262,0,l),
(262,294,l),
(21,698,l),
(46,698,l),
(272,320,l),
(275,320,l),
(501,698,l),
(525,698,l),
(284,294,l)
);
}
);
width = 546;
}
);
leftKerningGroup = Y2;
rightKerningGroup = Y;
unicode = 89;
},
{
glyphname = Z;
layers = (
{
anchors = (
{
name = b.uni0327;
position = "{303, 0}";
},
{
name = t.uni0303;
position = "{303, 698}";
}
);
layerId = "880420EB-584C-4B51-BB9F-151DBE095CD5";
shapes = (
{
closed = 1;
nodes = (
(576,154,l),
(576,0,l),
(40,0,l),
(40,155,l),
(366,544,l),
(56,544,l),
(56,698,l),
(570,698,l),
(570,543,l),
(243,154,l)
);
}
);
width = 616;
},
{
anchors = (
{
name = b.uni0327;
position = "{303, 0}";
},
{
name = t.uni0303;
position = "{303, 698}";
}
);
layerId = "389CED9B-F3EB-41FE-A5B1-A4D5AEA6A809";
shapes = (
{
closed = 1;
nodes = (
(568,134,l),
(568,0,l),
(39,0,l),
(39,135,l),
(384,564,l),
(56,564,l),
(56,698,l),
(560,698,l),
(560,563,l),
(214,134,l)
);
}
);
width = 607;
},
{
anchors = (
{
name = b.uni0327;
position = "{303, 0}";
},
{
name = t.uni0303;
position = "{303, 698}";
}
);
layerId = "0B20A76F-6223-4F08-8632-D01C13B3F8D0";
shapes = (
{
closed = 1;
nodes = (
(544,74,l),
(544,0,l),
(36,0,l),
(36,76,l),
(439,624,l),
(57,624,l),
(57,698,l),
(530,698,l),
(530,622,l),
(126,74,l)
);
}
);
width = 580;
},
{
anchors = (
{
name = b.uni0327;
position = "{288, 0}";
},
{
name = t.uni0303;
position = "{288, 698}";
}
);
layerId = "C5DA3672-7219-4097-B42A-B369F4569BEC";
shapes = (
{
closed = 1;
nodes = (
(527,20,l),
(527,0,l),
(39,0,l),
(39,22,l),
(482,678,l),
(62,678,l),
(62,698,l),
(506,698,l),
(506,676,l),
(63,20,l)
);
}
);
width = 555;
}
);
leftKerningGroup = Z2;
rightKerningGroup = Z;
unicode = 90;
},
{
glyphname = zero;
layers = (
{
layerId = "880420EB-584C-4B51-BB9F-151DBE095CD5";
shapes = (
{
closed = 1;
nodes = (
(237,-12,o),
(185,2,o),
(144,31,cs),
(61,88,o),
(21,197,o),
(21,349,cs),
(21,425,o),
(31,490,o),
(52,544,cs),
(92,652,o),
(175,710,o),
(300,710,cs),
(363,710,o),
(416,696,o),
(457,668,cs),
(539,611,o),
(579,501,o),
(579,349,cs),
(579,273,o),
(569,208,o),
(549,155,cs),
(508,47,o),
(427,-12,o),
(300,-12,cs)
);
},
{
closed = 1;
nodes = (
(323,133,o),
(342,139,o),
(355,150,cs),
(381,173,o),
(391,216,o),
(391,280,cs),
(391,418,ls),
(391,450,o),
(388,477,o),
(383,499,c),
(371,542,o),
(347,565,o),
(300,565,cs),
(277,565,o),
(259,559,o),
(246,548,cs),
(220,525,o),
(209,482,o),
(209,418,cs),
(209,280,ls),
(209,248,o),
(212,221,o),
(218,200,cs),
(229,156,o),
(253,133,o),
(300,133,cs)
);
}
);
width = 600;
},
{
layerId = "389CED9B-F3EB-41FE-A5B1-A4D5AEA6A809";
shapes = (
{
closed = 1;
nodes = (
(239,-12,o),
(189,2,o),
(149,31,cs),
(69,88,o),
(31,197,o),
(31,349,cs),
(31,425,o),
(41,490,o),
(60,544,cs),
(99,652,o),
(179,710,o),
(300,710,cs),
(361,710,o),
(412,696,o),
(452,668,cs),
(531,611,o),
(569,501,o),
(569,349,cs),
(569,273,o),
(559,208,o),
(540,155,cs),
(501,47,o),
(423,-12,o),
(300,-12,cs)
);
},
{
closed = 1;
nodes = (
(327,115,o),
(348,122,o),
(363,135,cs),
(394,162,o),
(406,212,o),
(406,283,cs),
(406,415,ls),
(406,450,o),
(403,481,o),
(396,506,cs),
(383,556,o),
(353,583,o),
(300,583,cs),
(273,583,o),
(252,576,o),
(237,563,cs),
(206,536,o),
(194,486,o),
(194,415,cs),
(194,283,ls),
(194,248,o),
(197,218,o),
(204,193,cs),
(217,143,o),
(247,115,o),
(300,115,cs)
);
}
);
width = 600;
},
{
layerId = "0B20A76F-6223-4F08-8632-D01C13B3F8D0";
shapes = (
{
closed = 1;
nodes = (
(245,-12,o),
(199,2,o),
(164,31,cs),
(92,88,o),
(60,197,o),
(60,349,cs),
(60,425,o),
(68,490,o),
(85,544,cs),
(118,652,o),
(189,710,o),
(300,710,cs),
(356,710,o),
(402,696,o),
(437,668,cs),
(508,611,o),
(540,501,o),
(540,349,cs),
(540,273,o),
(532,208,o),
(515,155,cs),
(482,47,o),
(412,-12,o),
(300,-12,cs)
);
},
{
closed = 1;
nodes = (
(337,61,o),
(366,71,o),
(388,91,cs),
(432,130,o),
(452,203,o),
(452,292,cs),
(452,406,ls),
(452,451,o),
(447,491,o),
(437,526,cs),
(416,595,o),
(373,637,o),
(300,637,cs),
(264,637,o),
(235,627,o),
(213,608,cs),
(168,568,o),
(148,497,o),
(148,406,cs),
(148,292,ls),
(148,247,o),
(153,208,o),
(164,173,c),
(184,103,o),
(228,61,o),
(300,61,cs)
);
}
);
width = 600;
},
{
layerId = "C5DA3672-7219-4097-B42A-B369F4569BEC";
shapes = (
{
closed = 1;
nodes = (
(251,-12,o),
(210,0,o),
(176,25,cs),
(108,74,o),
(71,178,o),
(71,349,cs),
(71,434,o),
(80,504,o),
(98,557,cs),
(134,663,o),
(203,710,o),
(300,710,cs),
(349,710,o),
(390,698,o),
(424,673,cs),
(492,624,o),
(529,520,o),
(529,349,cs),
(529,264,o),
(520,195,o),
(502,142,cs),
(466,36,o),
(397,-12,o),
(300,-12,cs)
);
},
{
closed = 1;
nodes = (
(345,8,o),
(382,20,o),
(413,43,cs),
(473,89,o),
(505,181,o),
(505,317,cs),
(505,381,ls),
(505,450,o),
(497,507,o),
(482,553,cs),
(450,644,o),
(389,690,o),
(300,690,cs),
(256,690,o),
(219,679,o),
(188,656,cs),
(127,610,o),
(95,518,o),
(95,381,cs),
(95,317,ls),
(95,249,o),
(103,192,o),
(119,146,cs),
(150,54,o),
(212,8,o),
(300,8,cs)
);
}
);
width = 600;
}
);
unicode = 48;
},
{
glyphname = zero.alt01;
layers = (
{
layerId = "880420EB-584C-4B51-BB9F-151DBE095CD5";
shapes = (
{
closed = 1;
nodes = (
(237,-12,o),
(185,2,o),
(144,31,cs),
(61,88,o),
(21,197,o),
(21,349,cs),
(21,425,o),
(31,490,o),
(52,544,cs),
(92,652,o),
(175,710,o),
(300,710,cs),
(363,710,o),
(416,696,o),
(457,668,cs),
(539,611,o),
(579,501,o),
(579,349,cs),
(579,273,o),
(569,208,o),
(549,155,cs),
(508,47,o),
(427,-12,o),
(300,-12,cs)
);
},
{
closed = 1;
nodes = (
(324,133,o),
(343,139,o),
(357,150,cs),
(385,173,o),
(395,216,o),
(395,280,cs),
(395,418,ls),
(395,450,o),
(392,477,o),
(387,499,c),
(375,542,o),
(348,565,o),
(300,565,cs),
(275,565,o),
(256,559,o),
(243,548,cs),
(215,525,o),
(205,482,o),
(205,418,cs),
(205,280,ls),
(205,248,o),
(208,221,o),
(214,200,cs),
(225,156,o),
(251,133,o),
(300,133,cs)
);
},
{
closed = 1;
nodes = (
(260,284,o),
(238,309,o),
(238,341,cs),
(238,356,ls),
(238,389,o),
(260,413,o),
(303,413,cs),
(347,413,o),
(367,389,o),
(367,356,cs),
(367,341,ls),
(367,309,o),
(347,284,o),
(303,284,cs)
);
}
);
width = 600;
},
{
layerId = "389CED9B-F3EB-41FE-A5B1-A4D5AEA6A809";
shapes = (
{
closed = 1;
nodes = (
(239,-12,o),
(189,2,o),
(149,31,cs),
(69,88,o),
(31,197,o),
(31,349,cs),
(31,425,o),
(41,490,o),
(60,544,cs),
(99,652,o),
(179,710,o),
(300,710,cs),
(361,710,o),
(412,696,o),
(452,668,cs),
(531,611,o),
(569,501,o),
(569,349,cs),
(569,273,o),
(559,208,o),
(540,155,cs),
(501,47,o),
(423,-12,o),
(300,-12,cs)
);
},
{
closed = 1;
nodes = (
(327,115,o),
(349,122,o),
(365,135,cs),
(397,162,o),
(409,212,o),
(409,283,cs),
(409,415,ls),
(409,450,o),
(406,481,o),
(399,506,cs),
(386,556,o),
(355,583,o),
(300,583,cs),
(273,583,o),
(251,576,o),
(235,563,cs),
(203,536,o),
(191,486,o),
(191,415,cs),
(191,283,ls),
(191,248,o),
(194,218,o),
(201,193,cs),
(214,143,o),
(245,115,o),
(300,115,cs)
);
},
{
closed = 1;
nodes = (
(261,286,o),
(240,310,o),
(240,342,cs),
(240,356,ls),
(240,388,o),
(261,412,o),
(302,412,cs),
(345,412,o),
(364,388,o),
(364,356,cs),
(364,342,ls),
(364,310,o),
(345,286,o),
(302,286,cs)
);
}
);
width = 600;
},
{
layerId = "0B20A76F-6223-4F08-8632-D01C13B3F8D0";
shapes = (
{
closed = 1;
nodes = (
(245,-12,o),
(199,2,o),
(164,31,cs),
(92,88,o),
(60,197,o),
(60,349,cs),
(60,425,o),
(68,490,o),
(85,544,cs),
(118,652,o),
(189,710,o),
(300,710,cs),
(356,710,o),
(402,696,o),
(437,668,cs),
(508,611,o),
(540,501,o),
(540,349,cs),
(540,273,o),
(532,208,o),
(515,155,cs),
(482,47,o),
(412,-12,o),
(300,-12,cs)
);
},
{
closed = 1;
nodes = (
(337,61,o),
(366,71,o),
(388,91,cs),
(432,130,o),
(452,203,o),
(452,292,cs),
(452,406,ls),
(452,451,o),
(447,491,o),
(437,526,cs),
(416,595,o),
(373,637,o),
(300,637,cs),
(264,637,o),
(235,627,o),
(213,608,cs),
(168,568,o),
(148,497,o),
(148,406,cs),
(148,292,ls),
(148,247,o),
(153,208,o),
(164,173,c),
(184,103,o),
(228,61,o),
(300,61,cs)
);
},
{
closed = 1;
nodes = (
(263,292,o),
(245,313,o),
(245,344,cs),
(245,355,ls),
(245,386,o),
(263,408,o),
(300,408,cs),
(339,408,o),
(355,386,o),
(355,355,cs),
(355,344,ls),
(355,313,o),
(339,292,o),
(300,292,cs)
);
}
);
width = 600;
},
{
layerId = "C5DA3672-7219-4097-B42A-B369F4569BEC";
shapes = (
{
closed = 1;
nodes = (
(251,-12,o),
(210,0,o),
(176,25,cs),
(108,74,o),
(71,178,o),
(71,349,cs),
(71,434,o),
(80,504,o),
(98,557,cs),
(134,663,o),
(203,710,o),
(300,710,cs),
(349,710,o),
(390,698,o),
(424,673,cs),
(492,624,o),
(529,520,o),
(529,349,cs),
(529,264,o),
(520,195,o),
(502,142,cs),
(466,36,o),
(397,-12,o),
(300,-12,cs)
);
},
{
closed = 1;
nodes = (
(345,8,o),
(382,20,o),
(413,43,cs),
(473,89,o),
(505,181,o),
(505,317,cs),
(505,381,ls),
(505,450,o),
(497,507,o),
(482,553,cs),
(450,644,o),
(389,690,o),
(300,690,cs),
(256,690,o),
(219,679,o),
(188,656,cs),
(127,610,o),
(95,518,o),
(95,381,cs),
(95,317,ls),
(95,249,o),
(103,192,o),
(119,146,cs),
(150,54,o),
(212,8,o),
(300,8,cs)
);
},
{
closed = 1;
nodes = (
(283,324,o),
(275,333,o),
(275,345,cs),
(275,353,ls),
(275,365,o),
(283,374,o),
(300,374,cs),
(319,374,o),
(325,365,o),
(325,353,cs),
(325,345,ls),
(325,333,o),
(319,324,o),
(300,324,cs)
);
}
);
width = 600;
}
);
},
{
glyphname = zero.alt02;
layers = (
{
layerId = "880420EB-584C-4B51-BB9F-151DBE095CD5";
shapes = (
{
closed = 1;
nodes = (
(237,-12,o),
(185,2,o),
(144,31,cs),
(61,88,o),
(21,197,o),
(21,349,cs),
(21,425,o),
(31,490,o),
(52,544,cs),
(92,652,o),
(175,710,o),
(300,710,cs),
(363,710,o),
(416,696,o),
(457,668,cs),
(539,611,o),
(579,501,o),
(579,349,cs),
(579,273,o),
(569,208,o),
(549,155,cs),
(508,47,o),
(427,-12,o),
(300,-12,cs)
);
},
{
closed = 1;
nodes = (
(323,133,o),
(342,139,o),
(355,150,cs),
(381,173,o),
(391,216,o),
(391,280,cs),
(391,309,ls),
(391,316,o),
(391,328,o),
(391,341,cs),
(391,354,o),
(392,367,o),
(392,375,c),
(390,375,l),
(300,276,l),
(220,189,l),
(232,152,o),
(256,133,o),
(300,133,cs)
);
},
{
closed = 1;
nodes = (
(277,565,o),
(259,559,o),
(246,548,cs),
(220,525,o),
(209,482,o),
(209,418,cs),
(209,389,ls),
(209,382,o),
(209,371,o),
(209,362,cs),
(209,353,o),
(209,342,o),
(208,334,c),
(210,334,l),
(300,432,l),
(376,517,l),
(364,549,o),
(340,565,o),
(300,565,cs)
);
}
);
width = 600;
},
{
layerId = "389CED9B-F3EB-41FE-A5B1-A4D5AEA6A809";
shapes = (
{
closed = 1;
nodes = (
(239,-12,o),
(189,2,o),
(149,31,cs),
(69,88,o),
(31,197,o),
(31,349,cs),
(31,425,o),
(41,490,o),
(60,544,cs),
(99,652,o),
(179,710,o),
(300,710,cs),
(361,710,o),
(412,696,o),
(452,668,cs),
(531,611,o),
(569,501,o),
(569,349,cs),
(569,273,o),
(559,208,o),
(540,155,cs),
(501,47,o),
(423,-12,o),
(300,-12,cs)
);
},
{
closed = 1;
nodes = (
(327,115,o),
(348,122,o),
(363,135,cs),
(394,162,o),
(406,212,o),
(406,283,cs),
(406,333,ls),
(406,341,o),
(406,353,o),
(406,366,cs),
(406,378,o),
(406,390,o),
(406,398,c),
(404,398,l),
(300,283,l),
(207,181,l),
(222,138,o),
(251,115,o),
(300,115,cs)
);
},
{
closed = 1;
nodes = (
(273,583,o),
(252,576,o),
(237,563,cs),
(206,536,o),
(194,486,o),
(194,415,cs),
(194,365,ls),
(194,357,o),
(194,347,o),
(194,337,cs),
(194,327,o),
(194,316,o),
(194,308,c),
(196,308,l),
(300,423,l),
(390,523,l),
(375,562,o),
(347,583,o),
(300,583,cs)
);
}
);
width = 600;
},
{
layerId = "0B20A76F-6223-4F08-8632-D01C13B3F8D0";
shapes = (
{
closed = 1;
nodes = (
(245,-12,o),
(199,2,o),
(164,31,cs),
(92,88,o),
(60,197,o),
(60,349,cs),
(60,425,o),
(68,490,o),
(85,544,cs),
(118,652,o),
(189,710,o),
(300,710,cs),
(356,710,o),
(402,696,o),
(437,668,cs),
(508,611,o),
(540,501,o),
(540,349,cs),
(540,273,o),
(532,208,o),
(515,155,cs),
(482,47,o),
(412,-12,o),
(300,-12,cs)
);
},
{
closed = 1;
nodes = (
(337,61,o),
(366,71,o),
(388,91,cs),
(432,130,o),
(452,203,o),
(452,292,cs),
(452,406,ls),
(452,417,o),
(452,427,o),
(452,438,c),
(451,449,o),
(449,459,o),
(448,467,c),
(446,467,l),
(300,303,l),
(168,156,l),
(191,97,o),
(233,61,o),
(300,61,cs)
);
},
{
closed = 1;
nodes = (
(264,637,o),
(235,627,o),
(213,608,cs),
(168,568,o),
(148,497,o),
(148,406,cs),
(148,292,ls),
(148,281,o),
(148,271,o),
(149,260,c),
(149,249,o),
(150,239,o),
(151,231,c),
(153,231,l),
(300,395,l),
(431,541,l),
(410,601,o),
(367,637,o),
(300,637,cs)
);
}
);
width = 600;
},
{
layerId = "C5DA3672-7219-4097-B42A-B369F4569BEC";
shapes = (
{
closed = 1;
nodes = (
(251,-12,o),
(210,0,o),
(176,25,cs),
(108,74,o),
(71,178,o),
(71,349,cs),
(71,434,o),
(80,504,o),
(98,557,cs),
(134,663,o),
(203,710,o),
(300,710,cs),
(349,710,o),
(390,698,o),
(424,673,cs),
(492,624,o),
(529,520,o),
(529,349,cs),
(529,264,o),
(520,195,o),
(502,142,cs),
(466,36,o),
(397,-12,o),
(300,-12,cs)
);
},
{
closed = 1;
nodes = (
(345,8,o),
(382,20,o),
(413,43,cs),
(473,89,o),
(505,181,o),
(505,317,cs),
(505,381,ls),
(505,412,o),
(504,441,o),
(501,467,cs),
(497,493,o),
(493,516,o),
(486,536,c),
(484,536,l),
(300,335,l),
(121,139,l),
(153,52,o),
(213,8,o),
(300,8,cs)
);
},
{
closed = 1;
nodes = (
(256,690,o),
(219,679,o),
(188,656,cs),
(127,610,o),
(95,518,o),
(95,381,cs),
(95,317,ls),
(95,286,o),
(96,258,o),
(100,232,cs),
(103,206,o),
(107,181,o),
(114,161,c),
(116,161,l),
(300,363,l),
(479,559,l),
(447,646,o),
(387,690,o),
(300,690,cs)
);
}
);
width = 600;
}
);
},
{
glyphname = one;
layers = (
{
layerId = "880420EB-584C-4B51-BB9F-151DBE095CD5";
shapes = (
{
closed = 1;
nodes = (
(437,0,l),
(266,0,l),
(266,541,l),
(116,461,l),
(116,620,l),
(258,698,l),
(437,698,l)
);
}
);
width = 600;
},
{
layerId = "389CED9B-F3EB-41FE-A5B1-A4D5AEA6A809";
shapes = (
{
closed = 1;
nodes = (
(423,0,l),
(274,0,l),
(274,561,l),
(124,479,l),
(124,619,l),
(266,698,l),
(423,698,l)
);
}
);
width = 600;
},
{
layerId = "0B20A76F-6223-4F08-8632-D01C13B3F8D0";
shapes = (
{
closed = 1;
nodes = (
(382,0,l),
(298,0,l),
(298,622,l),
(148,533,l),
(148,615,l),
(290,698,l),
(382,698,l)
);
}
);
width = 600;
},
{
layerId = "C5DA3672-7219-4097-B42A-B369F4569BEC";
shapes = (
{
closed = 1;
nodes = (
(354,0,l),
(332,0,l),
(332,675,l),
(182,588,l),
(182,612,l),
(330,698,l),
(354,698,l)
);
}
);
width = 600;
}
);
unicode = 49;
},
{
glyphname = two;
layers = (
{
layerId = "880420EB-584C-4B51-BB9F-151DBE095CD5";
shapes = (
{
closed = 1;
nodes = (
(557,143,l),
(557,0,l),
(51,0,l),
(51,154,l),
(262,329,ls),
(303,364,o),
(331,391,o),
(344,412,cs),
(357,432,o),
(363,456,o),
(363,484,cs),
(363,498,ls),
(363,521,o),
(354,537,o),
(335,547,cs),
(316,557,o),
(299,562,o),
(284,562,cs),
(225,562,o),
(196,519,o),
(183,470,c),
(33,527,l),
(44,562,o),
(62,593,o),
(85,620,cs),
(131,675,o),
(202,710,o),
(301,710,cs),
(354,710,o),
(398,701,o),
(435,682,cs),
(507,645,o),
(547,579,o),
(547,498,cs),
(547,457,o),
(538,420,o),
(520,389,cs),
(483,326,o),
(419,276,o),
(350,223,c),
(239,143,l)
);
}
);
width = 600;
},
{
layerId = "389CED9B-F3EB-41FE-A5B1-A4D5AEA6A809";
shapes = (
{
closed = 1;
nodes = (
(551,126,l),
(551,0,l),
(57,0,l),
(57,137,l),
(272,321,ls),
(311,354,o),
(339,383,o),
(354,407,cs),
(369,430,o),
(377,457,o),
(377,486,cs),
(377,500,ls),
(377,527,o),
(367,547,o),
(348,560,cs),
(329,573,o),
(308,580,o),
(285,580,cs),
(220,580,o),
(188,535,o),
(173,482,c),
(42,532,l),
(53,565,o),
(69,594,o),
(91,621,cs),
(134,674,o),
(203,710,o),
(299,710,cs),
(350,710,o),
(393,701,o),
(428,683,cs),
(499,646,o),
(537,581,o),
(537,500,cs),
(537,460,o),
(529,425,o),
(512,394,cs),
(478,332,o),
(418,281,o),
(351,228,cs),
(221,126,l)
);
}
);
width = 600;
},
{
layerId = "0B20A76F-6223-4F08-8632-D01C13B3F8D0";
shapes = (
{
closed = 1;
nodes = (
(533,74,l),
(533,0,l),
(75,0,l),
(75,86,l),
(303,296,ls),
(336,326,o),
(363,358,o),
(385,392,cs),
(407,426,o),
(418,460,o),
(418,493,cs),
(418,505,ls),
(418,544,o),
(407,575,o),
(386,599,cs),
(365,623,o),
(332,635,o),
(289,635,cs),
(204,635,o),
(163,584,o),
(144,517,c),
(69,546,l),
(78,573,o),
(92,600,o),
(110,625,cs),
(145,675,o),
(204,710,o),
(293,710,cs),
(338,710,o),
(377,701,o),
(409,684,cs),
(473,649,o),
(507,587,o),
(507,507,cs),
(507,471,o),
(501,438,o),
(488,408,cs),
(462,348,o),
(414,296,o),
(354,243,cs),
(166,74,l)
);
}
);
width = 600;
},
{
layerId = "C5DA3672-7219-4097-B42A-B369F4569BEC";
shapes = (
{
closed = 1;
nodes = (
(521,20,l),
(521,0,l),
(87,0,l),
(87,22,l),
(356,294,ls),
(389,327,o),
(415,361,o),
(434,396,cs),
(453,430,o),
(462,465,o),
(462,502,cs),
(462,532,ls),
(462,577,o),
(448,615,o),
(420,645,cs),
(391,675,o),
(349,690,o),
(294,690,cs),
(190,690,o),
(134,636,o),
(107,551,c),
(87,555,l),
(96,586,o),
(109,613,o),
(127,636,cs),
(162,682,o),
(218,710,o),
(294,710,cs),
(336,710,o),
(371,702,o),
(400,687,c),
(456,655,o),
(486,596,o),
(486,516,cs),
(486,487,o),
(482,459,o),
(473,432,cs),
(455,379,o),
(421,330,o),
(370,279,cs),
(112,20,l)
);
}
);
width = 600;
}
);
unicode = 50;
},
{
glyphname = three;
layers = (
{
layerId = "880420EB-584C-4B51-BB9F-151DBE095CD5";
shapes = (
{
closed = 1;
nodes = (
(201,429,l),
(262,429,ls),
(296,429,o),
(321,435,o),
(336,447,cs),
(351,458,o),
(358,473,o),
(358,490,cs),
(358,497,ls),
(358,518,o),
(351,536,o),
(336,551,cs),
(321,565,o),
(301,572,o),
(274,572,cs),
(223,572,o),
(169,544,o),
(133,491,c),
(28,592,l),
(48,617,o),
(70,638,o),
(93,655,cs),
(140,690,o),
(199,710,o),
(280,710,cs),
(333,710,o),
(379,702,o),
(418,686,cs),
(495,654,o),
(539,597,o),
(539,522,cs),
(539,477,o),
(526,442,o),
(499,416,cs),
(472,389,o),
(441,373,o),
(406,367,c),
(406,360,l),
(435,355,o),
(460,346,o),
(482,332,cs),
(525,303,o),
(550,256,o),
(550,195,cs),
(550,153,o),
(539,117,o),
(516,86,cs),
(470,24,o),
(385,-12,o),
(276,-12,cs),
(226,-12,o),
(184,-6,o),
(150,7,cs),
(82,32,o),
(39,78,o),
(7,127,c),
(134,226,l),
(163,167,o),
(205,126,o),
(276,126,cs),
(305,126,o),
(328,134,o),
(345,149,cs),
(362,164,o),
(370,184,o),
(370,209,cs),
(370,215,ls),
(370,263,o),
(326,286,o),
(258,286,cs),
(201,286,l)
);
}
);
width = 600;
},
{
layerId = "389CED9B-F3EB-41FE-A5B1-A4D5AEA6A809";
shapes = (
{
closed = 1;
nodes = (
(197,422,l),
(262,422,ls),
(299,422,o),
(327,429,o),
(344,444,cs),
(361,458,o),
(369,476,o),
(369,497,cs),
(369,504,ls),
(369,529,o),
(361,550,o),
(344,565,cs),
(327,580,o),
(304,588,o),
(275,588,cs),
(219,588,o),
(168,558,o),
(133,505,c),
(39,593,l),
(57,616,o),
(77,637,o),
(99,654,cs),
(143,689,o),
(200,710,o),
(280,710,cs),
(330,710,o),
(374,702,o),
(411,687,cs),
(485,656,o),
(527,600,o),
(527,525,cs),
(527,480,o),
(514,445,o),
(488,418,cs),
(461,391,o),
(430,375,o),
(394,368,c),
(394,362,l),
(422,357,o),
(447,348,o),
(469,334,cs),
(512,305,o),
(539,258,o),
(539,194,cs),
(539,153,o),
(528,117,o),
(506,86,cs),
(461,24,o),
(379,-12,o),
(274,-12,cs),
(227,-12,o),
(187,-6,o),
(154,7,cs),
(89,31,o),
(47,75,o),
(16,122,c),
(127,208,l),
(158,151,o),
(199,110,o),
(274,110,cs),
(308,110,o),
(335,119,o),
(354,136,cs),
(373,153,o),
(382,176,o),
(382,205,cs),
(382,211,ls),
(382,268,o),
(336,297,o),
(260,297,cs),
(197,297,l)
);
}
);
width = 600;
},
{
layerId = "0B20A76F-6223-4F08-8632-D01C13B3F8D0";
shapes = (
{
closed = 1;
nodes = (
(185,402,l),
(261,402,ls),
(308,402,o),
(344,413,o),
(368,435,cs),
(391,457,o),
(403,485,o),
(403,518,cs),
(403,525,ls),
(403,562,o),
(392,589,o),
(369,608,cs),
(346,626,o),
(315,635,o),
(278,635,cs),
(206,635,o),
(163,601,o),
(134,548,c),
(72,596,l),
(84,615,o),
(99,633,o),
(117,650,cs),
(153,685,o),
(205,710,o),
(280,710,cs),
(319,710,o),
(355,703,o),
(387,690,c),
(451,662,o),
(492,610,o),
(492,534,cs),
(492,489,o),
(479,453,o),
(453,426,cs),
(427,399,o),
(395,380,o),
(358,371,c),
(358,367,l),
(383,362,o),
(407,353,o),
(430,339,c),
(474,310,o),
(505,262,o),
(505,191,cs),
(505,151,o),
(495,116,o),
(476,86,cs),
(436,25,o),
(363,-12,o),
(268,-12,cs),
(228,-12,o),
(194,-6,o),
(166,6,cs),
(109,29,o),
(71,67,o),
(42,107,c),
(105,155,l),
(141,100,o),
(182,63,o),
(267,63,cs),
(316,63,o),
(354,74,o),
(379,97,cs),
(404,120,o),
(417,151,o),
(417,192,cs),
(417,200,ls),
(417,283,o),
(366,329,o),
(267,329,cs),
(185,329,l)
);
}
);
width = 600;
},
{
layerId = "C5DA3672-7219-4097-B42A-B369F4569BEC";
shapes = (
{
closed = 1;
nodes = (
(186,376,l),
(280,376,ls),
(331,376,o),
(372,390,o),
(404,417,cs),
(435,444,o),
(451,479,o),
(451,522,cs),
(451,546,ls),
(451,589,o),
(436,624,o),
(406,651,c),
(375,677,o),
(336,690,o),
(287,690,cs),
(194,690,o),
(144,651,o),
(113,591,c),
(95,599,l),
(104,621,o),
(118,640,o),
(135,657,cs),
(170,690,o),
(220,710,o),
(287,710,cs),
(325,710,o),
(358,703,o),
(387,689,c),
(443,660,o),
(475,607,o),
(475,536,cs),
(475,487,o),
(462,448,o),
(436,421,cs),
(410,394,o),
(376,376,o),
(335,368,c),
(335,365,l),
(366,361,o),
(394,352,o),
(417,337,cs),
(464,307,o),
(490,256,o),
(490,187,cs),
(490,146,o),
(482,111,o),
(465,81,cs),
(431,21,o),
(368,-12,o),
(283,-12,cs),
(251,-12,o),
(222,-8,o),
(195,-1,c),
(142,15,o),
(101,47,o),
(70,95,c),
(88,106,l),
(131,38,o),
(194,8,o),
(283,8,cs),
(337,8,o),
(381,23,o),
(415,53,cs),
(449,82,o),
(466,121,o),
(466,170,cs),
(466,198,ls),
(466,293,o),
(395,356,o),
(282,356,cs),
(186,356,l)
);
}
);
width = 600;
}
);
unicode = 51;
},
{
glyphname = four;
layers = (
{
layerId = "880420EB-584C-4B51-BB9F-151DBE095CD5";
shapes = (
{
closed = 1;
nodes = (
(488,0,l),
(324,0,l),
(324,133,l),
(27,133,l),
(27,279,l),
(293,698,l),
(488,698,l),
(488,264,l),
(572,264,l),
(572,133,l),
(488,133,l)
);
},
{
closed = 1;
nodes = (
(313,513,l),
(161,264,l),
(324,264,l),
(324,513,l)
);
}
);
width = 600;
},
{
layerId = "389CED9B-F3EB-41FE-A5B1-A4D5AEA6A809";
shapes = (
{
closed = 1;
nodes = (
(480,0,l),
(337,0,l),
(337,134,l),
(30,134,l),
(30,262,l),
(302,698,l),
(480,698,l),
(480,250,l),
(568,250,l),
(568,134,l),
(480,134,l)
);
},
{
closed = 1;
nodes = (
(327,543,l),
(150,250,l),
(337,250,l),
(337,543,l)
);
}
);
width = 600;
},
{
layerId = "0B20A76F-6223-4F08-8632-D01C13B3F8D0";
shapes = (
{
closed = 1;
nodes = (
(455,0,l),
(375,0,l),
(375,137,l),
(38,137,l),
(38,211,l),
(330,698,l),
(455,698,l),
(455,207,l),
(556,207,l),
(556,137,l),
(455,137,l)
);
},
{
closed = 1;
nodes = (
(370,633,l),
(117,207,l),
(375,207,l),
(375,633,l)
);
}
);
width = 600;
},
{
layerId = "C5DA3672-7219-4097-B42A-B369F4569BEC";
shapes = (
{
closed = 1;
nodes = (
(432,0,l),
(412,0,l),
(412,160,l),
(47,160,l),
(47,181,l),
(407,698,l),
(432,698,l),
(432,179,l),
(550,179,l),
(550,160,l),
(432,160,l)
);
},
{
closed = 1;
nodes = (
(410,670,l),
(69,179,l),
(412,179,l),
(412,670,l)
);
}
);
width = 600;
}
);
unicode = 52;
},
{
glyphname = five;
layers = (
{
layerId = "880420EB-584C-4B51-BB9F-151DBE095CD5";
shapes = (
{
closed = 1;
nodes = (
(530,698,l),
(530,548,l),
(209,548,l),
(196,342,l),
(204,342,l),
(213,366,o),
(223,387,o),
(235,406,cs),
(259,442,o),
(294,464,o),
(357,464,cs),
(397,464,o),
(433,455,o),
(466,438,c),
(531,402,o),
(574,335,o),
(574,240,cs),
(574,192,o),
(563,149,o),
(542,111,cs),
(499,35,o),
(415,-12,o),
(295,-12,cs),
(248,-12,o),
(208,-6,o),
(175,7,cs),
(107,32,o),
(64,78,o),
(36,127,c),
(160,226,l),
(175,199,o),
(193,176,o),
(214,156,cs),
(235,136,o),
(262,126,o),
(296,126,cs),
(329,126,o),
(353,136,o),
(369,155,cs),
(385,174,o),
(393,198,o),
(393,228,cs),
(393,235,ls),
(393,290,o),
(357,326,o),
(302,326,cs),
(277,326,o),
(255,321,o),
(238,310,cs),
(220,299,o),
(207,289,o),
(199,280,c),
(59,299,l),
(85,698,l)
);
}
);
width = 600;
},
{
layerId = "389CED9B-F3EB-41FE-A5B1-A4D5AEA6A809";
shapes = (
{
closed = 1;
nodes = (
(522,698,l),
(522,567,l),
(205,567,l),
(190,346,l),
(198,346,l),
(207,368,o),
(218,387,o),
(230,404,cs),
(254,437,o),
(289,457,o),
(348,457,cs),
(388,457,o),
(424,448,o),
(457,431,c),
(521,395,o),
(563,328,o),
(563,235,cs),
(563,188,o),
(553,145,o),
(532,108,cs),
(491,33,o),
(410,-12,o),
(295,-12,cs),
(250,-12,o),
(212,-6,o),
(180,7,c),
(116,31,o),
(74,75,o),
(46,122,c),
(155,208,l),
(170,181,o),
(189,158,o),
(210,139,cs),
(231,120,o),
(260,110,o),
(296,110,cs),
(332,110,o),
(359,120,o),
(378,141,cs),
(396,162,o),
(405,189,o),
(405,223,cs),
(405,231,ls),
(405,295,o),
(365,335,o),
(300,335,cs),
(273,335,o),
(251,330,o),
(233,319,cs),
(215,308,o),
(201,297,o),
(192,286,c),
(69,303,l),
(95,698,l)
);
}
);
width = 600;
},
{
layerId = "0B20A76F-6223-4F08-8632-D01C13B3F8D0";
shapes = (
{
closed = 1;
nodes = (
(498,698,l),
(498,624,l),
(192,624,l),
(172,358,l),
(179,358,l),
(190,374,o),
(202,388,o),
(215,399,cs),
(240,422,o),
(274,435,o),
(322,435,cs),
(362,435,o),
(398,426,o),
(429,409,cs),
(492,374,o),
(530,310,o),
(530,219,cs),
(530,174,o),
(521,134,o),
(502,99,cs),
(465,30,o),
(394,-12,o),
(295,-12,cs),
(256,-12,o),
(223,-6,o),
(196,6,cs),
(141,29,o),
(105,67,o),
(77,107,c),
(140,155,l),
(158,128,o),
(178,106,o),
(200,89,cs),
(221,72,o),
(253,63,o),
(295,63,cs),
(342,63,o),
(379,76,o),
(404,101,cs),
(429,126,o),
(441,162,o),
(441,208,cs),
(441,218,ls),
(441,310,o),
(390,363,o),
(295,363,cs),
(263,363,o),
(238,357,o),
(220,346,cs),
(201,334,o),
(185,320,o),
(170,304,c),
(99,314,l),
(124,698,l)
);
}
);
width = 600;
},
{
layerId = "C5DA3672-7219-4097-B42A-B369F4569BEC";
shapes = (
{
closed = 1;
nodes = (
(481,698,l),
(481,678,l),
(158,678,l),
(134,344,l),
(137,343,l),
(150,360,o),
(165,374,o),
(182,385,cs),
(214,405,o),
(255,413,o),
(304,413,cs),
(347,413,o),
(383,405,o),
(413,388,cs),
(472,355,o),
(505,291,o),
(505,203,cs),
(505,159,o),
(497,121,o),
(480,89,cs),
(446,24,o),
(382,-12,o),
(297,-12,cs),
(265,-12,o),
(236,-8,o),
(209,-1,c),
(156,15,o),
(115,47,o),
(84,95,c),
(102,106,l),
(123,72,o),
(150,47,o),
(182,32,cs),
(214,16,o),
(252,8,o),
(297,8,cs),
(356,8,o),
(401,25,o),
(433,59,cs),
(465,92,o),
(481,135,o),
(481,188,cs),
(481,216,ls),
(481,321,o),
(419,393,o),
(304,393,cs),
(261,393,o),
(228,387,o),
(204,376,cs),
(180,365,o),
(158,347,o),
(137,323,c),
(114,326,l),
(140,698,l)
);
}
);
width = 600;
}
);
unicode = 53;
},
{
glyphname = six;
layers = (
{
layerId = "880420EB-584C-4B51-BB9F-151DBE095CD5";
shapes = (
{
closed = 1;
nodes = (
(247,-12,o),
(198,-1,o),
(158,23,cs),
(77,69,o),
(34,156,o),
(34,268,cs),
(34,365,o),
(65,451,o),
(114,524,cs),
(162,597,o),
(223,657,o),
(284,698,c),
(524,698,l),
(465,656,o),
(414,617,o),
(371,580,cs),
(285,506,o),
(230,435,o),
(214,352,c),
(224,349,l),
(231,366,o),
(241,383,o),
(253,400,cs),
(276,432,o),
(314,455,o),
(374,455,cs),
(412,455,o),
(446,446,o),
(477,429,c),
(538,393,o),
(577,326,o),
(577,238,cs),
(577,190,o),
(566,147,o),
(544,110,cs),
(499,34,o),
(416,-12,o),
(305,-12,cs)
);
},
{
closed = 1;
nodes = (
(324,120,o),
(341,124,o),
(355,131,cs),
(382,146,o),
(398,172,o),
(398,212,cs),
(398,233,ls),
(398,253,o),
(394,270,o),
(387,284,c),
(371,311,o),
(344,326,o),
(305,326,cs),
(286,326,o),
(270,322,o),
(257,315,cs),
(229,300,o),
(213,273,o),
(213,233,cs),
(213,212,ls),
(213,192,o),
(217,175,o),
(225,162,cs),
(240,135,o),
(268,120,o),
(305,120,cs)
);
}
);
width = 600;
},
{
layerId = "389CED9B-F3EB-41FE-A5B1-A4D5AEA6A809";
shapes = (
{
closed = 1;
nodes = (
(249,-12,o),
(202,-1,o),
(163,22,cs),
(85,67,o),
(42,153,o),
(42,265,cs),
(42,364,o),
(74,451,o),
(123,525,cs),
(171,599,o),
(232,658,o),
(292,698,c),
(499,698,l),
(442,657,o),
(393,619,o),
(352,583,cs),
(269,510,o),
(218,437,o),
(199,348,c),
(208,345,l),
(216,363,o),
(226,380,o),
(239,396,cs),
(264,428,o),
(303,450,o),
(362,450,cs),
(401,450,o),
(435,441,o),
(466,424,c),
(527,388,o),
(566,321,o),
(566,233,cs),
(566,186,o),
(555,144,o),
(534,107,cs),
(490,33,o),
(411,-12,o),
(304,-12,cs)
);
},
{
closed = 1;
nodes = (
(326,105,o),
(345,109,o),
(361,118,cs),
(392,134,o),
(410,166,o),
(410,211,cs),
(410,229,ls),
(410,252,o),
(406,271,o),
(397,287,cs),
(380,318,o),
(348,335,o),
(304,335,cs),
(282,335,o),
(263,331,o),
(248,323,cs),
(216,306,o),
(198,274,o),
(198,229,cs),
(198,211,ls),
(198,188,o),
(202,169,o),
(211,154,c),
(228,122,o),
(260,105,o),
(304,105,cs)
);
}
);
width = 600;
},
{
layerId = "0B20A76F-6223-4F08-8632-D01C13B3F8D0";
shapes = (
{
closed = 1;
nodes = (
(253,-12,o),
(212,-1,o),
(177,21,cs),
(107,64,o),
(67,145,o),
(67,256,cs),
(67,360,o),
(100,451,o),
(150,527,cs),
(200,603,o),
(260,662,o),
(316,698,c),
(424,698,l),
(375,662,o),
(332,627,o),
(297,592,cs),
(225,522,o),
(179,444,o),
(154,336,c),
(159,334,l),
(170,353,o),
(184,371,o),
(199,386,cs),
(229,416,o),
(271,434,o),
(327,434,cs),
(367,434,o),
(403,425,o),
(434,408,cs),
(496,373,o),
(533,307,o),
(533,219,cs),
(533,174,o),
(523,134,o),
(504,99,cs),
(465,29,o),
(394,-12,o),
(301,-12,cs)
);
},
{
closed = 1;
nodes = (
(331,61,o),
(357,67,o),
(379,78,cs),
(422,101,o),
(446,145,o),
(446,208,cs),
(446,216,ls),
(446,247,o),
(440,274,o),
(429,296,c),
(405,340,o),
(361,363,o),
(300,363,cs),
(269,363,o),
(243,357,o),
(222,346,cs),
(178,323,o),
(154,279,o),
(154,216,cs),
(154,208,ls),
(154,177,o),
(160,150,o),
(172,128,cs),
(195,84,o),
(239,61,o),
(300,61,cs)
);
}
);
width = 600;
},
{
layerId = "C5DA3672-7219-4097-B42A-B369F4569BEC";
shapes = (
{
closed = 1;
nodes = (
(249,-12,o),
(208,-1,o),
(177,20,cs),
(114,63,o),
(87,138,o),
(87,226,cs),
(87,339,o),
(117,434,o),
(166,511,cs),
(215,588,o),
(283,650,o),
(360,698,c),
(392,698,l),
(338,665,o),
(292,629,o),
(254,590,cs),
(178,513,o),
(132,422,o),
(113,311,c),
(116,310,l),
(128,334,o),
(143,354,o),
(161,370,cs),
(197,402,o),
(244,417,o),
(299,417,cs),
(342,417,o),
(380,409,o),
(412,392,cs),
(475,358,o),
(511,293,o),
(511,205,cs),
(511,162,o),
(502,124,o),
(485,91,cs),
(450,26,o),
(387,-12,o),
(300,-12,cs)
);
},
{
closed = 1;
nodes = (
(338,8,o),
(372,16,o),
(400,32,cs),
(456,63,o),
(487,119,o),
(487,187,cs),
(487,218,ls),
(487,252,o),
(480,283,o),
(465,310,cs),
(435,364,o),
(378,397,o),
(299,397,cs),
(259,397,o),
(225,389,o),
(197,374,c),
(141,342,o),
(111,286,o),
(111,218,cs),
(111,190,ls),
(111,155,o),
(119,124,o),
(134,97,cs),
(165,42,o),
(222,8,o),
(299,8,cs)
);
}
);
width = 600;
}
);
unicode = 54;
},
{
glyphname = seven;
layers = (
{
layerId = "880420EB-584C-4B51-BB9F-151DBE095CD5";
shapes = (
{
closed = 1;
nodes = (
(344,0,l),
(163,0,l),
(386,559,l),
(50,559,l),
(50,698,l),
(556,698,l),
(556,549,l)
);
}
);
width = 600;
},
{
layerId = "389CED9B-F3EB-41FE-A5B1-A4D5AEA6A809";
shapes = (
{
closed = 1;
nodes = (
(324,0,l),
(166,0,l),
(400,576,l),
(55,576,l),
(55,698,l),
(549,698,l),
(549,568,l)
);
}
);
width = 600;
},
{
layerId = "0B20A76F-6223-4F08-8632-D01C13B3F8D0";
shapes = (
{
closed = 1;
nodes = (
(265,0,l),
(175,0,l),
(442,626,l),
(69,626,l),
(69,698,l),
(527,698,l),
(527,624,l)
);
}
);
width = 600;
},
{
layerId = "C5DA3672-7219-4097-B42A-B369F4569BEC";
shapes = (
{
closed = 1;
nodes = (
(211,0,l),
(187,0,l),
(489,678,l),
(77,678,l),
(77,698,l),
(512,698,l),
(512,678,l)
);
}
);
width = 600;
}
);
unicode = 55;
},
{
glyphname = eight;
layers = (
{
layerId = "880420EB-584C-4B51-BB9F-151DBE095CD5";
shapes = (
{
closed = 1;
nodes = (
(245,-12,o),
(197,-3,o),
(157,15,cs),
(77,50,o),
(34,114,o),
(34,191,cs),
(34,279,o),
(87,336,o),
(170,359,c),
(170,367,l),
(103,392,o),
(55,442,o),
(55,523,cs),
(55,576,o),
(76,621,o),
(118,657,cs),
(160,692,o),
(221,710,o),
(300,710,cs),
(380,710,o),
(441,692,o),
(483,657,cs),
(524,621,o),
(545,576,o),
(545,523,cs),
(545,442,o),
(497,392,o),
(430,367,c),
(430,359,l),
(513,336,o),
(566,279,o),
(566,191,cs),
(566,152,o),
(556,118,o),
(535,87,cs),
(493,26,o),
(412,-12,o),
(300,-12,cs)
);
},
{
closed = 1;
nodes = (
(328,117,o),
(349,124,o),
(364,138,cs),
(379,152,o),
(386,171,o),
(386,194,cs),
(386,214,ls),
(386,237,o),
(379,256,o),
(364,270,cs),
(349,284,o),
(328,291,o),
(300,291,cs),
(273,291,o),
(252,284,o),
(237,270,cs),
(222,256,o),
(214,237,o),
(214,214,cs),
(214,194,ls),
(214,171,o),
(222,152,o),
(237,138,cs),
(252,124,o),
(273,117,o),
(300,117,cs)
);
},
{
closed = 1;
nodes = (
(355,414,o),
(386,444,o),
(386,489,cs),
(386,506,ls),
(386,551,o),
(355,581,o),
(300,581,cs),
(245,581,o),
(214,551,o),
(214,506,cs),
(214,489,ls),
(214,444,o),
(245,414,o),
(300,414,cs)
);
}
);
width = 600;
},
{
layerId = "389CED9B-F3EB-41FE-A5B1-A4D5AEA6A809";
shapes = (
{
closed = 1;
nodes = (
(245,-12,o),
(199,-3,o),
(160,15,cs),
(82,50,o),
(40,114,o),
(40,191,cs),
(40,280,o),
(94,337,o),
(177,360,c),
(177,368,l),
(109,393,o),
(61,445,o),
(61,526,cs),
(61,579,o),
(82,623,o),
(123,658,cs),
(164,693,o),
(223,710,o),
(300,710,cs),
(377,710,o),
(437,693,o),
(478,658,cs),
(519,623,o),
(539,579,o),
(539,526,cs),
(539,445,o),
(491,393,o),
(423,368,c),
(423,360,l),
(506,337,o),
(560,280,o),
(560,191,cs),
(560,152,o),
(550,118,o),
(530,87,cs),
(489,26,o),
(411,-12,o),
(300,-12,cs)
);
},
{
closed = 1;
nodes = (
(333,103,o),
(359,111,o),
(377,127,cs),
(394,143,o),
(403,165,o),
(403,192,cs),
(403,212,ls),
(403,239,o),
(394,261,o),
(377,277,cs),
(359,293,o),
(333,301,o),
(300,301,cs),
(267,301,o),
(242,293,o),
(224,277,cs),
(206,261,o),
(197,239,o),
(197,212,cs),
(197,192,ls),
(197,165,o),
(206,143,o),
(224,127,cs),
(242,111,o),
(267,103,o),
(300,103,cs)
);
},
{
closed = 1;
nodes = (
(363,411,o),
(398,443,o),
(398,495,cs),
(398,511,ls),
(398,563,o),
(363,595,o),
(300,595,cs),
(237,595,o),
(202,563,o),
(202,511,cs),
(202,495,ls),
(202,443,o),
(237,411,o),
(300,411,cs)
);
}
);
width = 600;
},
{
layerId = "0B20A76F-6223-4F08-8632-D01C13B3F8D0";
shapes = (
{
closed = 1;
nodes = (
(247,-12,o),
(203,-3,o),
(167,15,cs),
(95,50,o),
(58,114,o),
(58,190,cs),
(58,285,o),
(115,340,o),
(199,363,c),
(199,371,l),
(126,396,o),
(79,455,o),
(79,535,cs),
(79,588,o),
(99,631,o),
(138,663,cs),
(177,694,o),
(231,710,o),
(300,710,cs),
(369,710,o),
(424,694,o),
(463,663,cs),
(502,631,o),
(521,588,o),
(521,535,cs),
(521,455,o),
(474,396,o),
(401,371,c),
(401,363,l),
(485,340,o),
(542,285,o),
(542,190,cs),
(542,152,o),
(533,118,o),
(515,87,cs),
(478,26,o),
(407,-12,o),
(300,-12,cs)
);
},
{
closed = 1;
nodes = (
(349,61,o),
(386,72,o),
(413,94,cs),
(440,116,o),
(453,147,o),
(453,186,cs),
(453,207,ls),
(453,246,o),
(440,277,o),
(413,299,cs),
(386,321,o),
(349,332,o),
(300,332,cs),
(251,332,o),
(214,321,o),
(187,299,cs),
(160,277,o),
(147,246,o),
(147,207,cs),
(147,186,ls),
(147,147,o),
(160,116,o),
(187,94,cs),
(214,72,o),
(251,61,o),
(300,61,cs)
);
},
{
closed = 1;
nodes = (
(387,402,o),
(434,441,o),
(434,512,cs),
(434,527,ls),
(434,598,o),
(387,637,o),
(300,637,cs),
(213,637,o),
(166,598,o),
(166,527,cs),
(166,512,ls),
(166,441,o),
(213,402,o),
(300,402,cs)
);
}
);
width = 600;
},
{
layerId = "C5DA3672-7219-4097-B42A-B369F4569BEC";
shapes = (
{
closed = 1;
nodes = (
(253,-12,o),
(213,-4,o),
(179,12,cs),
(111,44,o),
(72,103,o),
(72,180,cs),
(72,279,o),
(131,348,o),
(226,364,c),
(226,368,l),
(146,384,o),
(96,446,o),
(96,535,cs),
(96,588,o),
(114,631,o),
(151,663,cs),
(188,694,o),
(237,710,o),
(300,710,cs),
(363,710,o),
(412,694,o),
(449,663,cs),
(486,631,o),
(504,588,o),
(504,535,cs),
(504,446,o),
(454,384,o),
(374,368,c),
(374,364,l),
(469,348,o),
(528,279,o),
(528,180,cs),
(528,141,o),
(519,108,o),
(500,79,cs),
(463,22,o),
(393,-12,o),
(300,-12,cs)
);
},
{
closed = 1;
nodes = (
(362,8,o),
(412,23,o),
(449,53,cs),
(486,83,o),
(504,122,o),
(504,169,cs),
(504,195,ls),
(504,242,o),
(486,281,o),
(449,311,cs),
(412,341,o),
(362,356,o),
(300,356,cs),
(238,356,o),
(189,341,o),
(152,311,cs),
(115,281,o),
(96,242,o),
(96,195,cs),
(96,169,ls),
(96,122,o),
(115,83,o),
(152,53,cs),
(189,23,o),
(238,8,o),
(300,8,cs)
);
},
{
closed = 1;
nodes = (
(409,376,o),
(480,434,o),
(480,521,cs),
(480,545,ls),
(480,632,o),
(409,690,o),
(300,690,cs),
(191,690,o),
(120,632,o),
(120,545,cs),
(120,521,ls),
(120,434,o),
(191,376,o),
(300,376,cs)
);
}
);
width = 600;
}
);
unicode = 56;
},
{
glyphname = nine;
layers = (
{
layerId = "880420EB-584C-4B51-BB9F-151DBE095CD5";
shapes = (
{
closed = 1;
nodes = (
(566,335,o),
(535,247,o),
(487,174,cs),
(438,101,o),
(377,41,o),
(316,0,c),
(76,0,l),
(135,42,o),
(186,82,o),
(229,119,cs),
(316,193,o),
(370,265,o),
(386,346,c),
(376,349,l),
(369,332,o),
(359,316,o),
(348,299,c),
(324,266,o),
(287,243,o),
(226,243,cs),
(189,243,o),
(155,252,o),
(124,270,cs),
(62,306,o),
(23,372,o),
(23,460,cs),
(23,509,o),
(34,552,o),
(57,589,cs),
(101,664,o),
(186,710,o),
(295,710,cs),
(352,710,o),
(401,699,o),
(442,676,cs),
(523,630,o),
(566,542,o),
(566,430,cs)
);
},
{
closed = 1;
nodes = (
(314,372,o),
(330,376,o),
(344,383,cs),
(371,398,o),
(387,425,o),
(387,465,cs),
(387,486,ls),
(387,506,o),
(383,523,o),
(376,536,cs),
(360,563,o),
(332,578,o),
(295,578,cs),
(276,578,o),
(259,574,o),
(246,567,cs),
(218,552,o),
(202,526,o),
(202,486,cs),
(202,465,ls),
(202,445,o),
(206,428,o),
(214,415,c),
(229,387,o),
(256,372,o),
(295,372,cs)
);
}
);
width = 600;
},
{
layerId = "389CED9B-F3EB-41FE-A5B1-A4D5AEA6A809";
shapes = (
{
closed = 1;
nodes = (
(558,336,o),
(526,248,o),
(478,174,cs),
(429,100,o),
(368,40,o),
(308,0,c),
(101,0,l),
(158,41,o),
(207,79,o),
(248,116,cs),
(331,188,o),
(382,262,o),
(401,350,c),
(392,353,l),
(384,336,o),
(374,319,o),
(361,303,cs),
(336,270,o),
(298,248,o),
(238,248,cs),
(200,248,o),
(166,257,o),
(135,275,cs),
(73,311,o),
(34,377,o),
(34,465,cs),
(34,513,o),
(45,555,o),
(67,592,cs),
(110,665,o),
(191,710,o),
(296,710,cs),
(351,710,o),
(399,699,o),
(438,676,cs),
(516,631,o),
(558,545,o),
(558,433,cs)
);
},
{
closed = 1;
nodes = (
(318,363,o),
(337,367,o),
(353,376,cs),
(384,392,o),
(402,424,o),
(402,469,cs),
(402,487,ls),
(402,510,o),
(398,529,o),
(389,545,cs),
(372,576,o),
(340,593,o),
(296,593,cs),
(274,593,o),
(255,589,o),
(240,581,cs),
(208,564,o),
(190,532,o),
(190,487,cs),
(190,469,ls),
(190,446,o),
(194,427,o),
(203,412,c),
(220,380,o),
(252,363,o),
(296,363,cs)
);
}
);
width = 600;
},
{
layerId = "0B20A76F-6223-4F08-8632-D01C13B3F8D0";
shapes = (
{
closed = 1;
nodes = (
(533,338,o),
(501,247,o),
(451,171,cs),
(401,95,o),
(340,36,o),
(284,0,c),
(176,0,l),
(226,37,o),
(269,72,o),
(304,107,cs),
(375,176,o),
(421,254,o),
(446,362,c),
(441,364,l),
(430,345,o),
(417,328,o),
(402,313,cs),
(371,282,o),
(330,264,o),
(273,264,cs),
(233,264,o),
(198,273,o),
(167,290,cs),
(105,325,o),
(67,391,o),
(67,479,cs),
(67,525,o),
(77,565,o),
(96,600,cs),
(135,669,o),
(206,710,o),
(299,710,cs),
(348,710,o),
(389,699,o),
(424,678,c),
(493,634,o),
(533,553,o),
(533,442,cs)
);
},
{
closed = 1;
nodes = (
(331,335,o),
(357,341,o),
(379,352,cs),
(422,375,o),
(446,419,o),
(446,482,cs),
(446,490,ls),
(446,521,o),
(440,548,o),
(429,570,c),
(405,614,o),
(361,637,o),
(300,637,cs),
(269,637,o),
(243,631,o),
(222,620,cs),
(178,597,o),
(154,553,o),
(154,490,cs),
(154,482,ls),
(154,451,o),
(160,424,o),
(172,402,cs),
(195,358,o),
(239,335,o),
(300,335,cs)
);
}
);
width = 600;
},
{
layerId = "C5DA3672-7219-4097-B42A-B369F4569BEC";
shapes = (
{
closed = 1;
nodes = (
(516,359,o),
(486,264,o),
(437,187,cs),
(388,110,o),
(320,48,o),
(243,0,c),
(211,0,l),
(265,34,o),
(311,70,o),
(349,109,cs),
(425,185,o),
(471,276,o),
(490,387,c),
(487,388,l),
(476,364,o),
(461,344,o),
(443,329,cs),
(406,297,o),
(359,281,o),
(304,281,cs),
(261,281,o),
(224,290,o),
(192,307,cs),
(128,341,o),
(92,406,o),
(92,493,cs),
(92,537,o),
(101,575,o),
(118,608,cs),
(153,672,o),
(218,710,o),
(303,710,cs),
(354,710,o),
(395,699,o),
(426,678,cs),
(489,635,o),
(516,561,o),
(516,472,cs)
);
},
{
closed = 1;
nodes = (
(344,301,o),
(378,309,o),
(406,325,cs),
(462,356,o),
(492,413,o),
(492,480,cs),
(492,508,ls),
(492,543,o),
(484,574,o),
(469,601,cs),
(438,656,o),
(381,690,o),
(304,690,cs),
(265,690,o),
(232,682,o),
(204,667,cs),
(147,635,o),
(116,579,o),
(116,511,cs),
(116,480,ls),
(116,447,o),
(124,416,o),
(139,389,cs),
(169,334,o),
(225,301,o),
(304,301,cs)
);
}
);
width = 600;
}
);
unicode = 57;
},
{
glyphname = zero.tosf;
layers = (
{
layerId = "880420EB-584C-4B51-BB9F-151DBE095CD5";
shapes = (
{
closed = 1;
nodes = (
(247,-12,o),
(200,0,o),
(159,25,cs),
(76,74,o),
(27,164,o),
(27,275,cs),
(27,330,o),
(39,380,o),
(62,423,cs),
(109,509,o),
(195,561,o),
(300,561,cs),
(353,561,o),
(400,549,o),
(441,524,cs),
(524,475,o),
(573,386,o),
(573,275,cs),
(573,220,o),
(561,170,o),
(538,127,cs),
(491,40,o),
(405,-12,o),
(300,-12,cs)
);
},
{
closed = 1;
nodes = (
(319,127,o),
(335,131,o),
(349,140,cs),
(376,156,o),
(391,185,o),
(391,224,cs),
(391,326,ls),
(391,345,o),
(387,361,o),
(380,376,cs),
(365,405,o),
(337,422,o),
(300,422,cs),
(281,422,o),
(264,418,o),
(251,410,cs),
(224,394,o),
(209,363,o),
(209,326,cs),
(209,224,ls),
(209,205,o),
(213,188,o),
(220,174,cs),
(235,145,o),
(261,127,o),
(300,127,cs)
);
}
);
width = 600;
},
{
layerId = "389CED9B-F3EB-41FE-A5B1-A4D5AEA6A809";
shapes = (
{
closed = 1;
nodes = (
(249,-12,o),
(203,0,o),
(163,24,cs),
(83,72,o),
(35,161,o),
(35,273,cs),
(35,330,o),
(46,379,o),
(69,422,cs),
(114,507,o),
(197,558,o),
(300,558,cs),
(351,558,o),
(397,546,o),
(437,522,cs),
(517,474,o),
(565,386,o),
(565,273,cs),
(565,217,o),
(554,168,o),
(531,125,cs),
(486,39,o),
(403,-12,o),
(300,-12,cs)
);
},
{
closed = 1;
nodes = (
(321,110,o),
(340,115,o),
(356,124,cs),
(388,142,o),
(407,175,o),
(407,222,cs),
(407,324,ls),
(407,347,o),
(403,367,o),
(394,384,cs),
(376,417,o),
(343,436,o),
(300,436,cs),
(279,436,o),
(260,432,o),
(244,423,cs),
(212,405,o),
(193,371,o),
(193,324,cs),
(193,222,ls),
(193,199,o),
(198,179,o),
(207,162,cs),
(225,129,o),
(257,110,o),
(300,110,cs)
);
}
);
width = 600;
},
{
layerId = "0B20A76F-6223-4F08-8632-D01C13B3F8D0";
shapes = (
{
closed = 1;
nodes = (
(253,-12,o),
(212,-1,o),
(176,21,cs),
(103,65,o),
(59,151,o),
(59,268,cs),
(59,327,o),
(69,378,o),
(90,420,cs),
(131,503,o),
(207,548,o),
(300,548,cs),
(347,548,o),
(388,537,o),
(425,515,cs),
(497,471,o),
(541,387,o),
(541,268,cs),
(541,209,o),
(531,159,o),
(510,117,cs),
(469,33,o),
(393,-12,o),
(300,-12,cs)
);
},
{
closed = 1;
nodes = (
(329,59,o),
(355,65,o),
(378,76,cs),
(425,99,o),
(455,145,o),
(455,217,cs),
(455,319,ls),
(455,356,o),
(448,386,o),
(434,409,cs),
(406,455,o),
(357,477,o),
(300,477,cs),
(272,477,o),
(246,471,o),
(223,460,cs),
(175,437,o),
(145,392,o),
(145,319,cs),
(145,217,ls),
(145,181,o),
(152,151,o),
(166,128,cs),
(194,81,o),
(244,59,o),
(300,59,cs)
);
}
);
width = 600;
},
{
layerId = "C5DA3672-7219-4097-B42A-B369F4569BEC";
shapes = (
{
closed = 1;
nodes = (
(256,-12,o),
(217,-2,o),
(183,19,cs),
(114,60,o),
(72,142,o),
(72,263,cs),
(72,324,o),
(82,374,o),
(102,415,cs),
(141,496,o),
(212,538,o),
(300,538,cs),
(344,538,o),
(383,528,o),
(418,507,cs),
(486,466,o),
(528,384,o),
(528,263,cs),
(528,202,o),
(518,152,o),
(499,111,cs),
(459,30,o),
(388,-12,o),
(300,-12,cs)
);
},
{
closed = 1;
nodes = (
(340,7,o),
(375,17,o),
(406,36,cs),
(467,74,o),
(505,144,o),
(505,239,cs),
(505,287,ls),
(505,334,o),
(496,375,o),
(479,410,c),
(443,479,o),
(380,519,o),
(300,519,cs),
(260,519,o),
(225,510,o),
(194,491,cs),
(133,453,o),
(95,382,o),
(95,287,cs),
(95,239,ls),
(95,192,o),
(104,151,o),
(122,116,cs),
(157,47,o),
(220,7,o),
(300,7,cs)
);
}
);
width = 600;
}
);
},
{
glyphname = zero.tosf.alt01;
layers = (
{
layerId = "880420EB-584C-4B51-BB9F-151DBE095CD5";
shapes = (
{
closed = 1;
nodes = (
(260,216,o),
(240,238,o),
(240,267,cs),
(240,282,ls),
(240,313,o),
(260,333,o),
(300,333,cs),
(340,333,o),
(360,313,o),
(360,282,cs),
(360,267,ls),
(360,236,o),
(340,216,o),
(300,216,cs)
);
},
{
closed = 1;
nodes = (
(320,127,o),
(337,131,o),
(350,140,c),
(377,156,o),
(392,185,o),
(392,224,cs),
(392,326,ls),
(392,345,o),
(388,361,o),
(381,376,cs),
(366,405,o),
(340,422,o),
(300,422,cs),
(281,422,o),
(264,418,o),
(251,410,cs),
(223,394,o),
(208,363,o),
(208,326,cs),
(208,224,ls),
(208,205,o),
(212,188,o),
(219,174,cs),
(234,145,o),
(261,127,o),
(300,127,cs)
);
},
{
closed = 1;
nodes = (
(247,-12,o),
(200,0,o),
(159,25,cs),
(76,74,o),
(27,164,o),
(27,275,cs),
(27,330,o),
(39,380,o),
(62,423,cs),
(109,509,o),
(195,561,o),
(300,561,cs),
(353,561,o),
(400,549,o),
(441,524,cs),
(524,475,o),
(573,386,o),
(573,275,cs),
(573,220,o),
(561,170,o),
(538,127,cs),
(491,40,o),
(405,-12,o),
(300,-12,cs)
);
}
);
width = 600;
},
{
layerId = "389CED9B-F3EB-41FE-A5B1-A4D5AEA6A809";
shapes = (
{
closed = 1;
nodes = (
(261,216,o),
(242,237,o),
(242,266,cs),
(242,280,ls),
(242,309,o),
(261,330,o),
(300,330,cs),
(339,330,o),
(358,309,o),
(358,280,cs),
(358,266,ls),
(358,237,o),
(339,216,o),
(300,216,cs)
);
},
{
closed = 1;
nodes = (
(322,110,o),
(341,115,o),
(357,124,cs),
(389,142,o),
(408,175,o),
(408,222,cs),
(408,324,ls),
(408,347,o),
(404,367,o),
(395,384,cs),
(377,417,o),
(344,436,o),
(300,436,cs),
(279,436,o),
(260,432,o),
(244,423,cs),
(211,405,o),
(192,371,o),
(192,324,cs),
(192,222,ls),
(192,199,o),
(197,179,o),
(206,162,cs),
(224,129,o),
(257,110,o),
(300,110,cs)
);
},
{
closed = 1;
nodes = (
(249,-12,o),
(203,0,o),
(163,24,cs),
(83,72,o),
(35,161,o),
(35,273,cs),
(35,330,o),
(46,379,o),
(69,422,cs),
(114,507,o),
(197,558,o),
(300,558,cs),
(351,558,o),
(397,546,o),
(437,522,cs),
(517,474,o),
(565,386,o),
(565,273,cs),
(565,217,o),
(554,168,o),
(531,125,cs),
(486,39,o),
(403,-12,o),
(300,-12,cs)
);
}
);
width = 600;
},
{
layerId = "0B20A76F-6223-4F08-8632-D01C13B3F8D0";
shapes = (
{
closed = 1;
nodes = (
(265,215,o),
(249,235,o),
(249,262,cs),
(249,273,ls),
(249,300,o),
(265,321,o),
(300,321,cs),
(335,321,o),
(351,301,o),
(351,274,cs),
(351,263,ls),
(351,236,o),
(335,215,o),
(300,215,cs)
);
},
{
closed = 1;
nodes = (
(329,59,o),
(355,65,o),
(378,76,cs),
(425,99,o),
(455,145,o),
(455,217,cs),
(455,319,ls),
(455,356,o),
(448,386,o),
(434,409,cs),
(406,455,o),
(357,477,o),
(300,477,cs),
(272,477,o),
(246,471,o),
(223,460,cs),
(175,437,o),
(145,392,o),
(145,319,cs),
(145,217,ls),
(145,181,o),
(152,151,o),
(166,128,cs),
(194,81,o),
(244,59,o),
(300,59,cs)
);
},
{
closed = 1;
nodes = (
(253,-12,o),
(212,-1,o),
(176,21,cs),
(103,65,o),
(59,151,o),
(59,268,cs),
(59,327,o),
(69,378,o),
(90,420,cs),
(131,503,o),
(207,548,o),
(300,548,cs),
(347,548,o),
(388,537,o),
(425,515,cs),
(497,471,o),
(541,387,o),
(541,268,cs),
(541,209,o),
(531,159,o),
(510,117,cs),
(469,33,o),
(393,-12,o),
(300,-12,cs)
);
}
);
width = 600;
},
{
layerId = "C5DA3672-7219-4097-B42A-B369F4569BEC";
shapes = (
{
closed = 1;
nodes = (
(283,239,o),
(276,248,o),
(276,259,cs),
(276,267,ls),
(276,278,o),
(283,287,o),
(300,287,cs),
(317,287,o),
(324,278,o),
(324,267,cs),
(324,259,ls),
(324,248,o),
(317,239,o),
(300,239,cs)
);
},
{
closed = 1;
nodes = (
(340,7,o),
(375,17,o),
(406,36,cs),
(467,74,o),
(505,144,o),
(505,239,cs),
(505,287,ls),
(505,334,o),
(496,375,o),
(479,410,c),
(443,479,o),
(380,519,o),
(300,519,cs),
(260,519,o),
(225,510,o),
(194,491,cs),
(133,453,o),
(95,382,o),
(95,287,cs),
(95,239,ls),
(95,192,o),
(104,151,o),
(122,116,cs),
(157,47,o),
(220,7,o),
(300,7,cs)
);
},
{
closed = 1;
nodes = (
(256,-12,o),
(217,-2,o),
(183,19,cs),
(114,60,o),
(72,142,o),
(72,263,cs),
(72,324,o),
(82,374,o),
(102,415,cs),
(141,496,o),
(212,538,o),
(300,538,cs),
(344,538,o),
(383,528,o),
(418,507,cs),
(486,466,o),
(528,384,o),
(528,263,cs),
(528,202,o),
(518,152,o),
(499,111,cs),
(459,30,o),
(388,-12,o),
(300,-12,cs)
);
}
);
width = 600;
}
);
},
{
glyphname = zero.tosf.alt02;
layers = (
{
layerId = "880420EB-584C-4B51-BB9F-151DBE095CD5";
shapes = (
{
closed = 1;
nodes = (
(247,-12,o),
(200,0,o),
(159,25,cs),
(76,74,o),
(27,164,o),
(27,275,cs),
(27,330,o),
(39,380,o),
(62,423,cs),
(109,509,o),
(195,561,o),
(300,561,cs),
(353,561,o),
(400,549,o),
(441,524,cs),
(524,475,o),
(573,386,o),
(573,275,cs),
(573,220,o),
(561,170,o),
(538,127,cs),
(491,40,o),
(405,-12,o),
(300,-12,cs)
);
},
{
closed = 1;
nodes = (
(321,120,o),
(340,124,o),
(355,133,cs),
(386,150,o),
(403,184,o),
(403,224,cs),
(403,280,ls),
(403,284,o),
(403,299,o),
(406,303,c),
(405,303,l),
(318,222,l),
(231,143,l),
(248,130,o),
(271,120,o),
(300,120,cs)
);
},
{
closed = 1;
nodes = (
(278,429,o),
(260,425,o),
(245,416,cs),
(215,399,o),
(197,367,o),
(197,326,cs),
(197,269,ls),
(197,265,o),
(197,251,o),
(194,246,c),
(197,246,l),
(281,326,l),
(369,407,l),
(352,422,o),
(331,429,o),
(300,429,cs)
);
}
);
width = 600;
},
{
layerId = "389CED9B-F3EB-41FE-A5B1-A4D5AEA6A809";
shapes = (
{
closed = 1;
nodes = (
(249,-12,o),
(203,0,o),
(163,24,cs),
(83,72,o),
(35,161,o),
(35,273,cs),
(35,330,o),
(46,379,o),
(69,422,cs),
(114,507,o),
(197,558,o),
(300,558,cs),
(351,558,o),
(397,546,o),
(437,522,cs),
(517,474,o),
(565,386,o),
(565,273,cs),
(565,217,o),
(554,168,o),
(531,125,cs),
(486,39,o),
(403,-12,o),
(300,-12,cs)
);
},
{
closed = 1;
nodes = (
(323,105,o),
(344,110,o),
(361,119,cs),
(396,138,o),
(416,174,o),
(416,222,cs),
(416,290,ls),
(416,298,o),
(416,314,o),
(416,322,c),
(415,322,l),
(317,227,l),
(219,133,l),
(239,116,o),
(267,105,o),
(300,105,cs)
);
},
{
closed = 1;
nodes = (
(277,441,o),
(256,436,o),
(239,427,cs),
(204,408,o),
(184,373,o),
(184,324,cs),
(184,256,ls),
(184,248,o),
(184,232,o),
(184,224,c),
(186,224,l),
(282,318,l),
(381,413,l),
(361,432,o),
(335,441,o),
(300,441,cs)
);
}
);
width = 600;
},
{
layerId = "0B20A76F-6223-4F08-8632-D01C13B3F8D0";
shapes = (
{
closed = 1;
nodes = (
(253,-12,o),
(212,-1,o),
(176,21,cs),
(103,65,o),
(59,151,o),
(59,268,cs),
(59,327,o),
(69,378,o),
(90,420,cs),
(131,503,o),
(207,548,o),
(300,548,cs),
(347,548,o),
(388,537,o),
(425,515,cs),
(497,471,o),
(541,387,o),
(541,268,cs),
(541,209,o),
(531,159,o),
(510,117,cs),
(469,33,o),
(393,-12,o),
(300,-12,cs)
);
},
{
closed = 1;
nodes = (
(329,59,o),
(355,65,o),
(378,76,cs),
(425,99,o),
(455,145,o),
(455,217,cs),
(455,319,ls),
(455,342,o),
(452,361,o),
(447,378,c),
(446,378,l),
(315,241,l),
(184,104,l),
(212,73,o),
(255,59,o),
(300,59,cs)
);
},
{
closed = 1;
nodes = (
(272,477,o),
(246,471,o),
(223,460,cs),
(175,437,o),
(145,392,o),
(145,319,cs),
(145,217,ls),
(145,196,o),
(148,175,o),
(153,158,c),
(154,158,l),
(284,295,l),
(416,432,l),
(388,463,o),
(347,477,o),
(300,477,cs)
);
}
);
width = 600;
},
{
layerId = "C5DA3672-7219-4097-B42A-B369F4569BEC";
shapes = (
{
closed = 1;
nodes = (
(256,-12,o),
(217,-2,o),
(183,19,cs),
(114,60,o),
(72,142,o),
(72,263,cs),
(72,324,o),
(82,374,o),
(102,415,cs),
(141,496,o),
(212,538,o),
(300,538,cs),
(344,538,o),
(383,528,o),
(418,507,cs),
(486,466,o),
(528,384,o),
(528,263,cs),
(528,202,o),
(518,152,o),
(499,111,cs),
(459,30,o),
(388,-12,o),
(300,-12,cs)
);
},
{
closed = 1;
nodes = (
(340,7,o),
(375,17,o),
(406,36,cs),
(467,74,o),
(505,144,o),
(505,239,cs),
(505,287,ls),
(505,344,o),
(490,394,o),
(466,431,c),
(465,431,l),
(305,255,l),
(145,80,l),
(181,33,o),
(236,7,o),
(300,7,cs)
);
},
{
closed = 1;
nodes = (
(260,519,o),
(225,510,o),
(194,491,cs),
(133,453,o),
(95,382,o),
(95,287,cs),
(95,239,ls),
(95,182,o),
(110,134,o),
(134,95,c),
(135,95,l),
(294,270,l),
(455,446,l),
(419,493,o),
(364,519,o),
(300,519,cs)
);
}
);
width = 600;
}
);
},
{
glyphname = one.tosf;
layers = (
{
layerId = "880420EB-584C-4B51-BB9F-151DBE095CD5";
shapes = (
{
closed = 1;
nodes = (
(437,0,l),
(266,0,l),
(266,392,l),
(116,312,l),
(116,472,l),
(258,549,l),
(437,549,l)
);
}
);
width = 600;
},
{
layerId = "389CED9B-F3EB-41FE-A5B1-A4D5AEA6A809";
shapes = (
{
closed = 1;
nodes = (
(423,0,l),
(274,0,l),
(274,409,l),
(124,327,l),
(124,467,l),
(266,546,l),
(423,546,l)
);
}
);
width = 600;
},
{
layerId = "0B20A76F-6223-4F08-8632-D01C13B3F8D0";
shapes = (
{
closed = 1;
nodes = (
(382,0,l),
(298,0,l),
(298,460,l),
(148,371,l),
(148,453,l),
(290,536,l),
(382,536,l)
);
}
);
width = 600;
},
{
layerId = "C5DA3672-7219-4097-B42A-B369F4569BEC";
shapes = (
{
closed = 1;
nodes = (
(354,0,l),
(332,0,l),
(332,513,l),
(182,426,l),
(182,450,l),
(330,536,l),
(354,536,l)
);
}
);
width = 600;
}
);
},
{
glyphname = two.tosf;
layers = (
{
layerId = "880420EB-584C-4B51-BB9F-151DBE095CD5";
shapes = (
{
closed = 1;
nodes = (
(56,0,l),
(56,132,l),
(256,243,ls),
(277,254,o),
(294,265,o),
(307,277,cs),
(333,301,o),
(342,324,o),
(342,343,cs),
(342,359,ls),
(342,382,o),
(334,399,o),
(317,412,cs),
(300,424,o),
(282,430,o),
(265,430,cs),
(210,430,o),
(177,395,o),
(157,355,c),
(44,428,l),
(56,451,o),
(73,473,o),
(95,493,cs),
(138,533,o),
(202,561,o),
(283,561,cs),
(428,561,o),
(518,494,o),
(518,362,cs),
(518,324,o),
(508,292,o),
(488,266,cs),
(448,213,o),
(383,177,o),
(330,153,cs),
(278,130,l),
(551,130,l),
(551,0,l)
);
}
);
width = 600;
},
{
layerId = "389CED9B-F3EB-41FE-A5B1-A4D5AEA6A809";
shapes = (
{
closed = 1;
nodes = (
(64,0,l),
(64,119,l),
(256,230,ls),
(278,243,o),
(297,256,o),
(312,269,cs),
(342,296,o),
(356,323,o),
(356,347,cs),
(356,362,ls),
(356,388,o),
(347,408,o),
(330,422,c),
(312,435,o),
(292,442,o),
(269,442,cs),
(210,442,o),
(175,404,o),
(154,361,c),
(54,426,l),
(66,449,o),
(82,470,o),
(103,490,cs),
(144,530,o),
(204,558,o),
(283,558,cs),
(424,558,o),
(510,491,o),
(510,364,cs),
(510,327,o),
(500,296,o),
(481,269,cs),
(442,216,o),
(379,178,o),
(322,149,cs),
(255,115,l),
(546,115,l),
(546,0,l)
);
}
);
width = 600;
},
{
layerId = "0B20A76F-6223-4F08-8632-D01C13B3F8D0";
shapes = (
{
closed = 1;
nodes = (
(88,0,l),
(88,81,l),
(255,192,ls),
(281,209,o),
(305,227,o),
(327,245,cs),
(370,280,o),
(399,317,o),
(399,360,cs),
(399,372,ls),
(399,407,o),
(389,433,o),
(369,451,c),
(348,468,o),
(319,477,o),
(282,477,cs),
(211,477,o),
(169,430,o),
(146,379,c),
(85,419,l),
(96,441,o),
(110,462,o),
(128,482,cs),
(163,521,o),
(214,548,o),
(283,548,cs),
(414,548,o),
(485,481,o),
(485,370,cs),
(485,337,o),
(477,306,o),
(460,279,cs),
(427,224,o),
(367,181,o),
(298,138,cs),
(187,70,l),
(530,70,l),
(530,0,l)
);
}
);
width = 600;
},
{
layerId = "C5DA3672-7219-4097-B42A-B369F4569BEC";
shapes = (
{
closed = 1;
nodes = (
(89,0,l),
(89,22,l),
(299,171,ls),
(325,190,o),
(349,209,o),
(371,228,cs),
(415,267,o),
(443,310,o),
(443,358,cs),
(443,379,ls),
(443,420,o),
(429,454,o),
(402,480,c),
(374,505,o),
(334,518,o),
(281,518,cs),
(197,518,o),
(141,468,o),
(112,399,c),
(92,408,l),
(103,433,o),
(118,456,o),
(135,475,cs),
(170,514,o),
(218,538,o),
(281,538,cs),
(397,538,o),
(467,477,o),
(467,368,cs),
(467,339,o),
(460,312,o),
(447,288,cs),
(420,239,o),
(372,197,o),
(313,156,cs),
(117,20,l),
(516,20,l),
(516,0,l)
);
}
);
width = 600;
}
);
},
{
glyphname = three.tosf;
layers = (
{
layerId = "880420EB-584C-4B51-BB9F-151DBE095CD5";
shapes = (
{
closed = 1;
nodes = (
(226,-153,o),
(188,-147,o),
(156,-136,cs),
(91,-112,o),
(49,-68,o),
(17,-19,c),
(137,75,l),
(166,18,o),
(206,-20,o),
(271,-20,cs),
(289,-20,o),
(305,-17,o),
(318,-11,cs),
(344,1,o),
(357,25,o),
(357,58,cs),
(357,71,ls),
(357,119,o),
(317,147,o),
(253,147,cs),
(200,147,l),
(200,277,l),
(257,277,ls),
(288,277,o),
(311,284,o),
(324,297,cs),
(337,310,o),
(344,324,o),
(344,341,cs),
(344,357,ls),
(344,378,o),
(338,396,o),
(325,409,cs),
(312,422,o),
(294,429,o),
(269,429,cs),
(221,429,o),
(174,406,o),
(138,353,c),
(39,449,l),
(59,473,o),
(80,493,o),
(102,510,cs),
(145,542,o),
(198,561,o),
(275,561,cs),
(326,561,o),
(370,553,o),
(407,538,cs),
(480,507,o),
(521,450,o),
(521,375,cs),
(521,332,o),
(508,298,o),
(483,272,cs),
(458,245,o),
(427,229,o),
(392,222,c),
(392,215,l),
(420,210,o),
(445,200,o),
(466,185,cs),
(508,156,o),
(533,111,o),
(533,52,cs),
(533,10,o),
(522,-26,o),
(501,-57,c),
(457,-118,o),
(376,-153,o),
(271,-153,cs)
);
}
);
width = 600;
},
{
layerId = "389CED9B-F3EB-41FE-A5B1-A4D5AEA6A809";
shapes = (
{
closed = 1;
nodes = (
(229,-156,o),
(192,-150,o),
(161,-139,c),
(99,-115,o),
(58,-73,o),
(27,-26,c),
(132,56,l),
(163,-1,o),
(203,-39,o),
(272,-39,cs),
(293,-39,o),
(312,-35,o),
(327,-28,cs),
(358,-13,o),
(374,14,o),
(374,53,cs),
(374,65,ls),
(374,121,o),
(331,153,o),
(258,153,cs),
(199,153,l),
(199,268,l),
(260,268,ls),
(295,268,o),
(321,276,o),
(337,291,cs),
(353,306,o),
(361,324,o),
(361,345,cs),
(361,359,ls),
(361,384,o),
(353,404,o),
(338,419,cs),
(323,434,o),
(301,441,o),
(273,441,cs),
(220,441,o),
(174,415,o),
(139,362,c),
(50,445,l),
(68,468,o),
(87,487,o),
(108,504,cs),
(149,537,o),
(202,558,o),
(278,558,cs),
(327,558,o),
(369,551,o),
(404,536,cs),
(475,506,o),
(515,450,o),
(515,375,cs),
(515,332,o),
(502,297,o),
(477,270,cs),
(451,243,o),
(420,226,o),
(384,219,c),
(384,213,l),
(411,208,o),
(436,198,o),
(458,184,cs),
(501,155,o),
(528,109,o),
(528,48,cs),
(528,7,o),
(517,-29,o),
(496,-60,cs),
(453,-121,o),
(375,-156,o),
(272,-156,cs)
);
}
);
width = 600;
},
{
layerId = "0B20A76F-6223-4F08-8632-D01C13B3F8D0";
shapes = (
{
closed = 1;
nodes = (
(236,-166,o),
(203,-160,o),
(176,-149,cs),
(121,-125,o),
(85,-87,o),
(56,-47,c),
(116,-2,l),
(153,-57,o),
(194,-95,o),
(275,-95,cs),
(307,-95,o),
(334,-90,o),
(357,-79,cs),
(401,-58,o),
(426,-17,o),
(426,38,cs),
(426,46,ls),
(426,126,o),
(373,170,o),
(274,170,cs),
(195,170,l),
(195,242,l),
(268,242,ls),
(315,242,o),
(351,253,o),
(376,275,cs),
(400,297,o),
(412,325,o),
(412,358,cs),
(412,365,ls),
(412,402,o),
(400,430,o),
(377,449,cs),
(354,468,o),
(323,477,o),
(286,477,cs),
(215,477,o),
(171,441,o),
(142,388,c),
(82,434,l),
(94,453,o),
(109,471,o),
(127,488,cs),
(163,523,o),
(215,548,o),
(288,548,cs),
(327,548,o),
(363,541,o),
(395,528,cs),
(458,501,o),
(498,449,o),
(498,374,cs),
(498,329,o),
(485,293,o),
(458,266,cs),
(431,239,o),
(398,220,o),
(361,211,c),
(361,207,l),
(386,202,o),
(411,193,o),
(434,180,cs),
(480,152,o),
(512,106,o),
(512,37,cs),
(512,-2,o),
(502,-37,o),
(483,-68,c),
(443,-129,o),
(371,-166,o),
(275,-166,cs)
);
}
);
width = 600;
},
{
layerId = "C5DA3672-7219-4097-B42A-B369F4569BEC";
shapes = (
{
closed = 1;
nodes = (
(242,-176,o),
(215,-172,o),
(191,-164,cs),
(142,-148,o),
(105,-116,o),
(74,-69,c),
(92,-58,l),
(133,-123,o),
(190,-156,o),
(271,-156,cs),
(308,-156,o),
(341,-149,o),
(370,-136,c),
(426,-109,o),
(460,-60,o),
(460,4,cs),
(460,32,ls),
(460,127,o),
(391,188,o),
(282,188,cs),
(192,188,l),
(192,208,l),
(280,208,ls),
(329,208,o),
(368,221,o),
(399,248,cs),
(430,275,o),
(445,309,o),
(445,352,cs),
(445,376,ls),
(445,419,o),
(430,453,o),
(401,479,cs),
(371,505,o),
(332,518,o),
(285,518,cs),
(196,518,o),
(148,478,o),
(117,419,c),
(99,427,l),
(108,449,o),
(121,468,o),
(138,485,cs),
(171,518,o),
(221,538,o),
(285,538,cs),
(322,538,o),
(355,531,o),
(382,517,cs),
(437,489,o),
(469,437,o),
(469,366,cs),
(469,317,o),
(457,279,o),
(432,252,cs),
(407,225,o),
(374,207,o),
(335,200,c),
(335,197,l),
(365,193,o),
(391,184,o),
(414,169,cs),
(458,140,o),
(484,89,o),
(484,21,cs),
(484,-20,o),
(475,-55,o),
(458,-84,cs),
(423,-143,o),
(358,-176,o),
(271,-176,cs)
);
}
);
width = 600;
}
);
},
{
glyphname = four.tosf;
layers = (
{
layerId = "880420EB-584C-4B51-BB9F-151DBE095CD5";
shapes = (
{
closed = 1;
nodes = (
(491,-141,l),
(324,-141,l),
(324,0,l),
(16,0,l),
(16,133,l),
(293,549,l),
(491,549,l),
(491,123,l),
(571,123,l),
(571,0,l),
(491,0,l)
);
},
{
closed = 1;
nodes = (
(312,362,l),
(156,123,l),
(324,123,l),
(324,362,l)
);
}
);
width = 600;
},
{
layerId = "389CED9B-F3EB-41FE-A5B1-A4D5AEA6A809";
shapes = (
{
closed = 1;
nodes = (
(482,-144,l),
(337,-144,l),
(337,0,l),
(20,0,l),
(20,118,l),
(302,546,l),
(482,546,l),
(482,110,l),
(568,110,l),
(568,0,l),
(482,0,l)
);
},
{
closed = 1;
nodes = (
(327,389,l),
(145,110,l),
(337,110,l),
(337,389,l)
);
}
);
width = 600;
},
{
layerId = "0B20A76F-6223-4F08-8632-D01C13B3F8D0";
shapes = (
{
closed = 1;
nodes = (
(456,-154,l),
(376,-154,l),
(376,0,l),
(32,0,l),
(32,74,l),
(330,536,l),
(456,536,l),
(456,70,l),
(560,70,l),
(560,0,l),
(456,0,l)
);
},
{
closed = 1;
nodes = (
(372,471,l),
(112,70,l),
(376,70,l),
(376,471,l)
);
}
);
width = 600;
},
{
layerId = "C5DA3672-7219-4097-B42A-B369F4569BEC";
shapes = (
{
closed = 1;
nodes = (
(428,-164,l),
(408,-164,l),
(408,0,l),
(51,0,l),
(51,21,l),
(403,526,l),
(428,526,l),
(428,19,l),
(546,19,l),
(546,0,l),
(428,0,l)
);
},
{
closed = 1;
nodes = (
(406,498,l),
(73,19,l),
(408,19,l),
(408,498,l)
);
}
);
width = 600;
}
);
},
{
glyphname = five.tosf;
layers = (
{
layerId = "880420EB-584C-4B51-BB9F-151DBE095CD5";
shapes = (
{
closed = 1;
nodes = (
(248,-153,o),
(211,-147,o),
(179,-135,cs),
(115,-111,o),
(73,-70,o),
(45,-21,c),
(165,73,l),
(180,46,o),
(197,24,o),
(216,7,cs),
(235,-11,o),
(261,-20,o),
(294,-20,cs),
(323,-20,o),
(345,-11,o),
(361,8,cs),
(376,27,o),
(384,50,o),
(384,78,cs),
(384,88,ls),
(384,141,o),
(348,183,o),
(296,183,cs),
(272,183,o),
(253,178,o),
(238,168,cs),
(223,158,o),
(211,148,o),
(204,139,c),
(63,159,l),
(92,549,l),
(518,549,l),
(518,413,l),
(216,413,l),
(200,205,l),
(209,205,l),
(220,237,o),
(235,263,o),
(255,284,cs),
(275,305,o),
(306,315,o),
(349,315,cs),
(388,315,o),
(423,306,o),
(455,289,cs),
(518,254,o),
(560,190,o),
(560,95,cs),
(560,48,o),
(550,5,o),
(530,-32,cs),
(489,-107,o),
(407,-153,o),
(290,-153,cs)
);
}
);
width = 600;
},
{
layerId = "389CED9B-F3EB-41FE-A5B1-A4D5AEA6A809";
shapes = (
{
closed = 1;
nodes = (
(250,-156,o),
(214,-150,o),
(183,-139,c),
(122,-115,o),
(81,-75,o),
(53,-28,c),
(158,54,l),
(173,27,o),
(191,5,o),
(212,-13,cs),
(232,-30,o),
(259,-39,o),
(294,-39,cs),
(327,-39,o),
(353,-29,o),
(371,-8,cs),
(389,13,o),
(398,39,o),
(398,72,cs),
(398,81,ls),
(398,144,o),
(358,189,o),
(295,189,cs),
(269,189,o),
(248,184,o),
(233,174,cs),
(217,163,o),
(204,153,o),
(195,142,c),
(72,159,l),
(100,546,l),
(512,546,l),
(512,426,l),
(210,426,l),
(193,205,l),
(201,205,l),
(213,234,o),
(229,259,o),
(250,278,cs),
(271,297,o),
(301,306,o),
(341,306,cs),
(380,306,o),
(416,297,o),
(448,280,cs),
(511,245,o),
(552,180,o),
(552,87,cs),
(552,40,o),
(542,-1,o),
(522,-38,cs),
(482,-111,o),
(403,-156,o),
(291,-156,cs)
);
}
);
width = 600;
},
{
layerId = "0B20A76F-6223-4F08-8632-D01C13B3F8D0";
shapes = (
{
closed = 1;
nodes = (
(255,-166,o),
(223,-160,o),
(196,-149,cs),
(142,-126,o),
(106,-88,o),
(77,-49,c),
(137,-4,l),
(155,-31,o),
(176,-53,o),
(199,-70,cs),
(222,-87,o),
(254,-95,o),
(295,-95,cs),
(342,-95,o),
(379,-82,o),
(404,-55,cs),
(429,-28,o),
(441,8,o),
(441,53,cs),
(441,61,ls),
(441,152,o),
(387,208,o),
(291,208,cs),
(260,208,o),
(236,202,o),
(218,191,cs),
(200,180,o),
(184,166,o),
(169,150,c),
(100,160,l),
(125,536,l),
(493,536,l),
(493,466,l),
(191,466,l),
(171,204,l),
(178,204,l),
(194,227,o),
(213,245,o),
(235,258,cs),
(257,271,o),
(285,278,o),
(318,278,cs),
(359,278,o),
(395,270,o),
(426,253,cs),
(489,219,o),
(527,153,o),
(527,64,cs),
(527,19,o),
(518,-21,o),
(499,-56,cs),
(462,-125,o),
(392,-166,o),
(293,-166,cs)
);
}
);
width = 600;
},
{
layerId = "C5DA3672-7219-4097-B42A-B369F4569BEC";
shapes = (
{
closed = 1;
nodes = (
(265,-176,o),
(236,-172,o),
(211,-165,c),
(160,-149,o),
(120,-117,o),
(89,-69,c),
(107,-58,l),
(128,-92,o),
(154,-117,o),
(185,-133,cs),
(216,-148,o),
(253,-156,o),
(296,-156,cs),
(353,-156,o),
(398,-139,o),
(429,-106,cs),
(460,-72,o),
(475,-29,o),
(475,24,cs),
(475,52,ls),
(475,157,o),
(415,229,o),
(303,229,cs),
(262,229,o),
(231,223,o),
(208,212,cs),
(185,201,o),
(163,183,o),
(142,159,c),
(119,162,l),
(145,526,l),
(475,526,l),
(475,506,l),
(163,506,l),
(139,180,l),
(142,179,l),
(162,205,o),
(185,223,o),
(211,234,cs),
(236,244,o),
(267,249,o),
(303,249,cs),
(344,249,o),
(380,241,o),
(409,224,cs),
(468,191,o),
(499,127,o),
(499,39,cs),
(499,-5,o),
(491,-43,o),
(474,-76,cs),
(441,-140,o),
(379,-176,o),
(296,-176,cs)
);
}
);
width = 600;
}
);
},
{
glyphname = six.tosf;
layers = (
{
layerId = "880420EB-584C-4B51-BB9F-151DBE095CD5";
shapes = (
{
closed = 1;
nodes = (
(248,-12,o),
(199,-1,o),
(160,23,c),
(80,69,o),
(37,156,o),
(37,268,cs),
(37,363,o),
(67,451,o),
(115,524,cs),
(162,597,o),
(223,657,o),
(284,698,c),
(502,698,l),
(446,656,o),
(398,617,o),
(359,580,cs),
(279,506,o),
(231,435,o),
(215,352,c),
(226,349,l),
(233,366,o),
(242,383,o),
(254,400,cs),
(277,432,o),
(314,455,o),
(374,455,cs),
(412,455,o),
(446,446,o),
(476,429,cs),
(536,393,o),
(573,326,o),
(573,238,cs),
(573,189,o),
(562,146,o),
(540,109,cs),
(496,35,o),
(416,-12,o),
(305,-12,cs)
);
},
{
closed = 1;
nodes = (
(325,120,o),
(342,124,o),
(355,131,cs),
(382,146,o),
(397,172,o),
(397,212,cs),
(397,233,ls),
(397,253,o),
(393,270,o),
(386,284,cs),
(371,311,o),
(345,326,o),
(305,326,cs),
(286,326,o),
(270,322,o),
(257,315,cs),
(229,300,o),
(214,273,o),
(214,233,cs),
(214,212,ls),
(214,192,o),
(218,175,o),
(225,162,cs),
(240,135,o),
(268,120,o),
(305,120,cs)
);
}
);
width = 600;
},
{
layerId = "389CED9B-F3EB-41FE-A5B1-A4D5AEA6A809";
shapes = (
{
closed = 1;
nodes = (
(249,-12,o),
(202,-1,o),
(163,22,cs),
(86,67,o),
(44,153,o),
(44,265,cs),
(44,362,o),
(75,451,o),
(123,525,cs),
(171,599,o),
(232,658,o),
(292,698,c),
(483,698,l),
(428,657,o),
(382,619,o),
(343,583,cs),
(265,510,o),
(218,437,o),
(199,348,c),
(208,345,l),
(216,363,o),
(226,380,o),
(239,396,cs),
(264,428,o),
(303,450,o),
(362,450,cs),
(401,450,o),
(435,441,o),
(466,424,c),
(526,388,o),
(564,321,o),
(564,233,cs),
(564,185,o),
(553,143,o),
(532,106,cs),
(489,33,o),
(411,-12,o),
(304,-12,cs)
);
},
{
closed = 1;
nodes = (
(327,105,o),
(346,109,o),
(362,118,cs),
(393,134,o),
(410,166,o),
(410,211,cs),
(410,229,ls),
(410,252,o),
(406,271,o),
(398,287,cs),
(381,318,o),
(349,335,o),
(304,335,cs),
(282,335,o),
(263,331,o),
(247,323,cs),
(215,306,o),
(198,274,o),
(198,229,cs),
(198,211,ls),
(198,188,o),
(202,169,o),
(211,154,c),
(227,122,o),
(260,105,o),
(304,105,cs)
);
}
);
width = 600;
},
{
layerId = "0B20A76F-6223-4F08-8632-D01C13B3F8D0";
shapes = (
{
closed = 1;
nodes = (
(252,-12,o),
(210,-1,o),
(175,21,cs),
(103,64,o),
(64,145,o),
(64,256,cs),
(64,360,o),
(98,451,o),
(148,527,cs),
(198,603,o),
(260,662,o),
(317,698,c),
(425,698,l),
(374,662,o),
(331,627,o),
(295,592,cs),
(222,522,o),
(177,444,o),
(150,336,c),
(155,334,l),
(166,353,o),
(180,371,o),
(196,386,cs),
(227,416,o),
(270,434,o),
(327,434,cs),
(368,434,o),
(404,425,o),
(435,408,cs),
(498,373,o),
(536,307,o),
(536,219,cs),
(536,174,o),
(526,134,o),
(507,99,cs),
(468,29,o),
(396,-12,o),
(301,-12,cs)
);
},
{
closed = 1;
nodes = (
(332,61,o),
(359,67,o),
(382,78,c),
(426,101,o),
(450,145,o),
(450,208,cs),
(450,216,ls),
(450,247,o),
(444,274,o),
(433,296,c),
(409,340,o),
(364,363,o),
(300,363,cs),
(268,363,o),
(241,357,o),
(219,346,cs),
(174,323,o),
(150,279,o),
(150,216,cs),
(150,208,ls),
(150,177,o),
(156,150,o),
(168,128,cs),
(191,84,o),
(236,61,o),
(300,61,cs)
);
}
);
width = 600;
},
{
layerId = "C5DA3672-7219-4097-B42A-B369F4569BEC";
shapes = (
{
closed = 1;
nodes = (
(249,-12,o),
(208,-1,o),
(177,20,cs),
(114,63,o),
(87,138,o),
(87,226,cs),
(87,339,o),
(117,434,o),
(166,511,cs),
(215,588,o),
(283,650,o),
(360,698,c),
(392,698,l),
(338,665,o),
(292,629,o),
(254,590,cs),
(178,513,o),
(132,422,o),
(113,311,c),
(116,310,l),
(128,334,o),
(143,354,o),
(161,370,cs),
(197,402,o),
(244,417,o),
(299,417,cs),
(342,417,o),
(380,409,o),
(412,392,cs),
(475,358,o),
(511,293,o),
(511,205,cs),
(511,162,o),
(502,124,o),
(485,91,cs),
(450,26,o),
(387,-12,o),
(300,-12,cs)
);
},
{
closed = 1;
nodes = (
(338,8,o),
(372,16,o),
(400,32,cs),
(456,63,o),
(487,119,o),
(487,187,cs),
(487,218,ls),
(487,252,o),
(480,283,o),
(465,310,cs),
(435,364,o),
(378,397,o),
(299,397,cs),
(259,397,o),
(225,389,o),
(197,374,c),
(141,342,o),
(111,286,o),
(111,218,cs),
(111,190,ls),
(111,155,o),
(119,124,o),
(134,97,cs),
(165,42,o),
(222,8,o),
(299,8,cs)
);
}
);
width = 600;
}
);
},
{
glyphname = seven.tosf;
layers = (
{
layerId = "880420EB-584C-4B51-BB9F-151DBE095CD5";
shapes = (
{
closed = 1;
nodes = (
(337,-141,l),
(155,-141,l),
(382,417,l),
(53,417,l),
(53,549,l),
(553,549,l),
(553,420,l)
);
}
);
width = 600;
},
{
layerId = "389CED9B-F3EB-41FE-A5B1-A4D5AEA6A809";
shapes = (
{
closed = 1;
nodes = (
(320,-144,l),
(162,-144,l),
(396,429,l),
(59,429,l),
(59,546,l),
(545,546,l),
(545,431,l)
);
}
);
width = 600;
},
{
layerId = "0B20A76F-6223-4F08-8632-D01C13B3F8D0";
shapes = (
{
closed = 1;
nodes = (
(270,-154,l),
(182,-154,l),
(437,466,l),
(77,466,l),
(77,536,l),
(520,536,l),
(520,464,l)
);
}
);
width = 600;
},
{
layerId = "C5DA3672-7219-4097-B42A-B369F4569BEC";
shapes = (
{
closed = 1;
nodes = (
(222,-164,l),
(198,-164,l),
(477,506,l),
(87,506,l),
(87,526,l),
(500,526,l),
(500,506,l)
);
}
);
width = 600;
}
);
},
{
glyphname = eight.tosf;
layers = (
{
layerId = "880420EB-584C-4B51-BB9F-151DBE095CD5";
shapes = (
{
closed = 1;
nodes = (
(245,-12,o),
(198,-3,o),
(159,15,cs),
(79,51,o),
(36,115,o),
(36,191,cs),
(36,280,o),
(93,338,o),
(176,359,c),
(176,367,l),
(143,378,o),
(115,395,o),
(92,419,cs),
(69,443,o),
(57,477,o),
(57,520,cs),
(57,573,o),
(78,618,o),
(119,655,cs),
(160,692,o),
(221,710,o),
(300,710,cs),
(379,710,o),
(440,692,o),
(481,655,cs),
(522,618,o),
(543,573,o),
(543,520,cs),
(543,433,o),
(490,388,o),
(425,367,c),
(425,359,l),
(509,338,o),
(564,280,o),
(564,191,cs),
(564,153,o),
(554,119,o),
(533,88,cs),
(491,27,o),
(411,-12,o),
(300,-12,cs)
);
},
{
closed = 1;
nodes = (
(329,116,o),
(351,123,o),
(366,138,cs),
(381,153,o),
(389,172,o),
(389,195,cs),
(389,214,ls),
(389,238,o),
(381,257,o),
(366,272,cs),
(350,287,o),
(328,294,o),
(300,294,cs),
(272,294,o),
(250,287,o),
(235,272,cs),
(219,257,o),
(211,238,o),
(211,214,cs),
(211,195,ls),
(211,172,o),
(219,153,o),
(234,138,cs),
(249,123,o),
(271,116,o),
(300,116,cs)
);
},
{
closed = 1;
nodes = (
(355,410,o),
(389,443,o),
(389,488,cs),
(389,505,ls),
(389,549,o),
(357,582,o),
(300,582,cs),
(243,582,o),
(211,549,o),
(211,505,cs),
(211,488,ls),
(211,443,o),
(245,410,o),
(300,410,cs)
);
}
);
width = 600;
},
{
layerId = "389CED9B-F3EB-41FE-A5B1-A4D5AEA6A809";
shapes = (
{
closed = 1;
nodes = (
(246,-12,o),
(200,-3,o),
(161,15,cs),
(84,51,o),
(42,115,o),
(42,191,cs),
(42,282,o),
(99,339,o),
(183,360,c),
(183,368,l),
(149,379,o),
(121,398,o),
(98,423,cs),
(75,448,o),
(63,481,o),
(63,524,cs),
(63,577,o),
(83,622,o),
(124,657,cs),
(165,692,o),
(223,710,o),
(300,710,cs),
(377,710,o),
(435,692,o),
(476,657,cs),
(517,622,o),
(537,577,o),
(537,524,cs),
(537,439,o),
(486,391,o),
(418,368,c),
(418,360,l),
(502,339,o),
(558,282,o),
(558,191,cs),
(558,153,o),
(548,119,o),
(528,88,cs),
(487,27,o),
(409,-12,o),
(300,-12,cs)
);
},
{
closed = 1;
nodes = (
(333,101,o),
(359,109,o),
(378,126,cs),
(396,143,o),
(405,165,o),
(405,192,cs),
(405,212,ls),
(405,240,o),
(396,262,o),
(378,279,cs),
(359,296,o),
(333,304,o),
(300,304,cs),
(267,304,o),
(241,296,o),
(223,279,cs),
(204,262,o),
(195,240,o),
(195,212,cs),
(195,192,ls),
(195,165,o),
(204,143,o),
(223,126,cs),
(241,109,o),
(267,101,o),
(300,101,cs)
);
},
{
closed = 1;
nodes = (
(363,408,o),
(400,443,o),
(400,495,cs),
(400,511,ls),
(400,562,o),
(364,597,o),
(300,597,cs),
(236,597,o),
(200,562,o),
(200,511,cs),
(200,495,ls),
(200,443,o),
(237,408,o),
(300,408,cs)
);
}
);
width = 600;
},
{
layerId = "0B20A76F-6223-4F08-8632-D01C13B3F8D0";
shapes = (
{
closed = 1;
nodes = (
(247,-12,o),
(203,-3,o),
(168,15,cs),
(96,50,o),
(61,114,o),
(61,190,cs),
(61,285,o),
(118,340,o),
(203,363,c),
(203,371,l),
(166,384,o),
(137,404,o),
(115,433,cs),
(93,461,o),
(82,495,o),
(82,535,cs),
(82,588,o),
(101,631,o),
(140,663,cs),
(178,694,o),
(231,710,o),
(300,710,cs),
(369,710,o),
(423,694,o),
(461,663,cs),
(499,631,o),
(518,588,o),
(518,535,cs),
(518,455,o),
(472,396,o),
(397,371,c),
(397,363,l),
(482,340,o),
(539,285,o),
(539,190,cs),
(539,152,o),
(530,118,o),
(513,87,c),
(477,26,o),
(407,-12,o),
(300,-12,cs)
);
},
{
closed = 1;
nodes = (
(348,57,o),
(386,68,o),
(413,91,cs),
(440,114,o),
(453,145,o),
(453,184,cs),
(453,206,ls),
(453,245,o),
(440,276,o),
(413,299,cs),
(386,322,o),
(349,333,o),
(300,333,cs),
(251,333,o),
(214,322,o),
(187,299,cs),
(160,276,o),
(147,245,o),
(147,206,cs),
(147,184,ls),
(147,145,o),
(161,114,o),
(188,91,cs),
(215,68,o),
(252,57,o),
(300,57,cs)
);
},
{
closed = 1;
nodes = (
(387,401,o),
(434,446,o),
(434,515,cs),
(434,529,ls),
(434,600,o),
(385,641,o),
(300,641,cs),
(215,641,o),
(166,600,o),
(166,529,cs),
(166,515,ls),
(166,446,o),
(213,401,o),
(300,401,cs)
);
}
);
width = 600;
},
{
layerId = "C5DA3672-7219-4097-B42A-B369F4569BEC";
shapes = (
{
closed = 1;
nodes = (
(255,-12,o),
(217,-4,o),
(184,12,cs),
(118,44,o),
(80,103,o),
(80,180,cs),
(80,279,o),
(137,349,o),
(226,364,c),
(226,368,l),
(189,375,o),
(159,394,o),
(137,424,cs),
(115,453,o),
(104,490,o),
(104,535,cs),
(104,588,o),
(122,631,o),
(157,663,cs),
(192,694,o),
(240,710,o),
(300,710,cs),
(360,710,o),
(408,694,o),
(443,663,cs),
(478,631,o),
(496,588,o),
(496,535,cs),
(496,446,o),
(449,383,o),
(374,368,c),
(374,364,l),
(465,349,o),
(520,279,o),
(520,180,cs),
(520,141,o),
(511,108,o),
(493,79,cs),
(457,22,o),
(391,-12,o),
(300,-12,cs)
);
},
{
closed = 1;
nodes = (
(359,8,o),
(407,23,o),
(443,53,cs),
(478,83,o),
(496,122,o),
(496,169,cs),
(496,195,ls),
(496,242,o),
(478,281,o),
(443,311,cs),
(407,341,o),
(359,356,o),
(300,356,cs),
(241,356,o),
(193,341,o),
(158,311,cs),
(122,281,o),
(104,242,o),
(104,195,cs),
(104,169,ls),
(104,122,o),
(122,83,o),
(158,53,cs),
(193,23,o),
(241,8,o),
(300,8,cs)
);
},
{
closed = 1;
nodes = (
(404,376,o),
(472,434,o),
(472,521,cs),
(472,545,ls),
(472,632,o),
(404,690,o),
(300,690,cs),
(196,690,o),
(128,632,o),
(128,545,cs),
(128,521,ls),
(128,434,o),
(196,376,o),
(300,376,cs)
);
}
);
width = 600;
}
);
},
{
glyphname = nine.tosf;
layers = (
{
layerId = "880420EB-584C-4B51-BB9F-151DBE095CD5";
shapes = (
{
closed = 1;
nodes = (
(352,561,o),
(401,549,o),
(441,526,cs),
(520,479,o),
(563,394,o),
(563,281,cs),
(563,189,o),
(533,103,o),
(487,30,cs),
(441,-43,o),
(384,-101,o),
(328,-141,c),
(109,-141,l),
(163,-100,o),
(209,-62,o),
(248,-26,cs),
(325,47,o),
(370,117,o),
(385,197,c),
(374,201,l),
(367,184,o),
(358,167,o),
(347,150,c),
(323,117,o),
(287,94,o),
(226,94,cs),
(188,94,o),
(154,103,o),
(124,121,cs),
(64,157,o),
(27,224,o),
(27,312,cs),
(27,361,o),
(38,404,o),
(60,441,cs),
(104,516,o),
(186,561,o),
(295,561,cs)
);
},
{
closed = 1;
nodes = (
(314,224,o),
(331,228,o),
(344,235,cs),
(371,250,o),
(386,276,o),
(386,316,cs),
(386,337,ls),
(386,357,o),
(382,374,o),
(375,388,cs),
(360,415,o),
(334,430,o),
(295,430,cs),
(276,430,o),
(260,426,o),
(246,419,cs),
(218,404,o),
(203,377,o),
(203,337,cs),
(203,316,ls),
(203,296,o),
(207,279,o),
(214,266,cs),
(229,239,o),
(258,224,o),
(295,224,cs)
);
}
);
width = 600;
},
{
layerId = "389CED9B-F3EB-41FE-A5B1-A4D5AEA6A809";
shapes = (
{
closed = 1;
nodes = (
(351,558,o),
(398,547,o),
(437,524,cs),
(514,478,o),
(556,393,o),
(556,281,cs),
(556,186,o),
(526,99,o),
(479,26,cs),
(432,-47,o),
(375,-105,o),
(319,-144,c),
(128,-144,l),
(181,-105,o),
(226,-67,o),
(264,-32,cs),
(339,40,o),
(384,111,o),
(401,198,c),
(392,201,l),
(384,184,o),
(374,167,o),
(361,151,cs),
(336,118,o),
(298,96,o),
(238,96,cs),
(199,96,o),
(165,105,o),
(135,123,cs),
(74,159,o),
(36,225,o),
(36,313,cs),
(36,361,o),
(47,403,o),
(68,440,cs),
(111,513,o),
(191,558,o),
(296,558,cs)
);
},
{
closed = 1;
nodes = (
(319,211,o),
(338,215,o),
(354,224,cs),
(385,240,o),
(402,272,o),
(402,317,cs),
(402,335,ls),
(402,358,o),
(398,377,o),
(390,393,cs),
(373,424,o),
(341,441,o),
(296,441,cs),
(274,441,o),
(255,437,o),
(239,429,cs),
(207,412,o),
(190,380,o),
(190,335,cs),
(190,317,ls),
(190,294,o),
(194,275,o),
(203,260,c),
(219,228,o),
(252,211,o),
(296,211,cs)
);
}
);
width = 600;
},
{
layerId = "0B20A76F-6223-4F08-8632-D01C13B3F8D0";
shapes = (
{
closed = 1;
nodes = (
(348,548,o),
(391,537,o),
(426,516,cs),
(497,472,o),
(536,391,o),
(536,280,cs),
(536,179,o),
(504,88,o),
(456,14,cs),
(407,-61,o),
(348,-118,o),
(293,-154,c),
(185,-154,l),
(234,-119,o),
(276,-84,o),
(311,-50,cs),
(380,18,o),
(425,95,o),
(450,200,c),
(445,202,l),
(434,183,o),
(420,166,o),
(405,151,cs),
(373,120,o),
(332,102,o),
(273,102,cs),
(232,102,o),
(196,111,o),
(165,129,cs),
(102,164,o),
(64,229,o),
(64,317,cs),
(64,363,o),
(74,403,o),
(93,438,cs),
(132,507,o),
(204,548,o),
(299,548,cs)
);
},
{
closed = 1;
nodes = (
(332,173,o),
(359,179,o),
(382,190,c),
(426,213,o),
(450,257,o),
(450,320,cs),
(450,328,ls),
(450,359,o),
(444,386,o),
(433,408,c),
(409,452,o),
(364,475,o),
(300,475,cs),
(268,475,o),
(241,469,o),
(219,458,cs),
(174,435,o),
(150,391,o),
(150,328,cs),
(150,320,ls),
(150,289,o),
(156,262,o),
(168,240,cs),
(191,196,o),
(236,173,o),
(300,173,cs)
);
}
);
width = 600;
},
{
layerId = "C5DA3672-7219-4097-B42A-B369F4569BEC";
shapes = (
{
closed = 1;
nodes = (
(354,538,o),
(395,527,o),
(426,506,cs),
(489,463,o),
(516,389,o),
(516,300,cs),
(516,189,o),
(488,96,o),
(440,20,cs),
(392,-57,o),
(327,-117,o),
(255,-164,c),
(223,-164,l),
(274,-131,o),
(318,-96,o),
(355,-59,c),
(427,17,o),
(473,107,o),
(490,215,c),
(487,216,l),
(476,192,o),
(461,172,o),
(443,157,cs),
(406,125,o),
(359,109,o),
(304,109,cs),
(261,109,o),
(224,118,o),
(192,135,cs),
(128,169,o),
(92,233,o),
(92,321,cs),
(92,365,o),
(101,403,o),
(118,436,cs),
(153,500,o),
(218,538,o),
(303,538,cs)
);
},
{
closed = 1;
nodes = (
(344,129,o),
(378,137,o),
(406,153,cs),
(462,184,o),
(492,241,o),
(492,308,cs),
(492,336,ls),
(492,371,o),
(484,402,o),
(469,429,cs),
(438,484,o),
(381,518,o),
(304,518,cs),
(265,518,o),
(232,510,o),
(204,495,cs),
(147,463,o),
(116,407,o),
(116,339,cs),
(116,308,ls),
(116,275,o),
(124,244,o),
(139,217,cs),
(169,162,o),
(225,129,o),
(304,129,cs)
);
}
);
width = 600;
}
);
},
